<svg id="Ebene_1" data-name="Ebene 1" xmlns="http://www.w3.org/2000/svg" viewBox="0 0 231.22 126.67"><defs><style>.cls-1{fill:#bfe54a;}.cls-2{fill:#1d1d1b;}.cls-3{fill:#9fb737;}.cls-4{fill:#fff;}</style></defs><title>openselery</title><path d="M64.73,71.13a10.14,10.14,0,1,1,10.14,10A10,10,0,0,1,64.73,71.13Zm14.81,0a4.68,4.68,0,1,0-4.67,4.64A4.53,4.53,0,0,0,79.54,71.13Z"/><path d="M101.76,73.86c0,4.13-2.55,7.21-6.26,7.21a4.5,4.5,0,0,1-3.67-1.61v6.7h-5V67h5v1.23a4.48,4.48,0,0,1,3.67-1.62C99.21,66.64,101.76,69.73,101.76,73.86Zm-5.06,0a2.44,2.44,0,1,0-2.43,2.57A2.41,2.41,0,0,0,96.7,73.86Z"/><path d="M110.64,77a3.34,3.34,0,0,0,2.32-.88l3.31,2.79a7.82,7.82,0,0,1-5.8,2.21c-4.78,0-7.73-3.14-7.73-7.16A7.09,7.09,0,0,1,110,66.64a6.93,6.93,0,0,1,7.13,7.16,6.77,6.77,0,0,1-.22,1.78h-9.07A2.77,2.77,0,0,0,110.64,77Zm1.72-4.62a2.11,2.11,0,0,0-2.22-1.64,2.41,2.41,0,0,0-2.37,1.64Z"/><path d="M132.31,72.79v7.9h-5.06V73.34c0-1.23-.65-1.83-1.69-1.83-1.23,0-1.86.82-1.86,2.16v7h-5.06V67h5.06v1.33a4.32,4.32,0,0,1,3.66-1.72C130.2,66.64,132.31,68.56,132.31,72.79Z"/><path class="cls-1" d="M134,71.13a10,10,0,0,1,18.39-5.36l-4.76,2.73a4,4,0,0,0-3.63-2,4.65,4.65,0,0,0,0,9.29,3.93,3.93,0,0,0,3.63-2l4.76,2.73A9.63,9.63,0,0,1,144,81.13,9.75,9.75,0,0,1,134,71.13Z"/><path class="cls-1" d="M161.14,77a3.34,3.34,0,0,0,2.32-.88l3.31,2.79a7.81,7.81,0,0,1-5.8,2.21c-4.78,0-7.73-3.14-7.73-7.16a7.09,7.09,0,0,1,7.27-7.27,6.93,6.93,0,0,1,7.13,7.16,6.77,6.77,0,0,1-.22,1.78h-9.07A2.77,2.77,0,0,0,161.14,77Zm1.72-4.62a2.11,2.11,0,0,0-2.21-1.64,2.41,2.41,0,0,0-2.38,1.64Z"/><path class="cls-1" d="M169.14,60.74h5.06V80.69h-5.06Z"/><path class="cls-1" d="M183.63,77a3.34,3.34,0,0,0,2.32-.88l3.31,2.79a7.81,7.81,0,0,1-5.8,2.21c-4.78,0-7.73-3.14-7.73-7.16A7.09,7.09,0,0,1,183,66.64a6.93,6.93,0,0,1,7.13,7.16,6.77,6.77,0,0,1-.22,1.78h-9.07A2.77,2.77,0,0,0,183.63,77Zm1.72-4.62a2.11,2.11,0,0,0-2.21-1.64,2.41,2.41,0,0,0-2.38,1.64Z"/><path class="cls-1" d="M200.79,66.75v5.47c-2-.28-4.1.68-4.1,3.39v5.08h-5.06V67h5.06v2.65A4,4,0,0,1,200.79,66.75Z"/><path class="cls-1" d="M217.05,67,212.4,80.66c-1.36,4-4.12,5.69-8.77,5.5V81.37c1.8,0,2.71-.19,3.31-1L201.47,67h5.74l2.43,7.29L211.31,67Z"/><path class="cls-1" d="M33.66,58.33C36.26,69,36.12,80.88,35,96.38c-.76,10.79,5.11,15.37,12.61,15.37,8.07,0,16.15-9.36,11.25-25.3-4.67-15.21,4.5-36.12,4.5-36.12l-3.95-.52L56.36,58.4v-7l-2.92.08a48.45,48.45,0,0,1-.71,17.36C50.6,78.58,50.51,82.3,50.51,82.3s-2.28-2.21-2-9.47S52.46,54,52.46,54l-6.81-1s-2.72,26.59-4.07,26.53c-.61,0-1.16-4.94-.77-9.76a81.93,81.93,0,0,0,.06-11.19Z"/><path class="cls-2" d="M47.65,112.5c-4.15,0-7.58-1.34-9.93-3.85-2.65-2.85-3.8-7-3.43-12.32,1.08-15.48,1.23-27.2-1.36-37.83a.73.73,0,0,1,.15-.65.7.7,0,0,1,.6-.27l7.21.25a.74.74,0,0,1,.72.7,81.23,81.23,0,0,1-.06,11.3,37.82,37.82,0,0,0,.12,7.44c.91-4.12,2.25-14.7,3.23-24.35a.74.74,0,0,1,.85-.66l6.82,1a.82.82,0,0,1,.36.15c-.11-1.1-.23-1.73-.23-1.75a.75.75,0,0,1,.15-.61.76.76,0,0,1,.56-.28l2.92-.08a.84.84,0,0,1,.55.21.76.76,0,0,1,.23.54v2.7l1.64-4.55a.74.74,0,0,1,.8-.49l4,.51a.76.76,0,0,1,.59,1.05c-.09.21-9,20.83-4.47,35.6,3.46,11.25.29,17.91-1.9,20.88A12.6,12.6,0,0,1,47.65,112.5Zm-13-53.39c2.4,10.56,2.23,22.16,1.17,37.32-.34,4.9.68,8.67,3,11.19,2.06,2.21,5.11,3.38,8.83,3.38a11.08,11.08,0,0,0,8.86-4.78c2-2.74,4.94-8.93,1.68-19.56C54,73,60.6,55.21,62.33,50.94L60,50.64l-2.9,8a.74.74,0,0,1-.83.49.75.75,0,0,1-.62-.74V52.18l-1.3,0A50.64,50.64,0,0,1,53.46,69c-2.08,9.51-2.2,13.27-2.2,13.31a.73.73,0,0,1-.46.67.74.74,0,0,1-.81-.15c-.1-.1-2.52-2.53-2.21-10,.26-6.22,2.87-15.39,3.71-18.21l-5.18-.74c-2.72,26.51-4,26.48-4.76,26.43A.9.9,0,0,1,40.9,80c-.87-1-1.16-6.22-.84-10.24a79.31,79.31,0,0,0,.09-10.41ZM53,54.67c-.67,2.23-3.49,11.93-3.75,18.19A19.53,19.53,0,0,0,50,79.7c.27-2.13.83-5.66,2-11A50.45,50.45,0,0,0,53,54.67Z"/><path class="cls-3" d="M54.16,51.17c-3.85.91-4.4-4.83-6.06-5.33s3.28-4.73,3.28-4.73L44.74,26.05l2.77.51L47.1,23,49,24.35l6.55-7.67,3,7.56L61,19.8v5.58l2.61-1.57L54.24,41.26S58,50.26,54.16,51.17Z"/><path class="cls-2" d="M53.35,52C51,52,49.82,49.78,49,48.23c-.35-.67-.83-1.58-1.13-1.67a1.18,1.18,0,0,1-.85-.88c-.25-1.2,1.64-3.19,3.44-4.77L44.06,26.35a.75.75,0,0,1,.82-1l1.77.33-.29-2.53a.76.76,0,0,1,.36-.73.74.74,0,0,1,.81,0l1.37.94L55,16.19a.73.73,0,0,1,.7-.25.74.74,0,0,1,.57.47l2.38,6.06,1.64-3a.75.75,0,0,1,1.41.36v4.25l1.47-.89a.77.77,0,0,1,.91.1.76.76,0,0,1,.14.9L55.07,41.3c.57,1.46,2.42,6.57,1.11,9.14a2.75,2.75,0,0,1-1.85,1.46A4.37,4.37,0,0,1,53.35,52Zm-4.78-6.8a5,5,0,0,1,1.77,2.32c1.06,2,1.89,3.31,3.65,2.9a1.24,1.24,0,0,0,.85-.68c1-1.89-.6-6.57-1.29-8.21a.72.72,0,0,1,0-.64l8-15.06-.27.17a.76.76,0,0,1-1.14-.64V22.75l-1,1.85a.75.75,0,0,1-1.36-.09l-2.51-6.39L49.6,24.84a.75.75,0,0,1-1,.13L48,24.58l.21,1.9a.75.75,0,0,1-.23.63.78.78,0,0,1-.65.19L46,27l6.06,13.77a.72.72,0,0,1-.2.87A16.6,16.6,0,0,0,48.57,45.22Z"/><path class="cls-3" d="M41.22,46.56a13.43,13.43,0,0,1-7.63.88c-1.71-.3.85-6.81.85-6.81L27.69,25.54l2.8.17-.82-3.46,2.06,1.08,5.58-8.41,3.86,7.15L43,17.37l.68,5.53L46.1,21,43,38.39S44.93,45.2,41.22,46.56Z"/><path class="cls-2" d="M35.86,48.4a13.44,13.44,0,0,1-2.4-.22,1.35,1.35,0,0,1-1-.68c-.8-1.44.53-5.29,1.12-6.85L27,25.84a.73.73,0,0,1,.06-.73.75.75,0,0,1,.67-.32l1.79.11-.59-2.47A.75.75,0,0,1,30,21.59l1.47.77,5.21-7.85a.72.72,0,0,1,.66-.33.73.73,0,0,1,.62.39l3.09,5.72,1.27-3.2a.74.74,0,0,1,.79-.47.75.75,0,0,1,.65.65l.52,4.23,1.35-1.06a.75.75,0,0,1,1.2.72L43.73,38.35c.3,1.16,1.75,7.44-2.26,8.92A16,16,0,0,1,35.86,48.4ZM33.8,46.72A12.77,12.77,0,0,0,41,45.86h0c3-1.09,1.3-7.21,1.28-7.27a.78.78,0,0,1,0-.34L45,22.83l-.85.66a.75.75,0,0,1-.75.11A.79.79,0,0,1,43,23l-.32-2.62-.77,2a.75.75,0,0,1-.65.48.76.76,0,0,1-.71-.39l-3.26-6.05-4.89,7.37a.74.74,0,0,1-1,.25l-.61-.32.44,1.86a.73.73,0,0,1-.15.65.79.79,0,0,1-.62.27l-1.57-.1,6.25,14a.73.73,0,0,1,0,.58C34.16,43.4,33.54,46.1,33.8,46.72Z"/><path class="cls-1" d="M19.79,55.41S28.64,51.62,32.26,50a13.39,13.39,0,0,0,6.09-4.68c1-1.4,5.88-8.69,5.88-8.69l-2.46.27L41.88,33,39.6,35.34l-.32-2.64-2,2-1-3.86L35.44,45l-3.8-16L29.75,31,27.94,28,27.2,30.2,17.35,28l2.19,7.82-4.6-2.09,3.36,4.45-3,.32,18,8.3L22.5,45.67l1,1.74L21,48.07l.83,1.53-1.87,1.27,2.19.29Z"/><path class="cls-2" d="M19.79,56.16a.73.73,0,0,1-.55-.25.74.74,0,0,1-.11-.86l1.81-3.29-1.11-.14a.75.75,0,0,1-.32-1.37l1.31-.89-.51-.93a.75.75,0,0,1,.47-1.09l1.6-.41-.53-.88a.77.77,0,0,1,0-.79.74.74,0,0,1,.72-.34l6.2.67L15,39.21a.75.75,0,0,1,.24-1.42l1.7-.18-2.56-3.4a.75.75,0,0,1,.91-1.13l3.14,1.42-1.77-6.26a.76.76,0,0,1,.89-.94l9.19,2,.53-1.58a.75.75,0,0,1,.63-.51.74.74,0,0,1,.72.37l1.3,2.19,1.21-1.33a.75.75,0,0,1,1.28.33L35,40l.61-9.2a.75.75,0,0,1,1.47-.13l.63,2.57,1-1a.77.77,0,0,1,.78-.18.75.75,0,0,1,.5.62l.13,1.09,1.19-1.21a.74.74,0,0,1,1.28.54l-.08,3,1.6-.18a.75.75,0,0,1,.7,1.16c-.19.3-4.87,7.33-5.89,8.73a14.25,14.25,0,0,1-6.4,4.91C29,52.29,20.17,56.06,20.09,56.1A.8.8,0,0,1,19.79,56.16ZM22,50.39l.25,0a.75.75,0,0,1,.56,1.1L21.5,53.86c2.83-1.21,7.94-3.41,10.46-4.53a12.62,12.62,0,0,0,5.79-4.43c.73-1,3.51-5.16,5-7.33l-.86.09a.74.74,0,0,1-.59-.19A.79.79,0,0,1,41,36.9l.06-2-.94,1a.75.75,0,0,1-1.28-.43l-.14-1.1-.86.87a.76.76,0,0,1-.73.2.87.87,0,0,1-.3-.16L36.19,45a.75.75,0,0,1-1.48.13L31.24,30.52l-.94,1a.75.75,0,0,1-1.2-.13l-1-1.64-.21.65a.76.76,0,0,1-.88.5L18.41,29l1.86,6.62a.77.77,0,0,1-.24.77.75.75,0,0,1-.8.11l-1.92-.87,1.59,2.1a.75.75,0,0,1-.52,1.2l-.32,0,15.5,7.16a.75.75,0,0,1-.39,1.42l-9.25-1,.26.45a.72.72,0,0,1,.06.67.75.75,0,0,1-.51.44l-1.64.43.37.68a.74.74,0,0,1-.24,1Z"/><path class="cls-1" d="M66.91,47.79s-8.2,3.51-11.58,4.9a11.53,11.53,0,0,1-7,1c-1.6-.28-9.6-2-9.6-2l1.74-1.53-2.7-2.69,3,.05-1.57-2.09,2.58,0-2-3.41,10.14,9.4-8.37-14,2.61.15L43.24,34l2,1.06L50,26.66l3.86,7.09L55.42,29l.85,5.51,2.15-1.89L52.55,51.12l6.07-8.35.51,2,2.08-1.33.5,1.66,2-.4-1.2,1.74Z"/><path class="cls-2" d="M50.31,54.58a11.79,11.79,0,0,1-2.14-.2c-1.59-.28-9.31-2-9.63-2.06A.74.74,0,0,1,38.2,51l1.15-1L37.21,47.9a.76.76,0,0,1-.16-.82.72.72,0,0,1,.71-.46l1.48,0-.65-.86a.75.75,0,0,1,.6-1.2h1.26l-1.32-2.26a.74.74,0,0,1,.17-1,.76.76,0,0,1,1,0l6.31,5.85L40.9,37.72a.78.78,0,0,1,0-.78.79.79,0,0,1,.69-.36l1.57.09-.65-2.44a.76.76,0,0,1,1.09-.85l1.31.71,4.46-7.8a.89.89,0,0,1,.66-.38.77.77,0,0,1,.65.4l3,5.55,1-3.05a.79.79,0,0,1,.78-.52.76.76,0,0,1,.68.64l.64,4.15,1.12-1a.75.75,0,0,1,1.21.79l-4.46,14L58,42.33a.76.76,0,0,1,.75-.29.74.74,0,0,1,.59.55l.25,1,1.21-.77a.74.74,0,0,1,.66-.07.75.75,0,0,1,.46.49l.3,1,1.39-.28a.76.76,0,0,1,.76,1.17l-.62.9,3.37,1.07a.75.75,0,0,1,.07,1.41c-.08,0-8.23,3.52-11.58,4.91A13.73,13.73,0,0,1,50.31,54.58Zm-10-3.4c2.38.52,7,1.52,8.12,1.72A10.65,10.65,0,0,0,55,52c2.36-1,7.09-3,9.72-4.11l-2.42-.77a.74.74,0,0,1-.49-.47A.77.77,0,0,1,62,46l.15-.22-.24.05a.75.75,0,0,1-.87-.52l-.21-.71-1.25.79a.77.77,0,0,1-.68.07.77.77,0,0,1-.45-.51l-.11-.43-5.13,7.06a.75.75,0,0,1-1.32-.67l5-15.87-.11.1a.76.76,0,0,1-1.24-.45l-.37-2.41L54.6,34a.75.75,0,0,1-.64.51.73.73,0,0,1-.73-.39L50,28.2l-4.16,7.27a.76.76,0,0,1-1,.29l-.43-.24.46,1.77a.74.74,0,0,1-.14.66.79.79,0,0,1-.63.28l-1.19-.07L50.56,51a.76.76,0,0,1-.18,1,.75.75,0,0,1-1,0l-6.9-6.4a.63.63,0,0,1-.08.23.7.7,0,0,1-.66.38h-1l.65.87a.73.73,0,0,1,.07.79.75.75,0,0,1-.67.41h0l-1.16,0L41,49.53a.74.74,0,0,1,.22.56.76.76,0,0,1-.25.54Z"/><path class="cls-1" d="M77.42,50.19s-8.9.35-12.56.45A11.58,11.58,0,0,1,58,49c-1.39-.83-8.24-5.34-8.24-5.34l2.18-.81-1.56-3.48,2.8,1.13L52.41,38l2.39,1-.64-3.89,6.12,12.39L57.46,31.37l2.38,1.07.38-3.54,1.45,1.69,7.52-6.16,1.08,8,3.1-3.85L72.21,34l2.68-1L62.83,48.18l8.64-5.63-.23,2,2.43-.49-.13,1.73,2.06.35-1.74,1.2Z"/><path class="cls-2" d="M64.3,51.4a12.08,12.08,0,0,1-6.73-1.73c-1.39-.83-8-5.18-8.27-5.36A.77.77,0,0,1,49,43.6a.73.73,0,0,1,.48-.62l1.43-.53L49.64,39.7a.75.75,0,0,1,.15-.82.72.72,0,0,1,.82-.18l1.38.55-.3-1a.74.74,0,0,1,1-.9l1.17.46-.43-2.59a.75.75,0,0,1,1.41-.45l3.81,7.71L56.72,31.5a.74.74,0,0,1,.28-.72.72.72,0,0,1,.76-.09l1.44.64.27-2.51a.73.73,0,0,1,.52-.63.75.75,0,0,1,.79.22l1,1.14,6.95-5.7a.76.76,0,0,1,.75-.12.77.77,0,0,1,.47.6l.85,6.27,2-2.5a.75.75,0,0,1,1.32.63l-.88,4.12,1.39-.53a.76.76,0,0,1,.87.26.75.75,0,0,1,0,.91L66.3,45l4.76-3.1a.75.75,0,0,1,1.16.71l-.11,1,1.41-.29a.74.74,0,0,1,.89.79l-.07,1.05,1.39.24A.75.75,0,0,1,76,46.77l-.9.62,2.77,2.21a.74.74,0,0,1,.25.82.76.76,0,0,1-.68.52c-.09,0-9,.35-12.58.45ZM51.37,43.87c2,1.34,6,3.91,7,4.51a10.9,10.9,0,0,0,6.5,1.51c2.54-.07,7.69-.26,10.54-.37l-2-1.58a.77.77,0,0,1-.28-.62.78.78,0,0,1,.32-.59l.23-.15-.25,0a.75.75,0,0,1-.62-.8l.06-.74-1.46.3a.75.75,0,0,1-.89-.82l0-.44-7.31,4.77a.75.75,0,0,1-1-1.1l10.37-13-.14,0a.74.74,0,0,1-.75-.13.74.74,0,0,1-.24-.73l.5-2.38L70.85,32.9a.74.74,0,0,1-.78.25.75.75,0,0,1-.54-.62l-.91-6.67-6.47,5.31a.75.75,0,0,1-1-.09l-.32-.38-.2,1.82a.73.73,0,0,1-.37.57.74.74,0,0,1-.68,0l-1.09-.49L61,47.32a.76.76,0,0,1-.51.85.75.75,0,0,1-.9-.39l-4.17-8.43a.69.69,0,0,1-.16.18.76.76,0,0,1-.75.12l-1-.39.3,1.05a.75.75,0,0,1-.22.77.76.76,0,0,1-.78.14l-1.08-.44.8,1.79a.71.71,0,0,1,0,.59.74.74,0,0,1-.43.42Z"/><path class="cls-1" d="M52.33,58.6S45.08,60,42.1,60.48A9.54,9.54,0,0,1,36.25,60c-1.24-.51-7.38-3.38-7.38-3.38l1.68-.92L28.86,53l2.43.58-.9-2,2.08.49-1-3.11,6.5,9.4L33.73,45.61l2.07.58-.11-2.94,1.39,1.21,5.41-5.94,1.85,6.41,2.07-3.53L46.12,46l2.07-1.15-8,13.85,6.4-5.65.05,1.68,1.92-.7.11,1.43,1.73.05-1.28,1.19Z"/><path class="cls-2" d="M39.77,61.45a9.3,9.3,0,0,1-3.8-.77c-1.24-.51-7.17-3.28-7.42-3.39a.77.77,0,0,1-.43-.66.75.75,0,0,1,.39-.68l1-.54-1.27-2a.76.76,0,0,1,0-.84A.74.74,0,0,1,29,52.3l.94.22L29.71,52a.74.74,0,0,1,.85-1l.79.18-.6-1.84a.76.76,0,0,1,1.34-.66l3.52,5.11L33,45.84a.76.76,0,0,1,.17-.75.78.78,0,0,1,.75-.21l1.08.31-.07-1.91a.72.72,0,0,1,.42-.7.75.75,0,0,1,.82.11l.84.72L41.93,38a.76.76,0,0,1,1.28.3l1.36,4.74,1.2-2a.74.74,0,0,1,.86-.33.75.75,0,0,1,.53.76L47,44.69l.87-.48a.75.75,0,0,1,1,1l-5.71,9.84L46,52.5a.76.76,0,0,1,1.25.54l0,.64.95-.34a.76.76,0,0,1,.66.07.74.74,0,0,1,.34.58l.06.75,1,0a.75.75,0,0,1,.5,1.3l-.54.5L52.7,58a.75.75,0,0,1-.24,1.39s-7.25,1.36-10.23,1.88A13.56,13.56,0,0,1,39.77,61.45Zm-9.24-4.9c1.88.88,5.16,2.39,6,2.74a8.71,8.71,0,0,0,5.43.45c2-.34,5.87-1.06,8.23-1.51l-1.51-.87a.75.75,0,0,1-.37-.57.73.73,0,0,1,.18-.57.77.77,0,0,1-.63-.69l0-.44-1,.36a.75.75,0,0,1-.68-.09.74.74,0,0,1-.33-.59v-.09l-5.2,4.6a.77.77,0,0,1-1,0,.75.75,0,0,1-.17-.95l6.73-11.59a.75.75,0,0,1-.85-.79l.09-1.47-.48.82a.76.76,0,0,1-.74.36.74.74,0,0,1-.62-.53L42.14,40l-4.51,5a.75.75,0,0,1-1,.07L36.5,45l0,1.21a.75.75,0,0,1-.29.62.71.71,0,0,1-.66.13l-.72-.2,3.8,11.48a.75.75,0,0,1-1.33.66L33,52.61l0,0a.77.77,0,0,1-.73.23l-.59-.14.27.58a.74.74,0,0,1-.11.79.76.76,0,0,1-.75.25l-.62-.15.69,1.09a.73.73,0,0,1,.1.59.76.76,0,0,1-.37.47Z"/><ellipse class="cls-4" cx="42.22" cy="92.25" rx="3.22" ry="4.11"/><path class="cls-2" d="M42.22,96.86c-2,0-3.72-2.06-3.72-4.61s1.67-4.61,3.72-4.61,3.72,2.07,3.72,4.61S44.27,96.86,42.22,96.86Zm0-8.22c-1.5,0-2.72,1.62-2.72,3.61s1.22,3.61,2.72,3.61,2.72-1.62,2.72-3.61S43.72,88.64,42.22,88.64Z"/><ellipse class="cls-4" cx="53.47" cy="92.25" rx="3.22" ry="4.11"/><path class="cls-2" d="M53.47,96.86c-2,0-3.72-2.06-3.72-4.61s1.67-4.61,3.72-4.61,3.72,2.07,3.72,4.61S55.52,96.86,53.47,96.86Zm0-8.22c-1.5,0-2.72,1.62-2.72,3.61s1.22,3.61,2.72,3.61,2.72-1.62,2.72-3.61S55,88.64,53.47,88.64Z"/><path class="cls-2" d="M56.32,86.58a.47.47,0,0,1-.41-.22,2.93,2.93,0,0,0-2.44-1.12,3,3,0,0,0-2.3,1,.5.5,0,0,1-.76-.66,4,4,0,0,1,3.06-1.29,3.93,3.93,0,0,1,3.27,1.56.51.51,0,0,1-.14.7A.46.46,0,0,1,56.32,86.58Z"/><path class="cls-2" d="M37.72,88.11a.5.5,0,0,1-.47-.67,4.92,4.92,0,0,1,3-2.8,4.78,4.78,0,0,1,4.4.39.49.49,0,0,1,.12.69.5.5,0,0,1-.7.12,3.79,3.79,0,0,0-3.47-.26,3.9,3.9,0,0,0-2.37,2.2A.51.51,0,0,1,37.72,88.11Z"/><ellipse class="cls-2" cx="53.01" cy="91.75" rx="1.47" ry="1.88"/><ellipse class="cls-2" cx="42.74" cy="91.75" rx="1.47" ry="1.88"/><path class="cls-4" d="M54.74,99.07a13.81,13.81,0,0,1-5.08,2.15,15,15,0,0,1-5.22-.67c1.58,3.55,3.19,6,6,5.62C52.81,105.8,54.74,103,54.74,99.07Z"/><path class="cls-2" d="M49.8,106.72c-2.9,0-4.52-3.06-5.82-6a.51.51,0,0,1,.08-.54.52.52,0,0,1,.53-.14,14.84,14.84,0,0,0,5,.66,13.52,13.52,0,0,0,4.86-2.07.47.47,0,0,1,.51,0,.5.5,0,0,1,.27.44c0,4-2,7.16-4.78,7.59A3.85,3.85,0,0,1,49.8,106.72Zm-4.46-5.41c1.42,3,2.81,4.7,5,4.37S53.94,103,54.2,100a12.86,12.86,0,0,1-4.48,1.72A13.15,13.15,0,0,1,45.34,101.31Z"/><ellipse class="cls-2" cx="46.47" cy="97.9" rx="0.73" ry="0.47" transform="translate(-11.9 6.6) rotate(-7.2)"/><ellipse class="cls-2" cx="48.49" cy="97.64" rx="0.73" ry="0.47" transform="translate(-11.86 6.85) rotate(-7.2)"/></svg>