<svg id="Ebene_1" data-name="Ebene 1" xmlns="http://www.w3.org/2000/svg" viewBox="0 0 114 114"><defs><style>.cls-1{fill:#bfe54a;}.cls-2{fill:#1d1d1b;}.cls-3{fill:#9fb737;}.cls-4{fill:#fff;}</style></defs><title>opencelery</title><path class="cls-1" d="M45,52.24c2.49,10.23,2.35,21.57,1.32,36.39-.72,10.32,4.89,14.69,12.06,14.69,7.72,0,15.45-8.94,10.76-24.19-4.46-14.55,4.31-34.54,4.31-34.54l-3.78-.49-3,8.21V45.62l-2.8.09a46.06,46.06,0,0,1-.67,16.59c-2,9.31-2.12,12.87-2.12,12.87s-2.18-2.12-1.9-9.06,3.76-18,3.76-18l-6.51-.93s-2.6,25.42-3.89,25.37c-.58,0-1.11-4.73-.74-9.33a78.31,78.31,0,0,0,0-10.71Z"/><path class="cls-2" d="M58.42,104c-4,0-7.25-1.27-9.49-3.68-2.54-2.72-3.64-6.68-3.29-11.78,1-14.8,1.18-26-1.29-36.17a.66.66,0,0,1,.14-.62.69.69,0,0,1,.58-.27l6.89.24a.72.72,0,0,1,.69.68,77.14,77.14,0,0,1-.06,10.8,37.09,37.09,0,0,0,.11,7.12c.87-4,2.15-14.06,3.09-23.29a.73.73,0,0,1,.27-.49.72.72,0,0,1,.55-.14l6.52.93a.85.85,0,0,1,.34.14c-.11-1-.22-1.65-.22-1.67a.68.68,0,0,1,.15-.58.69.69,0,0,1,.53-.27l2.8-.08a.72.72,0,0,1,.52.2.7.7,0,0,1,.22.51v2.59L69,43.86a.7.7,0,0,1,.76-.47l3.78.49a.72.72,0,0,1,.56,1c-.08.2-8.61,19.92-4.27,34,3.3,10.76.28,17.14-1.82,20A12,12,0,0,1,58.42,104ZM46,53c2.29,10.09,2.13,21.2,1.11,35.69-.32,4.69.65,8.29,2.91,10.7a11.15,11.15,0,0,0,8.44,3.23A10.61,10.61,0,0,0,66.89,98c1.94-2.62,4.73-8.54,1.61-18.7-4-13.07,2.31-30.08,4-34.16l-2.27-.29-2.77,7.66A.71.71,0,0,1,66,52.31v-6l-1.24,0A48.1,48.1,0,0,1,64,62.45c-2,9.1-2.1,12.7-2.1,12.73a.72.72,0,0,1-1.22.5c-.1-.09-2.41-2.42-2.11-9.6.24-5.95,2.74-14.71,3.54-17.41l-5-.71c-2.6,25.35-3.81,25.32-4.55,25.27a.89.89,0,0,1-.63-.31c-.83-.94-1.1-6-.8-9.79a74.26,74.26,0,0,0,.09-10Zm17.61-4.25c-.64,2.14-3.34,11.41-3.59,17.4a18.8,18.8,0,0,0,.69,6.54c.26-2,.79-5.42,1.91-10.53A48.48,48.48,0,0,0,63.57,48.74Z"/><path class="cls-3" d="M64.65,45.39c-3.69.87-4.21-4.61-5.8-5.09S62,35.78,62,35.78L55.64,21.37l2.64.49-.38-3.38,1.84,1.27L66,12.42l2.83,7.22,2.31-4.24v5.33l2.5-1.5L64.72,35.92S68.33,44.53,64.65,45.39Z"/><path class="cls-2" d="M63.88,46.21c-2.26,0-3.38-2.15-4.15-3.62-.34-.64-.8-1.51-1.08-1.6a1.12,1.12,0,0,1-.82-.85c-.24-1.14,1.57-3,3.29-4.56L55,21.66a.71.71,0,0,1,.09-.73.72.72,0,0,1,.7-.26l1.68.31-.27-2.42a.72.72,0,0,1,1.12-.67l1.3.9L65.46,12a.73.73,0,0,1,1.22.2L69,18l1.57-2.9a.72.72,0,0,1,1.35.34v4.07l1.41-.85a.72.72,0,0,1,1,1L65.52,36c.55,1.39,2.31,6.28,1.06,8.74a2.57,2.57,0,0,1-1.77,1.39A4,4,0,0,1,63.88,46.21Zm-4.58-6.5A4.78,4.78,0,0,1,61,41.92c1,1.94,1.81,3.17,3.48,2.78a1.17,1.17,0,0,0,.82-.65c.92-1.81-.58-6.28-1.24-7.85a.75.75,0,0,1,0-.62l7.69-14.39-.25.16a.76.76,0,0,1-.73,0,.73.73,0,0,1-.36-.63V18.21l-1,1.78a.71.71,0,0,1-.67.37.73.73,0,0,1-.63-.45l-2.39-6.12-5.5,6.43a.71.71,0,0,1-1,.12L58.79,20,59,21.78a.73.73,0,0,1-.85.79l-1.3-.25,5.79,13.17a.72.72,0,0,1-.19.84A16.08,16.08,0,0,0,59.3,39.71Z"/><path class="cls-3" d="M52.27,41a12.88,12.88,0,0,1-7.29.84c-1.64-.28.81-6.51.81-6.51L39.34,20.88l2.67.17-.79-3.31,2,1,5.34-8,3.69,6.83L54,13.07l.65,5.3,2.29-1.8-3,16.6S55.82,39.68,52.27,41Z"/><path class="cls-2" d="M47.14,42.75a13.33,13.33,0,0,1-2.29-.21,1.3,1.3,0,0,1-.9-.65c-.77-1.38.5-5.06,1.07-6.55L38.68,21.18a.72.72,0,0,1,.07-.71.71.71,0,0,1,.63-.3l1.71.1-.56-2.36a.7.7,0,0,1,.25-.73.72.72,0,0,1,.78-.07l1.4.73,5-7.5a.72.72,0,0,1,1.23.05l2.95,5.48,1.21-3.06a.72.72,0,0,1,1.38.17l.5,4,1.29-1a.71.71,0,0,1,.82-.05.72.72,0,0,1,.33.74l-3,16.44c.29,1.11,1.67,7.12-2.15,8.53A15.43,15.43,0,0,1,47.14,42.75Zm-2-1.61A12.13,12.13,0,0,0,52,40.32h0c2.84-1,1.25-6.89,1.23-7a.74.74,0,0,1,0-.33L55.9,18.3l-.8.63a.72.72,0,0,1-1.16-.48L53.63,16l-.74,1.87a.71.71,0,0,1-1.29.08l-3.12-5.78-4.68,7a.71.71,0,0,1-.93.24l-.58-.3.42,1.77a.69.69,0,0,1-.15.63.74.74,0,0,1-.59.26l-1.5-.1,6,13.36a.7.7,0,0,1,0,.55C45.52,38,44.93,40.55,45.17,41.14Z"/><path class="cls-1" d="M31.78,49.45s8.46-3.62,11.93-5.15a12.88,12.88,0,0,0,5.82-4.47c1-1.35,5.62-8.32,5.62-8.32l-2.35.26L52.91,28l-2.19,2.23-.3-2.53-1.87,1.89-.91-3.69-.89,13.55L43.11,24.16l-1.81,2-1.73-2.93-.7,2.12-9.43-2.07,2.11,7.48-4.41-2L30.36,33l-2.9.3,17.19,7.93L34.37,40.13l1,1.67-2.46.63.79,1.46-1.78,1.22,2.09.28Z"/><path class="cls-2" d="M31.78,50.17a.69.69,0,0,1-.53-.24.71.71,0,0,1-.1-.82L32.88,46l-1.06-.14a.71.71,0,0,1-.6-.54.73.73,0,0,1,.29-.76l1.25-.86-.48-.88a.72.72,0,0,1,.45-1l1.53-.4-.51-.84a.72.72,0,0,1,.69-1.08l5.93.64L27.16,34a.72.72,0,0,1-.41-.76.73.73,0,0,1,.64-.6L29,32.43l-2.45-3.25a.72.72,0,0,1,0-.88.71.71,0,0,1,.86-.2l3,1.36-1.69-6a.72.72,0,0,1,.85-.9l8.79,1.93.5-1.51a.72.72,0,0,1,1.3-.14L41.43,25l1.15-1.27a.72.72,0,0,1,1.23.32l2.53,10.68.58-8.8a.72.72,0,0,1,.65-.66.73.73,0,0,1,.77.54l.6,2.45,1-1a.72.72,0,0,1,1.22.42l.13,1,1.14-1.16a.71.71,0,0,1,1.22.52L53.54,31l1.53-.16a.67.67,0,0,1,.69.34.71.71,0,0,1,0,.77c-.19.28-4.66,7-5.64,8.34A13.73,13.73,0,0,1,44,45c-3.43,1.52-11.85,5.12-11.94,5.16A.67.67,0,0,1,31.78,50.17Zm2.08-5.52.24,0a.72.72,0,0,1,.54,1.06L33.41,48c2.71-1.16,7.6-3.27,10-4.33A12.1,12.1,0,0,0,49,39.4c.7-1,3.37-4.93,4.75-7l-.82.09a.69.69,0,0,1-.56-.19.67.67,0,0,1-.23-.54l0-1.91-.9.92A.73.73,0,0,1,50,30.34l-.12-1.05-.83.84a.72.72,0,0,1-.7.18.69.69,0,0,1-.28-.15l-.62,9.37a.7.7,0,0,1-.65.66.72.72,0,0,1-.76-.54l-3.32-14-.9,1a.71.71,0,0,1-.6.23.68.68,0,0,1-.54-.35l-.93-1.57-.21.62a.71.71,0,0,1-.83.48l-8.26-1.81,1.77,6.32a.71.71,0,0,1-1,.85l-1.84-.83,1.52,2a.72.72,0,0,1,.08.72.71.71,0,0,1-.58.43l-.3,0L45,40.59a.72.72,0,0,1,.39.84.74.74,0,0,1-.77.53l-8.84-1,.25.43a.69.69,0,0,1,.05.64.7.7,0,0,1-.48.42L34,42.9l.35.65a.71.71,0,0,1-.22.93Z"/><path class="cls-1" d="M76.84,42.16S69,45.52,65.77,46.86a11.06,11.06,0,0,1-6.72.9c-1.53-.26-9.19-2-9.19-2l1.67-1.46L49,41.76l2.89.05-1.51-2,2.47,0-1.91-3.26,9.7,9-8-13.41,2.49.14L54.2,29l1.88,1L60.69,22l3.7,6.77,1.46-4.49.82,5.27,2-1.81L63.11,45.35l5.8-8,.49,1.88,2-1.27.48,1.59,2-.39-1.15,1.66Z"/><path class="cls-2" d="M61,48.66a11.72,11.72,0,0,1-2-.19c-1.53-.27-8.9-1.9-9.21-2a.7.7,0,0,1-.54-.52.72.72,0,0,1,.22-.72l1.09-1-2-2a.74.74,0,0,1-.15-.79A.7.7,0,0,1,49,41l1.42,0-.62-.83a.71.71,0,0,1-.07-.75.72.72,0,0,1,.64-.4h0l1.2,0L50.27,37a.72.72,0,0,1,1.11-.89l6,5.59L52,32.53a.71.71,0,0,1,.65-1.08l1.51.08-.62-2.33a.74.74,0,0,1,.25-.75.75.75,0,0,1,.79-.07l1.25.68,4.27-7.45a.78.78,0,0,1,.63-.36.7.7,0,0,1,.62.37l2.9,5.31,1-2.92a.74.74,0,0,1,.74-.49.72.72,0,0,1,.65.61l.62,4,1.06-.94a.72.72,0,0,1,.87-.06.7.7,0,0,1,.29.81L65.14,41.34l3.19-4.4a.74.74,0,0,1,.72-.28.72.72,0,0,1,.56.53l.24.92L71,37.37a.71.71,0,0,1,1.07.4l.29,1,1.32-.26a.7.7,0,0,1,.74.31.71.71,0,0,1,0,.8l-.6.86,3.23,1a.71.71,0,0,1,.5.65.7.7,0,0,1-.43.69c-.08,0-7.88,3.37-11.08,4.7A13.09,13.09,0,0,1,61,48.66ZM51.4,45.4c2.28.51,6.67,1.46,7.77,1.65a10.18,10.18,0,0,0,6.32-.86c2.25-.93,6.78-2.86,9.29-3.93l-2.31-.73a.71.71,0,0,1-.46-.45.72.72,0,0,1,.08-.64l.15-.22-.23.05a.74.74,0,0,1-.83-.5l-.2-.68-1.2.76a.72.72,0,0,1-1.08-.43l-.1-.4-4.91,6.75a.72.72,0,0,1-.9.22.71.71,0,0,1-.36-.86L67.25,30l-.11.09a.69.69,0,0,1-.71.14.71.71,0,0,1-.47-.56l-.36-2.3L65.07,29a.72.72,0,0,1-1.31.12l-3.08-5.65-4,7a.72.72,0,0,1-1,.28l-.42-.23.45,1.69a.77.77,0,0,1-.14.64A.76.76,0,0,1,55,33L53.89,33,61.2,45.2a.71.71,0,0,1-1.1.89L53.5,40a.83.83,0,0,1-.08.22.69.69,0,0,1-.63.36l-1,0,.63.84a.71.71,0,0,1-.57,1.15h0l-1.12,0L52,43.83a.71.71,0,0,1,0,1.05Z"/><path class="cls-1" d="M86.9,44.46s-8.52.34-12,.43a11,11,0,0,1-6.6-1.55c-1.34-.79-7.88-5.11-7.88-5.11l2.08-.77L61,34.14l2.68,1.07L63,32.81l2.29.9L64.64,30,70.5,41.84,67.8,26.46l2.28,1,.36-3.38,1.39,1.62L79,19.83l1,7.64,3-3.68L81.91,29l2.56-1L72.94,42.54l8.26-5.39L81,39.08l2.32-.48-.12,1.66,2,.34-1.66,1.14Z"/><path class="cls-2" d="M74.35,45.62A11.54,11.54,0,0,1,67.91,44c-1.33-.79-7.64-5-7.91-5.13a.73.73,0,0,1-.32-.68.72.72,0,0,1,.47-.59l1.36-.5-1.18-2.63a.7.7,0,0,1,.14-.79.71.71,0,0,1,.78-.17l1.32.53-.29-1a.73.73,0,0,1,.21-.73.71.71,0,0,1,.75-.14l1.11.44-.41-2.47a.72.72,0,0,1,1.35-.44l3.64,7.38L67.1,26.59a.7.7,0,0,1,.26-.69.73.73,0,0,1,.74-.09l1.37.61L69.73,24a.7.7,0,0,1,.5-.61.7.7,0,0,1,.75.21l.94,1.09,6.64-5.45a.72.72,0,0,1,1.17.46l.81,6,1.92-2.38a.72.72,0,0,1,.87-.2.71.71,0,0,1,.39.8l-.84,3.93,1.34-.5A.72.72,0,0,1,85,28.49l-8.77,11,4.55-3a.71.71,0,0,1,.77,0,.71.71,0,0,1,.34.69l-.11,1,1.35-.28a.7.7,0,0,1,.61.16.75.75,0,0,1,.25.6l-.08,1,1.33.23a.72.72,0,0,1,.58.55.73.73,0,0,1-.29.75l-.87.59,2.65,2.12a.71.71,0,0,1,.24.78.73.73,0,0,1-.66.49c-.08,0-8.56.34-12,.44ZM62,38.41c1.94,1.28,5.71,3.74,6.66,4.32a10.46,10.46,0,0,0,6.22,1.45c2.43-.07,7.35-.26,10.08-.36L83,42.3a.69.69,0,0,1-.27-.58.72.72,0,0,1,.31-.57l.21-.14-.23,0a.72.72,0,0,1-.6-.75l.06-.71-1.39.28a.72.72,0,0,1-.63-.17.74.74,0,0,1-.23-.61l0-.42-7,4.56a.72.72,0,0,1-.92-.12.73.73,0,0,1,0-.93l9.92-12.46-.13.05a.73.73,0,0,1-.72-.13.7.7,0,0,1-.23-.69l.48-2.28-1.08,1.34a.71.71,0,0,1-.75.24.72.72,0,0,1-.52-.59l-.86-6.38-6.2,5.08a.7.7,0,0,1-1-.09L71,25.82l-.19,1.74a.7.7,0,0,1-.35.54.73.73,0,0,1-.66,0l-1-.47,2.46,14a.71.71,0,0,1-1.34.44l-4-8.07a.55.55,0,0,1-.16.18.73.73,0,0,1-.71.11L64.06,34l.29,1a.7.7,0,0,1-.2.73.72.72,0,0,1-.75.14l-1-.42.76,1.71a.75.75,0,0,1,0,.57.76.76,0,0,1-.41.4Z"/><path class="cls-1" d="M62.89,52.5S56,53.8,53.11,54.3a9.14,9.14,0,0,1-5.59-.47c-1.18-.49-7.06-3.23-7.06-3.23l1.61-.88-1.62-2.55,2.32.56-.85-1.88,2,.46-.95-3,6.21,9-4-12.25,2,.56L47,37.83,48.31,39l5.18-5.68,1.76,6.13,2-3.37L57,40.46l2-1.09L51.24,52.61l6.12-5.4,0,1.6,1.84-.67.1,1.37,1.65,0-1.22,1.14Z"/><path class="cls-2" d="M50.89,55.23a9,9,0,0,1-3.64-.74c-1.19-.49-6.85-3.13-7.09-3.24a.72.72,0,0,1,0-1.28l.94-.52-1.21-1.89a.71.71,0,0,1,0-.8.73.73,0,0,1,.75-.29l.89.22-.25-.55a.72.72,0,0,1,.82-1l.75.17-.57-1.76a.72.72,0,0,1,1.28-.63l3.37,4.89L44.43,40.3a.71.71,0,0,1,.16-.72.7.7,0,0,1,.71-.19l1,.29-.08-1.83a.71.71,0,0,1,.41-.67.74.74,0,0,1,.78.1l.8.7L53,32.81a.73.73,0,0,1,.7-.21.71.71,0,0,1,.52.5l1.31,4.53,1.14-1.94a.72.72,0,0,1,.83-.32.7.7,0,0,1,.5.73l-.19,3.1.83-.46a.71.71,0,0,1,.86.12.73.73,0,0,1,.1.87l-5.46,9.41,2.79-2.47a.73.73,0,0,1,.76-.12.69.69,0,0,1,.43.63l0,.62.91-.33a.72.72,0,0,1,.64.07.69.69,0,0,1,.32.55l.06.72,1,0a.7.7,0,0,1,.65.46.73.73,0,0,1-.18.78l-.52.48,2.28,1.32A.72.72,0,0,1,63,53.21s-6.94,1.3-9.79,1.8A13.25,13.25,0,0,1,50.89,55.23Zm-8.84-4.69c1.8.84,4.93,2.29,5.75,2.63A8.43,8.43,0,0,0,53,53.6c1.9-.34,5.61-1,7.87-1.45l-1.44-.84a.71.71,0,0,1-.36-.54.7.7,0,0,1,.18-.55.72.72,0,0,1-.61-.65l0-.43-.94.35a.71.71,0,0,1-.65-.08.73.73,0,0,1-.32-.57v-.09l-5,4.4a.72.72,0,0,1-1.09-.9l6.44-11.08a.73.73,0,0,1-.82-.76l.09-1.4-.46.78a.72.72,0,0,1-1.31-.16l-1.41-4.9-4.31,4.73a.72.72,0,0,1-1,.06l-.08-.07.05,1.16a.69.69,0,0,1-.28.59.72.72,0,0,1-.63.13l-.69-.2,3.63,11a.72.72,0,0,1-1.27.63l-4.12-6,0,0a.72.72,0,0,1-.69.21l-.57-.13.26.55a.75.75,0,0,1-.1.76.73.73,0,0,1-.72.24l-.6-.14.67,1a.74.74,0,0,1,.09.56.7.7,0,0,1-.35.45Z"/><ellipse class="cls-4" cx="53.23" cy="84.68" rx="3.08" ry="3.93"/><path class="cls-2" d="M53.23,89.09c-2,0-3.56-2-3.56-4.41s1.6-4.41,3.56-4.41,3.55,2,3.55,4.41S55.19,89.09,53.23,89.09Zm0-7.86c-1.44,0-2.6,1.55-2.6,3.45s1.16,3.46,2.6,3.46,2.6-1.55,2.6-3.46S54.66,81.23,53.23,81.23Z"/><ellipse class="cls-4" cx="63.99" cy="84.68" rx="3.08" ry="3.93"/><path class="cls-2" d="M64,89.09c-2,0-3.56-2-3.56-4.41S62,80.27,64,80.27s3.55,2,3.55,4.41S66,89.09,64,89.09Zm0-7.86c-1.44,0-2.6,1.55-2.6,3.45s1.16,3.46,2.6,3.46,2.6-1.55,2.6-3.46S65.42,81.23,64,81.23Z"/><path class="cls-2" d="M66.72,79.26a.46.46,0,0,1-.4-.21A2.8,2.8,0,0,0,64,78a2.86,2.86,0,0,0-2.2.9.48.48,0,0,1-.73-.62A3.85,3.85,0,0,1,64,77a3.73,3.73,0,0,1,3.12,1.5.47.47,0,0,1-.13.66A.42.42,0,0,1,66.72,79.26Z"/><path class="cls-2" d="M48.93,80.72a.51.51,0,0,1-.17,0,.48.48,0,0,1-.28-.61A4.74,4.74,0,0,1,51.3,77.4a4.65,4.65,0,0,1,4.22.37.49.49,0,0,1,.11.67.48.48,0,0,1-.67.11,3.63,3.63,0,0,0-3.32-.25,3.75,3.75,0,0,0-2.26,2.1A.48.48,0,0,1,48.93,80.72Z"/><ellipse class="cls-2" cx="63.55" cy="84.2" rx="1.4" ry="1.79"/><ellipse class="cls-2" cx="53.73" cy="84.2" rx="1.4" ry="1.79"/><path class="cls-4" d="M65.2,91.2a13.21,13.21,0,0,1-4.86,2.06,14.37,14.37,0,0,1-5-.64C56.87,96,58.4,98.39,61,98,63.36,97.64,65.2,95,65.2,91.2Z"/><path class="cls-2" d="M60.47,98.51c-2.77,0-4.32-2.92-5.56-5.7a.48.48,0,0,1,.58-.65,14.23,14.23,0,0,0,4.8.63,12.83,12.83,0,0,0,4.64-2,.5.5,0,0,1,.5,0,.49.49,0,0,1,.25.42c0,3.87-1.88,6.85-4.57,7.26A3.52,3.52,0,0,1,60.47,98.51Zm-4.26-5.17c1.36,2.85,2.69,4.5,4.76,4.18s3.46-2.52,3.72-5.43a12.21,12.21,0,0,1-4.29,1.65A12.55,12.55,0,0,1,56.21,93.34Z"/><ellipse class="cls-2" cx="57.29" cy="90.08" rx="0.7" ry="0.45" transform="translate(-10.84 7.89) rotate(-7.2)"/><ellipse class="cls-2" cx="59.23" cy="89.84" rx="0.7" ry="0.45" transform="matrix(0.99, -0.13, 0.13, 0.99, -10.79, 8.13)"/></svg>