<svg id="Ebene_1" data-name="Ebene 1" xmlns="http://www.w3.org/2000/svg" viewBox="0 0 231.17 126.67"><defs><style>.cls-1{fill:#bfe54a;}.cls-2{fill:#1d1d1b;}.cls-3{fill:#9fb737;}</style></defs><title>opencelery</title><path class="cls-1" d="M33.67,58.32c2.6,10.71,2.46,22.58,1.38,38.1-.76,10.81,5.12,15.39,12.63,15.39,8.08,0,16.17-9.37,11.27-25.33-4.68-15.23,4.5-36.17,4.5-36.17l-4-.52-3.1,8.6v-7l-2.93.09a48.23,48.23,0,0,1-.71,17.37c-2.13,9.75-2.21,13.48-2.21,13.48s-2.29-2.22-2-9.49S52.5,54,52.5,54l-6.83-1S43,79.61,41.6,79.55c-.61,0-1.16-5-.77-9.77a80.8,80.8,0,0,0,.05-11.21Z"/><path class="cls-2" d="M47.68,112.56c-4.16,0-7.59-1.33-10-3.85-2.65-2.85-3.8-7-3.43-12.34,1.08-15.49,1.23-27.23-1.36-37.87a.73.73,0,0,1,.15-.65.71.71,0,0,1,.6-.28l7.22.25a.74.74,0,0,1,.72.71,81.38,81.38,0,0,1-.06,11.31,38,38,0,0,0,.12,7.46c.91-4.13,2.25-14.73,3.23-24.39a.74.74,0,0,1,.29-.51.73.73,0,0,1,.57-.16l6.82,1a.77.77,0,0,1,.36.15c-.11-1.1-.22-1.73-.23-1.75a.76.76,0,0,1,.72-.89l2.92-.09a.82.82,0,0,1,.55.21.78.78,0,0,1,.23.54V54.1l1.64-4.56a.76.76,0,0,1,.81-.49l3.95.52a.74.74,0,0,1,.55.37.76.76,0,0,1,0,.67c-.09.21-9,20.86-4.48,35.65,3.46,11.27.29,17.94-1.9,20.91A12.59,12.59,0,0,1,47.68,112.56ZM34.62,59.1c2.4,10.57,2.23,22.2,1.17,37.38-.34,4.9.68,8.67,3,11.2,2.06,2.21,5.12,3.38,8.85,3.38a11.1,11.1,0,0,0,8.87-4.78c2-2.74,5-8.94,1.68-19.58C54,73,60.65,55.19,62.38,50.93L60,50.62l-2.9,8a.75.75,0,0,1-1.45-.26V52.16l-1.31,0A50.19,50.19,0,0,1,53.49,69c-2.07,9.53-2.19,13.3-2.19,13.33a.75.75,0,0,1-1.28.52c-.1-.1-2.52-2.53-2.21-10,.26-6.23,2.87-15.41,3.71-18.23l-5.18-.74c-2.73,26.55-4,26.51-4.77,26.46a.94.94,0,0,1-.66-.33c-.86-1-1.15-6.22-.83-10.25a81.26,81.26,0,0,0,.09-10.42Zm18.45-4.45c-.67,2.22-3.5,11.95-3.76,18.22A19.37,19.37,0,0,0,50,79.73c.26-2.13.82-5.68,2-11A50.69,50.69,0,0,0,53.07,54.65Z"/><path class="cls-3" d="M54.19,51.15c-3.85.91-4.4-4.83-6.06-5.33s3.28-4.74,3.28-4.74L44.77,26l2.76.51L47.13,23l1.93,1.33,6.56-7.68,3,7.57L61,19.74v5.59l2.61-1.58L54.28,41.23S58.05,50.24,54.19,51.15Z"/><path class="cls-2" d="M53.39,52c-2.36,0-3.53-2.24-4.34-3.79-.36-.67-.84-1.58-1.14-1.68a1.15,1.15,0,0,1-.85-.88c-.25-1.19,1.64-3.18,3.44-4.77L44.08,26.3a.76.76,0,0,1,.1-.77.72.72,0,0,1,.72-.27l1.77.33-.28-2.53a.72.72,0,0,1,.36-.73.76.76,0,0,1,.81,0l1.36.95,6.13-7.17a.75.75,0,0,1,1.27.21l2.38,6.07,1.64-3a.77.77,0,0,1,.85-.37.75.75,0,0,1,.56.73V24l1.47-.89a.77.77,0,0,1,.91.1.76.76,0,0,1,.14.9L55.1,41.27c.58,1.46,2.43,6.58,1.12,9.15a2.73,2.73,0,0,1-1.85,1.46h0A4.44,4.44,0,0,1,53.39,52ZM48.6,45.2a5,5,0,0,1,1.77,2.32c1.07,2,1.89,3.32,3.65,2.9h0a1.21,1.21,0,0,0,.86-.68c1-1.89-.61-6.58-1.29-8.22a.72.72,0,0,1,0-.64L61.67,25.8,61.4,26a.76.76,0,0,1-.76,0,.75.75,0,0,1-.38-.65V22.69l-1,1.85a.75.75,0,0,1-.71.4.76.76,0,0,1-.65-.48l-2.51-6.4-5.75,6.73a.77.77,0,0,1-1,.13l-.57-.4.22,1.9a.74.74,0,0,1-.24.64.75.75,0,0,1-.64.19L46,27,52.1,40.78a.75.75,0,0,1-.2.87A16.44,16.44,0,0,0,48.6,45.2Z"/><path class="cls-3" d="M41.23,46.54a13.42,13.42,0,0,1-7.63.88c-1.72-.3.85-6.82.85-6.82L27.69,25.48l2.81.18-.83-3.46,2.07,1.08,5.59-8.42L41.19,22l1.86-4.71.68,5.55L46.13,21,43,38.35S45,45.17,41.23,46.54Z"/><path class="cls-2" d="M35.87,48.38a13.44,13.44,0,0,1-2.4-.22,1.35,1.35,0,0,1-.95-.68c-.8-1.44.53-5.3,1.12-6.86L27,25.79a.76.76,0,0,1,.06-.73.78.78,0,0,1,.67-.33l1.79.12-.59-2.48a.75.75,0,0,1,.27-.77.75.75,0,0,1,.81-.07l1.47.77,5.21-7.86a.73.73,0,0,1,.66-.33.76.76,0,0,1,.63.39l3.09,5.74L42.35,17a.75.75,0,0,1,1.44.18l.52,4.23,1.36-1.06a.75.75,0,0,1,.85-.05.76.76,0,0,1,.35.77L43.75,38.32c.31,1.16,1.75,7.45-2.26,8.93A16.07,16.07,0,0,1,35.87,48.38Zm-2.06-1.69A12.69,12.69,0,0,0,41,45.84c3-1.1,1.3-7.22,1.28-7.28a.78.78,0,0,1,0-.34L45,22.78l-.85.66a.75.75,0,0,1-1.2-.5l-.33-2.62-.77,2a.76.76,0,0,1-.66.47.72.72,0,0,1-.7-.39l-3.27-6.06-4.89,7.38a.76.76,0,0,1-1,.25l-.61-.32.45,1.86a.78.78,0,0,1-.16.66.74.74,0,0,1-.62.27l-1.57-.1,6.26,14a.73.73,0,0,1,0,.58C34.17,43.38,33.55,46.08,33.81,46.69Z"/><path class="cls-1" d="M19.78,55.4s8.86-3.8,12.49-5.4a13.49,13.49,0,0,0,6.1-4.68c1-1.41,5.88-8.71,5.88-8.71l-2.46.27L41.9,33,39.62,35.3l-.32-2.64-2,2-1-3.86L35.45,45l-3.8-16L29.75,31l-1.81-3.07-.74,2.22L17.33,28l2.2,7.82-4.61-2.09,3.37,4.46-3,.32,18,8.3L22.49,45.64l1.05,1.74L21,48.05l.83,1.53-1.87,1.28,2.19.29Z"/><path class="cls-2" d="M19.78,56.15a.73.73,0,0,1-.55-.25.74.74,0,0,1-.11-.86l1.81-3.29-1.11-.15a.75.75,0,0,1-.32-1.36l1.31-.9-.51-.93a.76.76,0,0,1,0-.66.79.79,0,0,1,.5-.43l1.61-.41L21.85,46a.75.75,0,0,1,.72-1.13l6.21.67L14.94,39.18a.74.74,0,0,1-.42-.8.75.75,0,0,1,.66-.63l1.71-.18-2.57-3.4a.75.75,0,0,1,0-.92.73.73,0,0,1,.89-.21l3.15,1.42-1.77-6.27a.75.75,0,0,1,.88-.94l9.21,2,.53-1.58a.75.75,0,0,1,.63-.5.72.72,0,0,1,.72.36l1.3,2.19,1.21-1.33a.77.77,0,0,1,.75-.22.78.78,0,0,1,.54.56L35,39.93l.61-9.21a.75.75,0,0,1,1.47-.13l.64,2.57,1-1a.73.73,0,0,1,.77-.18.72.72,0,0,1,.5.62l.14,1.09,1.19-1.22a.75.75,0,0,1,1.28.55l-.08,3,1.6-.17a.7.7,0,0,1,.72.35.74.74,0,0,1,0,.81c-.2.3-4.88,7.33-5.91,8.73a14.2,14.2,0,0,1-6.4,4.93c-3.59,1.58-12.41,5.36-12.49,5.4A.8.8,0,0,1,19.78,56.15ZM22,50.37l.25,0a.76.76,0,0,1,.57.41.75.75,0,0,1,0,.7l-1.29,2.34c2.84-1.22,8-3.42,10.48-4.54a12.68,12.68,0,0,0,5.8-4.43c.74-1,3.53-5.17,5-7.35l-.87.1a.73.73,0,0,1-.59-.2.8.8,0,0,1-.24-.57l.06-2-1,1a.75.75,0,0,1-.78.19.76.76,0,0,1-.5-.62l-.13-1.1-.87.87a.76.76,0,0,1-.73.2.75.75,0,0,1-.29-.16L36.2,45a.75.75,0,0,1-1.48.12L31.24,30.47l-.93,1a.75.75,0,0,1-1.2-.12l-1-1.65-.21.66a.76.76,0,0,1-.88.49L18.39,29l1.87,6.62a.77.77,0,0,1-.24.77.75.75,0,0,1-.8.11l-1.92-.87,1.59,2.11a.77.77,0,0,1,.09.75.76.76,0,0,1-.61.45l-.32,0,15.52,7.16A.77.77,0,0,1,34,47a.76.76,0,0,1-.81.55l-9.26-1,.27.45a.75.75,0,0,1-.46,1.11l-1.64.43.37.68a.75.75,0,0,1-.23,1Z"/><path class="cls-1" d="M67,47.77s-8.2,3.51-11.59,4.91a11.57,11.57,0,0,1-7,1c-1.6-.28-9.62-2.05-9.62-2.05L40.46,50l-2.7-2.69,3,0-1.57-2.1,2.58,0-2-3.41,10.15,9.41-8.38-14,2.61.14L43.26,34l2,1.06,4.84-8.45,3.87,7.1L55.45,29l.86,5.51,2.15-1.89L52.59,51.1l6.07-8.36.51,2,2.09-1.33.5,1.67,2.05-.4-1.2,1.74Z"/><path class="cls-2" d="M50.34,54.57a12.76,12.76,0,0,1-2.14-.2c-1.6-.28-9.32-2-9.65-2.06a.73.73,0,0,1-.56-.55.76.76,0,0,1,.23-.75l1.14-1-2.13-2.13a.75.75,0,0,1-.16-.83.71.71,0,0,1,.7-.45l1.49,0-.65-.87a.75.75,0,0,1-.07-.79.73.73,0,0,1,.68-.41l1.25,0L39.14,42.3a.75.75,0,0,1,1.16-.93l6.32,5.86-5.7-9.55a.76.76,0,0,1,0-.77.75.75,0,0,1,.69-.36l1.57.09-.64-2.45a.74.74,0,0,1,.26-.78.76.76,0,0,1,.82-.07l1.32.71,4.46-7.81a.75.75,0,0,1,1.31,0l3,5.56,1-3.06a.76.76,0,0,1,.77-.51.74.74,0,0,1,.68.63l.65,4.17,1.12-1a.75.75,0,0,1,.91-.07.75.75,0,0,1,.3.86L54.7,46.92l3.36-4.62a.75.75,0,0,1,1.33.26l.25,1,1.22-.78a.73.73,0,0,1,.66-.07.75.75,0,0,1,.46.49l.3,1,1.39-.27a.75.75,0,0,1,.76,1.16L63.8,46l3.39,1.07a.76.76,0,0,1,.07,1.41c-.09,0-8.25,3.53-11.6,4.91A13.6,13.6,0,0,1,50.34,54.57Zm-10-3.41c2.39.53,7,1.53,8.14,1.73a10.83,10.83,0,0,0,6.62-.9c2.36-1,7.1-3,9.73-4.12l-2.43-.77a.77.77,0,0,1-.48-.47A.79.79,0,0,1,62,46l.16-.23-.25.05a.75.75,0,0,1-.86-.52l-.21-.71-1.26.8a.72.72,0,0,1-.67.06.76.76,0,0,1-.46-.51l-.11-.43-5.14,7.07a.75.75,0,0,1-1.32-.66L56.92,35l-.11.1a.75.75,0,0,1-.75.14.74.74,0,0,1-.49-.59l-.37-2.41-.56,1.72a.76.76,0,0,1-.65.51.71.71,0,0,1-.72-.39L50,28.15l-4.16,7.28a.75.75,0,0,1-1,.29l-.44-.24.47,1.77a.75.75,0,0,1-.77.94l-1.2-.07L50.59,51a.75.75,0,0,1-1.16.93l-6.91-6.4a.63.63,0,0,1-.08.23.77.77,0,0,1-.65.37H40.72l.66.88a.75.75,0,0,1,.07.79.78.78,0,0,1-.68.41l-1.17,0L41,49.51a.74.74,0,0,1,.22.56.78.78,0,0,1-.25.54Z"/><path class="cls-1" d="M77.49,50.17s-8.91.35-12.58.46A11.55,11.55,0,0,1,58,49c-1.4-.83-8.26-5.35-8.26-5.35l2.18-.8-1.56-3.49,2.81,1.13L52.44,38l2.4,1L54.19,35l6.13,12.41L57.5,31.33l2.38,1.06.38-3.54,1.46,1.69,7.52-6.16,1.09,8,3.11-3.85L72.27,34,75,33,62.88,48.16l8.65-5.64-.23,2,2.43-.5-.13,1.73,2.06.36-1.74,1.2Z"/><path class="cls-2" d="M64.35,51.38a12.12,12.12,0,0,1-6.74-1.73c-1.39-.83-8-5.18-8.28-5.37a.77.77,0,0,1-.33-.71.76.76,0,0,1,.48-.62l1.43-.53-1.23-2.75a.75.75,0,0,1,.14-.83.73.73,0,0,1,.82-.17l1.38.55-.3-1a.76.76,0,0,1,1-.91l1.16.46-.43-2.59a.75.75,0,0,1,1.42-.45l3.81,7.72L56.76,31.46a.74.74,0,0,1,.28-.72.76.76,0,0,1,.77-.1l1.44.65.27-2.52a.75.75,0,0,1,1.31-.4l1,1.13,7-5.7a.75.75,0,0,1,.75-.12.74.74,0,0,1,.46.6l.86,6.28,2-2.5a.75.75,0,0,1,1.32.62l-.88,4.13,1.4-.53a.75.75,0,0,1,.85,1.17L66.35,45l4.77-3.11a.75.75,0,0,1,1.16.71l-.11,1,1.41-.29a.74.74,0,0,1,.65.17.75.75,0,0,1,.25.62l-.08,1,1.39.24a.76.76,0,0,1,.61.58.77.77,0,0,1-.31.78l-.91.62L78,49.58a.78.78,0,0,1,.25.82.75.75,0,0,1-.69.52c-.09,0-9,.36-12.59.46ZM51.4,43.84c2,1.34,6,3.92,7,4.52a10.8,10.8,0,0,0,6.51,1.52c2.55-.07,7.7-.27,10.56-.38l-2-1.59a.72.72,0,0,1-.29-.61.74.74,0,0,1,.33-.59l.22-.16-.25,0a.76.76,0,0,1-.62-.79l.06-.75-1.46.3a.75.75,0,0,1-.89-.82l0-.43-7.33,4.77a.75.75,0,0,1-1-1.1l10.39-13-.14,0a.75.75,0,0,1-1-.86l.51-2.39-1.14,1.41a.75.75,0,0,1-1.32-.37l-.91-6.67-6.49,5.31a.74.74,0,0,1-1-.09l-.33-.37-.19,1.82a.8.8,0,0,1-.37.57.78.78,0,0,1-.68,0l-1.1-.49L61.06,47.3a.75.75,0,0,1-1.41.46l-4.17-8.45a.77.77,0,0,1-.17.19.73.73,0,0,1-.74.11l-1-.38.31,1.05a.75.75,0,0,1-1,.91l-1.08-.44.8,1.79a.78.78,0,0,1,0,.6.73.73,0,0,1-.43.41Z"/><path class="cls-1" d="M51.36,57.59S44.11,59,41.12,59.48a9.5,9.5,0,0,1-5.85-.5c-1.25-.51-7.4-3.38-7.4-3.38l1.69-.92L27.86,52l2.43.59-.89-2,2.07.49-1-3.11L37,57.42,32.73,44.58l2.08.59-.11-2.94,1.39,1.2,5.42-6,1.85,6.42,2.08-3.53L45.14,45l2.07-1.14L39.16,57.71l6.4-5.66.06,1.68,1.92-.7.11,1.43,1.73,0L48.1,55.7Z"/><path class="cls-2" d="M38.79,60.45A9.56,9.56,0,0,1,35,59.68c-1.24-.52-7.17-3.28-7.43-3.4a.77.77,0,0,1-.43-.66.75.75,0,0,1,.39-.68l1-.54-1.26-2a.74.74,0,0,1,0-.84.75.75,0,0,1,.78-.3l.94.23-.26-.58a.72.72,0,0,1,.11-.78.76.76,0,0,1,.75-.26l.78.19-.59-1.85a.75.75,0,0,1,1.33-.66l3.54,5.12L32,44.82a.78.78,0,0,1,.17-.76.75.75,0,0,1,.75-.2l1.08.31L34,42.25a.75.75,0,0,1,1.24-.59l.84.73L41,37a.77.77,0,0,1,.73-.23.76.76,0,0,1,.55.52L43.6,42l1.19-2a.76.76,0,0,1,.87-.33.75.75,0,0,1,.53.76L46,43.66l.87-.48a.75.75,0,0,1,1,1l-5.73,9.86,2.94-2.59a.76.76,0,0,1,.79-.13.74.74,0,0,1,.45.66l0,.65,1-.34a.71.71,0,0,1,.66.07.75.75,0,0,1,.34.58l.06.75,1,0a.75.75,0,0,1,.49,1.3l-.54.5,2.39,1.38a.76.76,0,0,1,.36.78.74.74,0,0,1-.6.61s-7.26,1.36-10.25,1.89A14.52,14.52,0,0,1,38.79,60.45Zm-9.26-4.91c1.88.88,5.17,2.4,6,2.75a8.73,8.73,0,0,0,5.44.45c2-.35,5.88-1.07,8.25-1.51l-1.52-.88a.75.75,0,0,1-.37-.57.73.73,0,0,1,.18-.57.75.75,0,0,1-.63-.69l0-.45-1,.37a.73.73,0,0,1-.67-.09.75.75,0,0,1-.33-.6v-.08l-5.21,4.6a.75.75,0,0,1-1.14-.94l6.74-11.6a.83.83,0,0,1-.51-.11.78.78,0,0,1-.35-.68l.1-1.48-.48.82a.78.78,0,0,1-.74.37.75.75,0,0,1-.63-.54L41.16,39l-4.51,5a.75.75,0,0,1-1,.06l-.09-.07.05,1.21a.74.74,0,0,1-.28.62.8.8,0,0,1-.67.13l-.72-.2,3.8,11.49a.75.75,0,0,1-1.33.66l-4.31-6.25,0,0a.74.74,0,0,1-.72.22l-.59-.14.26.59a.74.74,0,0,1-.1.78.75.75,0,0,1-.75.26l-.63-.15.7,1.09a.73.73,0,0,1,.09.59.74.74,0,0,1-.36.47Z"/><path d="M64.67,71.13a10.14,10.14,0,1,1,10.14,10A10,10,0,0,1,64.67,71.13Zm14.82,0a4.68,4.68,0,1,0-4.68,4.64A4.53,4.53,0,0,0,79.49,71.13Z"/><path d="M101.7,73.86c0,4.13-2.54,7.21-6.26,7.21a4.47,4.47,0,0,1-3.66-1.61v6.7h-5V67h5v1.23a4.44,4.44,0,0,1,3.66-1.62C99.16,66.64,101.7,69.73,101.7,73.86Zm-5,0a2.44,2.44,0,1,0-2.44,2.57A2.41,2.41,0,0,0,96.65,73.86Z"/><path d="M110.58,77a3.37,3.37,0,0,0,2.33-.88l3.3,2.79a7.8,7.8,0,0,1-5.79,2.21c-4.78,0-7.73-3.14-7.73-7.16A7.09,7.09,0,0,1,110,66.64a6.93,6.93,0,0,1,7.13,7.16,7.21,7.21,0,0,1-.22,1.78H107.8A2.75,2.75,0,0,0,110.58,77Zm1.72-4.62a2.1,2.1,0,0,0-2.21-1.64,2.41,2.41,0,0,0-2.38,1.64Z"/><path d="M132.25,72.79v7.9h-5V73.34a1.6,1.6,0,0,0-1.7-1.83c-1.23,0-1.85.82-1.85,2.16v7h-5.06V67h5.06v1.33a4.31,4.31,0,0,1,3.66-1.72C130.15,66.64,132.25,68.56,132.25,72.79Z"/><path class="cls-1" d="M133.89,71.13a10,10,0,0,1,18.4-5.36l-4.76,2.73a4,4,0,0,0-3.63-2,4.65,4.65,0,0,0,0,9.29,3.93,3.93,0,0,0,3.63-2l4.76,2.73a9.63,9.63,0,0,1-8.39,4.68A9.76,9.76,0,0,1,133.89,71.13Z"/><path class="cls-1" d="M161.08,77a3.35,3.35,0,0,0,2.33-.88l3.3,2.79a7.8,7.8,0,0,1-5.79,2.21c-4.78,0-7.73-3.14-7.73-7.16a7.09,7.09,0,0,1,7.27-7.27,6.93,6.93,0,0,1,7.13,7.16,7.21,7.21,0,0,1-.22,1.78H158.3A2.75,2.75,0,0,0,161.08,77Zm1.73-4.62a2.11,2.11,0,0,0-2.22-1.64,2.42,2.42,0,0,0-2.38,1.64Z"/><path class="cls-1" d="M169.09,60.74h5.06V80.69h-5.06Z"/><path class="cls-1" d="M183.57,77a3.35,3.35,0,0,0,2.33-.88l3.3,2.79a7.8,7.8,0,0,1-5.79,2.21c-4.78,0-7.73-3.14-7.73-7.16A7.09,7.09,0,0,1,183,66.64a6.93,6.93,0,0,1,7.13,7.16,7.21,7.21,0,0,1-.22,1.78h-9.07A2.75,2.75,0,0,0,183.57,77Zm1.73-4.62a2.11,2.11,0,0,0-2.22-1.64,2.4,2.4,0,0,0-2.37,1.64Z"/><path class="cls-1" d="M200.74,66.75v5.47c-2-.28-4.1.68-4.1,3.39v5.08h-5.06V67h5.06v2.65A4,4,0,0,1,200.74,66.75Z"/><path class="cls-1" d="M217,67l-4.65,13.63c-1.37,4-4.13,5.69-8.77,5.5V81.37c1.8,0,2.7-.19,3.3-1L201.42,67h5.74l2.43,7.29L211.26,67Z"/></svg>