<svg id="Ebene_1" data-name="Ebene 1" xmlns="http://www.w3.org/2000/svg" viewBox="0 0 57 57"><defs><style>.cls-1{fill:#bfe54a;}.cls-2{fill:#1d1d1b;}.cls-3{fill:#9fb737;}</style></defs><title>opencelery</title><path class="cls-1" d="M22.85,26.24C24,31.07,24,36.41,23.47,43.4c-.34,4.87,2.31,6.93,5.69,6.93,3.64,0,7.29-4.22,5.08-11.41-2.11-6.86,2-16.29,2-16.29l-1.78-.23-1.4,3.87V23.12l-1.32,0A21.74,21.74,0,0,1,31.45,31a37.93,37.93,0,0,0-1,6.06s-1-1-.89-4.27a43.87,43.87,0,0,1,1.77-8.5l-3.07-.44s-1.22,12-1.83,12c-.28,0-.53-2.22-.35-4.4a36.38,36.38,0,0,0,0-5Z"/><path class="cls-2" d="M29.16,50.67a6,6,0,0,1-4.48-1.73,7.15,7.15,0,0,1-1.54-5.56c.48-7,.55-12.27-.62-17.06a.34.34,0,0,1,.07-.29.37.37,0,0,1,.27-.13l3.25.12a.33.33,0,0,1,.33.31,35.83,35.83,0,0,1,0,5.1,17.76,17.76,0,0,0,.05,3.36c.41-1.86,1-6.63,1.46-11a.36.36,0,0,1,.13-.23.33.33,0,0,1,.26-.06l3.07.43a.39.39,0,0,1,.16.07c-.05-.5-.1-.78-.1-.79a.34.34,0,0,1,.07-.27.34.34,0,0,1,.25-.13l1.32,0a.33.33,0,0,1,.24.1.32.32,0,0,1,.11.24v1.22l.74-2.05a.33.33,0,0,1,.36-.22l1.78.23a.32.32,0,0,1,.25.17.35.35,0,0,1,0,.3c0,.09-4.06,9.4-2,16.05,1.56,5.08.13,8.09-.86,9.42A5.65,5.65,0,0,1,29.16,50.67ZM23.28,26.59c1.08,4.77,1,10,.53,16.84a6.48,6.48,0,0,0,1.37,5,5.25,5.25,0,0,0,4,1.53,5,5,0,0,0,4-2.16c.91-1.23,2.23-4,.75-8.82C32,32.86,35,24.83,35.78,22.91l-1.07-.14-1.3,3.62a.36.36,0,0,1-.38.22.34.34,0,0,1-.28-.34v-2.8l-.59,0a22.51,22.51,0,0,1-.38,7.57,39.65,39.65,0,0,0-1,6,.33.33,0,0,1-.21.31.34.34,0,0,1-.36-.07s-1.14-1.15-1-4.53a41.05,41.05,0,0,1,1.67-8.21l-2.33-.34c-1.23,12-1.79,12-2.15,11.92a.4.4,0,0,1-.29-.15c-.4-.44-.53-2.8-.38-4.61a36.39,36.39,0,0,0,0-4.7Zm8.31-2A41.26,41.26,0,0,0,29.9,32.8a9,9,0,0,0,.32,3.08c.12-1,.37-2.55.9-5A22.46,22.46,0,0,0,31.59,24.59Z"/><path class="cls-3" d="M32.1,23c-1.74.41-2-2.17-2.74-2.4s1.48-2.13,1.48-2.13l-3-6.8,1.25.23-.18-1.59.86.6,3-3.46,1.34,3.41,1.08-2v2.52l1.17-.71-4.21,7.87S33.83,22.6,32.1,23Z"/><path class="cls-2" d="M31.73,23.4c-1.06,0-1.59-1-1.95-1.71-.16-.3-.38-.71-.51-.76a.52.52,0,0,1-.39-.39c-.11-.54.74-1.44,1.55-2.15l-2.89-6.57a.34.34,0,0,1,.37-.47l.8.15-.13-1.14a.36.36,0,0,1,.16-.33.35.35,0,0,1,.37,0l.61.43,2.76-3.23a.33.33,0,0,1,.32-.11.33.33,0,0,1,.25.21l1.08,2.73.74-1.37a.34.34,0,0,1,.38-.16.33.33,0,0,1,.25.32v1.92l.67-.4a.34.34,0,0,1,.47.45l-4.13,7.73c.26.66,1.09,3,.5,4.13a1.26,1.26,0,0,1-.84.65h0A1.72,1.72,0,0,1,31.73,23.4Zm-2.15-3.07a2.32,2.32,0,0,1,.8,1.05c.47.91.85,1.49,1.64,1.3h0a.57.57,0,0,0,.39-.3c.43-.85-.28-3-.59-3.71a.31.31,0,0,1,0-.28l3.63-6.79-.13.07a.33.33,0,0,1-.51-.29V10.19l-.46.84a.32.32,0,0,1-.32.18.35.35,0,0,1-.29-.22L32.63,8.11l-2.59,3a.34.34,0,0,1-.45.06L29.34,11l.09.86a.33.33,0,0,1-.1.28.35.35,0,0,1-.29.09l-.62-.12,2.73,6.21a.34.34,0,0,1-.09.4A7.14,7.14,0,0,0,29.58,20.33Z"/><path class="cls-3" d="M26.26,20.94a6.06,6.06,0,0,1-3.44.39c-.77-.13.39-3.07.39-3.07l-3.05-6.81,1.26.08L21.05,10l.93.49L24.5,6.67l1.74,3.22.84-2.12.3,2.5,1.08-.85-1.41,7.83S27.93,20.32,26.26,20.94Z"/><path class="cls-2" d="M23.84,21.77a7,7,0,0,1-1.08-.1.63.63,0,0,1-.42-.31c-.37-.65.23-2.39.5-3.09l-3-6.68a.35.35,0,0,1,0-.33.33.33,0,0,1,.3-.14l.81.05-.27-1.12a.36.36,0,0,1,.12-.35.35.35,0,0,1,.37,0l.66.35,2.35-3.54a.31.31,0,0,1,.3-.15.33.33,0,0,1,.28.18l1.39,2.58.57-1.45a.34.34,0,0,1,.65.09l.24,1.9.61-.48a.35.35,0,0,1,.38,0,.34.34,0,0,1,.16.35l-1.41,7.75c.14.53.79,3.36-1,4A7.3,7.3,0,0,1,23.84,21.77ZM22.91,21a5.8,5.8,0,0,0,3.23-.39c1.34-.49.59-3.25.58-3.28a.76.76,0,0,1,0-.15l1.26-7-.38.3a.33.33,0,0,1-.33.05.32.32,0,0,1-.21-.27L26.9,9.13l-.35.88a.32.32,0,0,1-.29.22.35.35,0,0,1-.32-.18L24.47,7.32l-2.2,3.33a.35.35,0,0,1-.44.11l-.28-.15.2.84a.32.32,0,0,1-.07.3.33.33,0,0,1-.28.12l-.7,0,2.81,6.3a.36.36,0,0,1,0,.27A6.58,6.58,0,0,0,22.91,21Z"/><path class="cls-1" d="M16.6,24.93s4-1.71,5.62-2.44A6.1,6.1,0,0,0,25,20.39c.46-.64,2.65-3.93,2.65-3.93l-1.11.13,0-1.77-1,1-.14-1.19-.88.89-.43-1.74-.42,6.39L21.94,13l-.85.93-.82-1.38-.33,1-4.45-1,1,3.52-2.08-.94,1.52,2-1.37.14,8.11,3.74-4.85-.52.47.79-1.16.3.37.68-.84.58,1,.13Z"/><path class="cls-2" d="M16.6,25.26a.33.33,0,0,1-.25-.11.33.33,0,0,1-.05-.39l.81-1.48-.49-.07a.33.33,0,0,1-.29-.25.34.34,0,0,1,.14-.36l.59-.4-.23-.42a.34.34,0,0,1,.21-.49l.73-.19-.24-.39a.33.33,0,0,1,0-.36.33.33,0,0,1,.32-.15l2.8.3-6.23-2.88a.34.34,0,0,1,.11-.64l.77-.08-1.16-1.53a.34.34,0,0,1,0-.42.34.34,0,0,1,.4-.1L16,15.5l-.79-2.83a.34.34,0,0,1,.08-.32.32.32,0,0,1,.32-.1l4.15.91.23-.71a.32.32,0,0,1,.29-.23.32.32,0,0,1,.32.16l.59,1,.54-.6a.35.35,0,0,1,.34-.1.34.34,0,0,1,.24.25l1.2,5,.27-4.15a.34.34,0,0,1,.66-.06l.29,1.16.46-.46a.33.33,0,0,1,.35-.09.34.34,0,0,1,.22.28l.06.49.54-.54a.34.34,0,0,1,.37-.08.35.35,0,0,1,.21.32l0,1.38.72-.08a.33.33,0,0,1,.33.16.34.34,0,0,1,0,.36c-.09.14-2.2,3.3-2.66,3.94a6.42,6.42,0,0,1-2.88,2.21c-1.62.72-5.59,2.42-5.63,2.44Zm1-2.6.11,0a.33.33,0,0,1,.26.18.31.31,0,0,1,0,.31l-.58,1.06c1.28-.55,3.59-1.54,4.72-2a5.76,5.76,0,0,0,2.62-2c.33-.46,1.58-2.33,2.24-3.31l-.39,0a.3.3,0,0,1-.27-.09.34.34,0,0,1-.11-.25l0-.91-.43.44a.33.33,0,0,1-.57-.2l-.06-.49-.39.39a.34.34,0,0,1-.33.09.37.37,0,0,1-.14-.07L24,20.25a.33.33,0,0,1-.66.05l-1.57-6.6-.42.46a.34.34,0,0,1-.29.11.33.33,0,0,1-.25-.16l-.44-.74-.1.29a.33.33,0,0,1-.39.22L16,13l.84,3a.33.33,0,0,1-.1.35.32.32,0,0,1-.36.05L15.48,16l.71.95a.34.34,0,0,1,0,.34.37.37,0,0,1-.28.2h-.14l7,3.23a.33.33,0,0,1,.18.39.34.34,0,0,1-.36.25l-4.17-.45.12.2a.35.35,0,0,1,0,.3.31.31,0,0,1-.23.2l-.74.19.17.31a.33.33,0,0,1-.11.44Z"/><path class="cls-1" d="M37.85,21.49s-3.7,1.58-5.22,2.21a5.19,5.19,0,0,1-3.17.43c-.73-.13-4.34-.93-4.34-.93l.79-.69L24.69,21.3l1.37,0-.71-.94h1.16l-.9-1.53,4.57,4.23-3.77-6.32,1.17.07-.41-1.55.89.48L30.23,12,32,15.16,32.66,13l.39,2.49,1-.85L31.37,23l2.74-3.76.23.88.94-.6.22.75.93-.18-.54.79Z"/><path class="cls-2" d="M30.36,24.55a5.6,5.6,0,0,1-1-.09c-.72-.12-4.2-.89-4.35-.93a.32.32,0,0,1-.25-.24.35.35,0,0,1,.1-.34l.52-.45-1-1a.34.34,0,0,1-.08-.37A.33.33,0,0,1,24.7,21h.67l-.29-.39a.32.32,0,0,1,0-.35.3.3,0,0,1,.3-.19h.57l-.6-1a.34.34,0,0,1,.08-.44.35.35,0,0,1,.44,0l2.85,2.64L26.12,17a.34.34,0,0,1,.31-.51l.71,0-.29-1.11A.34.34,0,0,1,27,15a.35.35,0,0,1,.37,0l.6.32,2-3.52a.34.34,0,0,1,.3-.17.35.35,0,0,1,.29.18l1.37,2.51.44-1.38A.34.34,0,0,1,33,13l.29,1.88.5-.45a.35.35,0,0,1,.41,0,.34.34,0,0,1,.14.39l-2,6.34L33.84,19a.31.31,0,0,1,.33-.13.33.33,0,0,1,.27.24l.11.44.55-.35a.32.32,0,0,1,.3,0,.32.32,0,0,1,.2.22l.14.45.62-.12a.34.34,0,0,1,.35.15.33.33,0,0,1,0,.37l-.28.41,1.52.49a.32.32,0,0,1,.23.3.34.34,0,0,1-.2.33S34.27,23.39,32.76,24A6.05,6.05,0,0,1,30.36,24.55ZM25.85,23c1.07.23,3.15.69,3.66.78a5,5,0,0,0,3-.41l4.38-1.85-1.09-.35a.31.31,0,0,1-.22-.21.32.32,0,0,1,0-.3l.07-.11-.11,0a.34.34,0,0,1-.39-.24l-.1-.32-.56.36a.34.34,0,0,1-.31,0,.35.35,0,0,1-.2-.23L34,20l-2.31,3.18a.34.34,0,0,1-.43.1.33.33,0,0,1-.17-.4l2.28-7.16,0,0a.36.36,0,0,1-.34.07.34.34,0,0,1-.22-.27l-.17-1.08-.25.77a.34.34,0,0,1-.62.06l-1.45-2.67-1.88,3.28a.33.33,0,0,1-.45.13l-.2-.1.21.79a.32.32,0,0,1-.07.3.33.33,0,0,1-.28.13l-.54,0,3.45,5.77a.34.34,0,0,1-.07.44.35.35,0,0,1-.45,0l-3.11-2.88a.42.42,0,0,1,0,.1.32.32,0,0,1-.29.17H26l.3.4a.34.34,0,0,1-.28.54h-.52l.62.63a.32.32,0,0,1,.1.25.33.33,0,0,1-.12.24Z"/><path class="cls-1" d="M42.59,22.57s-4,.16-5.67.21a5.27,5.27,0,0,1-3.11-.73c-.63-.38-3.72-2.41-3.72-2.41l1-.37-.7-1.57,1.26.51-.32-1.13,1.08.42-.29-1.75,2.76,5.59-1.27-7.25,1.07.48.17-1.6.66.76L38.87,11l.49,3.61,1.4-1.74-.52,2.46,1.21-.45L36,21.67l3.9-2.55L39.8,20l1.1-.22-.06.78.93.16-.79.54Z"/><path class="cls-2" d="M36.67,23.12a5.48,5.48,0,0,1-3-.78C33,22,30,20,29.91,19.92a.34.34,0,0,1,.07-.6l.64-.24-.56-1.24a.34.34,0,0,1,.07-.37.34.34,0,0,1,.37-.08l.62.25L31,17.17a.35.35,0,0,1,.1-.34.35.35,0,0,1,.35-.07L32,17l-.2-1.17a.34.34,0,0,1,.64-.2l1.72,3.48-.87-4.94a.34.34,0,0,1,.13-.32.32.32,0,0,1,.34,0l.65.29.12-1.14a.35.35,0,0,1,.6-.18l.44.51,3.13-2.57a.37.37,0,0,1,.34,0,.36.36,0,0,1,.21.27l.38,2.83.91-1.13a.34.34,0,0,1,.41-.09.32.32,0,0,1,.18.37l-.39,1.86.63-.24a.34.34,0,0,1,.38.53l-4.14,5.2,2.15-1.4a.33.33,0,0,1,.36,0,.31.31,0,0,1,.16.32l-.05.45.64-.13a.34.34,0,0,1,.29.08.33.33,0,0,1,.11.28l0,.47.62.11a.33.33,0,0,1,.28.26A.35.35,0,0,1,42,21l-.41.28,1.25,1a.32.32,0,0,1,.11.37.35.35,0,0,1-.31.23s-4,.16-5.67.2Zm-5.83-3.4c.92.6,2.69,1.77,3.14,2a4.77,4.77,0,0,0,2.93.69c1.15,0,3.47-.12,4.76-.17l-.9-.71a.37.37,0,0,1-.13-.28.36.36,0,0,1,.15-.27l.1-.07-.11,0a.34.34,0,0,1-.28-.35l0-.34-.66.14a.33.33,0,0,1-.3-.09.3.3,0,0,1-.1-.28l0-.2L36.19,22a.32.32,0,0,1-.43-.06.33.33,0,0,1,0-.43l4.68-5.88-.06,0a.35.35,0,0,1-.34-.06.32.32,0,0,1-.11-.33l.23-1.07-.51.63a.36.36,0,0,1-.36.12A.35.35,0,0,1,39,14.6l-.41-3L35.7,14a.33.33,0,0,1-.47,0l-.15-.17L35,14.6a.35.35,0,0,1-.16.26.34.34,0,0,1-.31,0L34,14.65l1.16,6.63a.34.34,0,0,1-.23.38.35.35,0,0,1-.41-.17l-1.88-3.81a.28.28,0,0,1-.07.09.37.37,0,0,1-.34.05l-.44-.18.14.48a.34.34,0,0,1-.1.34.32.32,0,0,1-.35.06L31,18.33l.36.8a.36.36,0,0,1,0,.27.34.34,0,0,1-.2.19Z"/><path class="cls-1" d="M30.82,25.91s-3.27.62-4.61.85a4.29,4.29,0,0,1-2.64-.22C23,26.31,20.24,25,20.24,25L21,24.6l-.76-1.2,1.09.26-.4-.88.93.21-.45-1.4,2.93,4.25-1.91-5.79.94.27L23.32,19l.62.55,2.44-2.68.84,2.89.93-1.59L28,20.23l.93-.51L25.32,26l2.89-2.55,0,.75.87-.31,0,.65h.78l-.58.54Z"/><path class="cls-2" d="M25.16,27.2a4.25,4.25,0,0,1-1.72-.35c-.56-.23-3.23-1.48-3.34-1.53a.34.34,0,0,1-.2-.29.35.35,0,0,1,.18-.31l.44-.24-.57-.9a.34.34,0,0,1,.36-.51l.43.1-.12-.25a.34.34,0,0,1,.05-.36.32.32,0,0,1,.33-.11l.36.08-.27-.83a.34.34,0,0,1,.6-.3l1.59,2.31-1.17-3.55a.33.33,0,0,1,.08-.34.32.32,0,0,1,.33-.09l.49.14L23,19a.33.33,0,0,1,.19-.32.34.34,0,0,1,.37,0l.38.33,2.21-2.44a.34.34,0,0,1,.33-.1.36.36,0,0,1,.25.23l.61,2.14.54-.91a.34.34,0,0,1,.63.19l-.09,1.46.39-.22a.33.33,0,0,1,.4.06.35.35,0,0,1,.06.41l-2.59,4.44L28,23.16a.34.34,0,0,1,.35-.05.35.35,0,0,1,.21.3v.29l.43-.16a.35.35,0,0,1,.3,0,.35.35,0,0,1,.15.26l0,.34h.48a.34.34,0,0,1,.22.58l-.25.23,1.08.62a.33.33,0,0,1,.16.35.34.34,0,0,1-.27.28l-4.61.85A6.79,6.79,0,0,1,25.16,27.2ZM21,25c.85.4,2.33,1.08,2.71,1.24a4,4,0,0,0,2.45.2l3.71-.68-.68-.4A.37.37,0,0,1,29,25.1a.31.31,0,0,1,.09-.26.34.34,0,0,1-.29-.31v-.2l-.45.16a.32.32,0,0,1-.3,0,.32.32,0,0,1-.15-.26v0l-2.35,2.07a.35.35,0,0,1-.44,0A.34.34,0,0,1,25,25.8l3-5.23a.37.37,0,0,1-.23-.05.35.35,0,0,1-.16-.31l.05-.66-.22.37a.34.34,0,0,1-.62-.08l-.66-2.31-2,2.23a.33.33,0,0,1-.47,0l0,0,0,.54a.36.36,0,0,1-.13.28.33.33,0,0,1-.3.06L23,20.55l1.71,5.18a.32.32,0,0,1-.17.41.33.33,0,0,1-.42-.11l-1.95-2.82h0a.33.33,0,0,1-.32.1l-.27-.06.12.26a.36.36,0,0,1-.05.36.33.33,0,0,1-.34.11L21,23.93l.32.49a.34.34,0,0,1,0,.26.38.38,0,0,1-.17.22Z"/></svg>