<svg id="Ebene_1" data-name="Ebene 1" xmlns="http://www.w3.org/2000/svg" viewBox="0 0 96 96"><defs><style>.cls-1{fill:#bfe54a;}.cls-2{fill:#1d1d1b;}.cls-3{fill:#9fb737;}</style></defs><title>opencelery</title><path class="cls-1" d="M37.1,43.64c2.26,9.31,2.14,19.64,1.19,33.13-.65,9.4,4.46,13.38,11,13.38,7,0,14.06-8.15,9.8-22C55,54.88,63,36.68,63,36.68l-3.43-.45-2.7,7.47V37.61l-2.55.08A41.91,41.91,0,0,1,53.7,52.8c-1.85,8.48-1.93,11.71-1.93,11.71s-2-1.92-1.73-8.24,3.43-16.42,3.43-16.42L47.53,39S45.17,62.15,44,62.1c-.54,0-1-4.3-.68-8.49a70.72,70.72,0,0,0,0-9.75Z"/><path class="cls-2" d="M49.28,90.8a11.47,11.47,0,0,1-8.65-3.35c-2.3-2.47-3.31-6.08-3-10.72.94-13.48,1.07-23.68-1.18-32.94a.65.65,0,0,1,.66-.8l6.27.22a.64.64,0,0,1,.63.61A71.21,71.21,0,0,1,44,53.66a33.06,33.06,0,0,0,.1,6.48c.79-3.59,2-12.8,2.81-21.2a.66.66,0,0,1,.25-.45.63.63,0,0,1,.5-.13l5.93.84a.68.68,0,0,1,.31.14,14.76,14.76,0,0,0-.2-1.53.67.67,0,0,1,.14-.53A.7.7,0,0,1,54.3,37L56.84,37a.66.66,0,0,1,.47.19.63.63,0,0,1,.2.46V40l1.43-4a.66.66,0,0,1,.7-.43l3.44.45a.66.66,0,0,1,.51.91c-.08.18-7.84,18.14-3.89,31,3,9.8.25,15.6-1.66,18.19A11,11,0,0,1,49.28,90.8ZM37.93,44.32c2.08,9.19,1.94,19.3,1,32.5-.29,4.26.6,7.54,2.65,9.74a10.18,10.18,0,0,0,7.69,2.94A9.66,9.66,0,0,0,57,85.34c1.77-2.39,4.3-7.77,1.46-17-3.65-11.9,2.11-27.39,3.61-31.1L60,36.94l-2.52,7a.65.65,0,0,1-1.26-.23V38.29l-1.14,0a43.89,43.89,0,0,1-.73,14.62c-1.81,8.28-1.92,11.56-1.92,11.59a.64.64,0,0,1-.4.59.67.67,0,0,1-.7-.14c-.09-.09-2.2-2.2-1.93-8.74.23-5.42,2.5-13.4,3.23-15.85l-4.51-.65c-2.37,23.09-3.44,23.06-4.14,23a.8.8,0,0,1-.57-.28c-.76-.86-1-5.41-.73-8.92a69.32,69.32,0,0,0,.08-9.06Zm16-3.87c-.59,1.93-3,10.39-3.27,15.84a16.86,16.86,0,0,0,.63,6c.23-1.85.71-4.93,1.73-9.59A44,44,0,0,0,54,40.45Z"/><path class="cls-3" d="M54.94,37.41c-3.35.79-3.82-4.2-5.27-4.64s2.85-4.12,2.85-4.12L46.75,15.54l2.4.44-.35-3.07,1.68,1.15,5.71-6.68L58.76,14l2.1-3.87V15l2.27-1.37L55,28.78S58.3,36.62,54.94,37.41Z"/><path class="cls-2" d="M54.24,38.15c-2.05,0-3.07-2-3.77-3.3-.31-.58-.73-1.38-1-1.46a1,1,0,0,1-.74-.77c-.22-1,1.43-2.77,3-4.14L46.15,15.8a.66.66,0,0,1,.72-.91l1.53.29L48.15,13a.67.67,0,0,1,.32-.63.64.64,0,0,1,.7,0l1.19.82L55.69,7a.6.6,0,0,1,.6-.22.65.65,0,0,1,.5.4l2.07,5.28,1.43-2.64A.65.65,0,0,1,61,9.46a.66.66,0,0,1,.5.63V13.8L62.8,13a.65.65,0,0,1,.91.86l-8,14.93c.51,1.27,2.11,5.72,1,8A2.36,2.36,0,0,1,55.09,38h0A3.74,3.74,0,0,1,54.24,38.15Zm-4.16-5.92a4.34,4.34,0,0,1,1.54,2c.92,1.76,1.64,2.88,3.17,2.52h0a1,1,0,0,0,.75-.59c.84-1.64-.53-5.72-1.13-7.15a.69.69,0,0,1,0-.56l7-13.1-.24.14a.65.65,0,0,1-.66,0,.66.66,0,0,1-.33-.57V12.66l-.88,1.61a.64.64,0,0,1-.62.34.63.63,0,0,1-.56-.41L56,8.63l-5,5.85a.64.64,0,0,1-.86.12l-.5-.34.19,1.65a.67.67,0,0,1-.2.55.66.66,0,0,1-.57.16l-1.19-.22,5.28,12a.65.65,0,0,1-.17.76A14.41,14.41,0,0,0,50.08,32.23Z"/><path class="cls-3" d="M43.68,33.4a11.73,11.73,0,0,1-6.65.76c-1.49-.26.75-5.92.75-5.92L31.9,15.09l2.44.15-.72-3,1.8.94,4.86-7.32,3.36,6.22L45.25,8l.6,4.82,2.08-1.63L45.2,26.28S46.91,32.21,43.68,33.4Z"/><path class="cls-2" d="M39,35a12.1,12.1,0,0,1-2.09-.19,1.2,1.2,0,0,1-.82-.6c-.7-1.25.46-4.6,1-6L31.3,15.36a.65.65,0,0,1,.64-.92l1.56.1L33,12.38a.65.65,0,0,1,.93-.73l1.28.67,4.54-6.83a.61.61,0,0,1,.57-.29.65.65,0,0,1,.54.34l2.69,5,1.11-2.79a.64.64,0,0,1,.68-.41.66.66,0,0,1,.57.57l.45,3.67,1.18-.92a.67.67,0,0,1,.74,0,.65.65,0,0,1,.3.67l-2.71,15c.27,1,1.52,6.48-2,7.76A14,14,0,0,1,39,35Zm-1.79-1.47a11.07,11.07,0,0,0,6.23-.74c2.58-.95,1.13-6.28,1.12-6.33a.76.76,0,0,1,0-.3L47,12.74l-.74.57a.64.64,0,0,1-.65.09.65.65,0,0,1-.4-.52l-.28-2.28-.68,1.71a.63.63,0,0,1-.56.41.64.64,0,0,1-.62-.34L40.22,7.12,36,13.53a.64.64,0,0,1-.84.22l-.53-.28L35,15.09a.65.65,0,0,1-.13.57.63.63,0,0,1-.54.23l-1.36-.08L38.38,28a.69.69,0,0,1,0,.51C37.53,30.65,37,33,37.22,33.53Z"/><path class="cls-1" d="M25,41.1s7.71-3.3,10.86-4.69a11.77,11.77,0,0,0,5.3-4.07c.89-1.23,5.12-7.57,5.12-7.57L44.16,25l.1-3.4-2,2L42,21.33l-1.7,1.72-.83-3.37L38.65,32,35.34,18.08l-1.65,1.8-1.58-2.66-.63,1.93-8.59-1.89,1.92,6.81-4-1.82,2.92,3.88-2.63.28,15.65,7.22-9.36-1,.91,1.51-2.24.58L26.77,36l-1.63,1.11,1.91.25Z"/><path class="cls-2" d="M25,41.75a.64.64,0,0,1-.48-.21.65.65,0,0,1-.09-.75L26,37.92l-1-.12a.66.66,0,0,1-.55-.5.65.65,0,0,1,.27-.69l1.14-.78L25.48,35a.63.63,0,0,1,0-.57.66.66,0,0,1,.44-.37l1.39-.36L26.82,33a.62.62,0,0,1,0-.68.64.64,0,0,1,.62-.3l5.4.58L20.82,27a.65.65,0,0,1,.2-1.24l1.49-.16-2.23-3a.65.65,0,0,1,.79-1L23.8,22.9l-1.53-5.46a.62.62,0,0,1,.15-.62.64.64,0,0,1,.61-.19l8,1.75L31.5,17a.65.65,0,0,1,1.18-.12l1.12,1.9,1.06-1.15a.65.65,0,0,1,1.11.29l2.31,9.72.53-8a.64.64,0,0,1,.59-.6.65.65,0,0,1,.69.49l.55,2.23.89-.89a.65.65,0,0,1,1.11.38l.11.95,1-1.06a.64.64,0,0,1,.72-.14.66.66,0,0,1,.4.62l-.08,2.65,1.4-.15a.62.62,0,0,1,.63.31.66.66,0,0,1,0,.7c-.17.26-4.24,6.37-5.13,7.59A12.4,12.4,0,0,1,36.14,37C33,38.38,25.36,41.67,25.28,41.7A.75.75,0,0,1,25,41.75Zm1.9-5,.22,0a.65.65,0,0,1,.48,1l-1.12,2c2.47-1,6.92-3,9.11-3.94a11,11,0,0,0,5-3.86c.64-.88,3.06-4.49,4.32-6.38l-.75.08a.62.62,0,0,1-.51-.17.64.64,0,0,1-.21-.5l.05-1.74-.83.84a.64.64,0,0,1-.67.16.65.65,0,0,1-.44-.54l-.11-1-.76.77a.65.65,0,0,1-.64.16.6.6,0,0,1-.25-.13l-.56,8.52a.65.65,0,0,1-1.29.11L35,19.43l-.82.89a.64.64,0,0,1-.54.21.66.66,0,0,1-.5-.32l-.85-1.43-.19.57a.64.64,0,0,1-.75.43l-7.52-1.65,1.61,5.76a.67.67,0,0,1-.2.68.64.64,0,0,1-.69.09l-1.68-.76,1.38,1.84a.61.61,0,0,1,.08.65.66.66,0,0,1-.53.39l-.28,0L37,33a.65.65,0,0,1,.35.77.66.66,0,0,1-.69.48l-8.06-.87.24.39a.66.66,0,0,1,0,.58.65.65,0,0,1-.44.38L27,35.13l.32.6a.65.65,0,0,1-.2.85Z"/><path class="cls-1" d="M66,34.47S58.91,37.52,56,38.74a10,10,0,0,1-6.12.82c-1.4-.24-8.37-1.78-8.37-1.78L43,36.44,40.65,34.1l2.63,0-1.37-1.82,2.25,0-1.74-3,8.83,8.19L44,25.36l2.27.13-.79-3,1.7.93,4.21-7.35,3.36,6.17L56,18.14l.75,4.8,1.86-1.65-5.1,16.08,5.28-7.27.44,1.71,1.82-1.16.43,1.45,1.79-.35-1.05,1.51Z"/><path class="cls-2" d="M51.59,40.38a11.67,11.67,0,0,1-1.86-.17c-1.39-.25-8.1-1.73-8.39-1.8a.64.64,0,0,1-.49-.47.66.66,0,0,1,.2-.65l1-.88-1.86-1.85a.66.66,0,0,1-.14-.72.63.63,0,0,1,.61-.39l1.3,0-.57-.76a.64.64,0,0,1-.06-.68.63.63,0,0,1,.59-.36H43l-1.15-2a.65.65,0,0,1,1-.8L48.36,34l-5-8.31a.65.65,0,0,1,.6-1l1.37.08-.56-2.13A.65.65,0,0,1,45,22a.67.67,0,0,1,.72-.06l1.14.62,3.89-6.79a.6.6,0,0,1,.57-.33.64.64,0,0,1,.57.34l2.64,4.84.86-2.66a.67.67,0,0,1,.67-.45.65.65,0,0,1,.59.55l.57,3.62,1-.85a.65.65,0,0,1,1.05.68L55.39,33.72l2.91-4a.66.66,0,0,1,.65-.25.63.63,0,0,1,.51.48l.22.84,1.06-.68a.65.65,0,0,1,1,.37l.27.88,1.2-.24a.65.65,0,0,1,.66,1l-.54.79,2.94.93a.68.68,0,0,1,.46.59.67.67,0,0,1-.4.64c-.07,0-7.17,3.06-10.09,4.27A12,12,0,0,1,51.59,40.38Zm-8.71-3C45,37.87,49,38.75,50,38.92a9.33,9.33,0,0,0,5.76-.79c2.05-.84,6.17-2.6,8.45-3.57l-2.1-.67a.66.66,0,0,1-.42-.41.65.65,0,0,1,.08-.59l.13-.19-.21,0a.65.65,0,0,1-.75-.45l-.19-.62-1.09.69a.64.64,0,0,1-1-.39l-.1-.37-4.47,6.15a.65.65,0,0,1-1.14-.58l4.39-13.83-.1.09a.62.62,0,0,1-.65.12.64.64,0,0,1-.43-.51l-.32-2.1-.49,1.5a.66.66,0,0,1-.56.45.64.64,0,0,1-.63-.34l-2.81-5.14-3.62,6.33a.65.65,0,0,1-.88.25l-.38-.21.41,1.54a.66.66,0,0,1-.67.82l-1-.06,6.66,11.15a.66.66,0,0,1-.15.84.65.65,0,0,1-.85,0l-6-5.57a.9.9,0,0,1-.08.21.65.65,0,0,1-.56.32h-.93l.57.76a.64.64,0,0,1,.06.69.67.67,0,0,1-.59.36l-1,0,1.2,1.2a.7.7,0,0,1,.2.49.66.66,0,0,1-.23.47Z"/><path class="cls-1" d="M75.2,36.55s-7.75.31-10.94.4a10.05,10.05,0,0,1-6-1.41c-1.21-.72-7.17-4.65-7.17-4.65l1.89-.7-1.36-3,2.44,1L53.42,26l2.09.82-.57-3.39,5.33,10.79-2.45-14,2.07.93L60.22,18l1.26,1.47L68,14.13l.94,7,2.7-3.35-1,4.75L73,21.61l-10.5,13.2L70,29.9l-.2,1.76,2.11-.44-.11,1.51,1.79.31-1.51,1Z"/><path class="cls-2" d="M63.77,37.61a10.43,10.43,0,0,1-5.85-1.51c-1.22-.72-7-4.51-7.2-4.67a.63.63,0,0,1-.29-.62.64.64,0,0,1,.42-.53l1.24-.46L51,27.42a.68.68,0,0,1,.13-.72.64.64,0,0,1,.71-.15l1.21.48-.27-.9a.65.65,0,0,1,.87-.79l1,.4-.37-2.25a.65.65,0,0,1,1.23-.4l3.32,6.72-1.67-9.53a.65.65,0,0,1,.9-.7l1.26.56L59.57,18A.66.66,0,0,1,60,17.4a.64.64,0,0,1,.69.2l.85,1,6-5a.71.71,0,0,1,.66-.1.65.65,0,0,1,.4.52l.74,5.46,1.76-2.17a.64.64,0,0,1,.78-.18.65.65,0,0,1,.36.72l-.76,3.59L72.76,21a.66.66,0,0,1,.76.23.65.65,0,0,1,0,.79l-8,10,4.15-2.71a.66.66,0,0,1,.7,0,.63.63,0,0,1,.31.62l-.1.87,1.23-.25a.63.63,0,0,1,.56.14.66.66,0,0,1,.22.54l-.07.92,1.21.21A.65.65,0,0,1,74,33.58l-.79.54L75.61,36a.66.66,0,0,1,.21.72.65.65,0,0,1-.59.44c-.08,0-7.8.32-11,.4ZM52.51,31.05c1.77,1.17,5.2,3.41,6.07,3.93a9.37,9.37,0,0,0,5.66,1.32c2.22-.06,6.7-.23,9.18-.33l-1.73-1.38a.64.64,0,0,1-.24-.53.61.61,0,0,1,.28-.51l.19-.14-.21,0a.64.64,0,0,1-.54-.69l0-.64L70,32.3a.65.65,0,0,1-.57-.16.68.68,0,0,1-.21-.56l0-.38-6.37,4.15a.65.65,0,0,1-.87-1l9-11.35-.12.05a.64.64,0,0,1-.65-.12.66.66,0,0,1-.22-.63l.45-2.08-1,1.23a.65.65,0,0,1-1.15-.32l-.79-5.81L61.9,20a.66.66,0,0,1-.91-.07l-.28-.33-.17,1.58a.66.66,0,0,1-.92.52l-.95-.42,2.24,12.79a.65.65,0,0,1-1.22.4l-3.63-7.34a1.07,1.07,0,0,1-.14.16.67.67,0,0,1-.65.1L54.41,27l.27.92a.66.66,0,0,1-.19.66.65.65,0,0,1-.68.12l-.94-.38.69,1.56a.63.63,0,0,1,0,.52.69.69,0,0,1-.37.36Z"/><path class="cls-1" d="M52.48,43s-6.31,1.18-8.9,1.64a8.4,8.4,0,0,1-5.09-.43c-1.08-.45-6.43-2.95-6.43-2.95l1.46-.8-1.47-2.31,2.11.5L33.38,37l1.81.42-.87-2.7L40,42.86,36.29,31.7l1.8.5L38,29.65,39.2,30.7l4.71-5.18,1.61,5.58L47.33,28l-.26,4,1.81-1-7,12.06,5.57-4.92.05,1.46L49.16,39l.09,1.25,1.51,0-1.12,1Z"/><path class="cls-2" d="M41.55,45.49a8.19,8.19,0,0,1-3.31-.67c-1.08-.45-6.24-2.85-6.46-3a.65.65,0,0,1-.38-.57.68.68,0,0,1,.34-.59l.86-.47-1.1-1.72a.63.63,0,0,1,0-.73.64.64,0,0,1,.68-.26l.82.2-.23-.5a.65.65,0,0,1,.74-.91l.68.16-.51-1.6a.65.65,0,0,1,1.16-.57l3.07,4.45L35.67,31.9a.66.66,0,0,1,.14-.66.65.65,0,0,1,.65-.17l.95.26-.07-1.66a.64.64,0,0,1,.37-.61.66.66,0,0,1,.71.09l.73.64,4.28-4.71a.66.66,0,0,1,1.11.26l1.19,4.13,1-1.76a.65.65,0,0,1,1.21.37L47.8,30.9l.76-.42a.65.65,0,0,1,.88.9l-5,8.57L47,37.7a.65.65,0,0,1,1.08.47l0,.56.83-.3a.64.64,0,0,1,.87.56l0,.66.91,0a.68.68,0,0,1,.6.42.67.67,0,0,1-.17.71l-.47.44,2.08,1.2a.66.66,0,0,1,.31.68.64.64,0,0,1-.52.53s-6.31,1.19-8.91,1.64A12.61,12.61,0,0,1,41.55,45.49Zm-8-4.26c1.64.76,4.49,2.08,5.24,2.38a7.55,7.55,0,0,0,4.72.4c1.74-.31,5.12-.94,7.17-1.32l-1.32-.77a.68.68,0,0,1-.32-.49.66.66,0,0,1,.16-.5.64.64,0,0,1-.55-.6l0-.38-.86.31a.65.65,0,0,1-.59-.07.68.68,0,0,1-.29-.52v-.08l-4.53,4a.65.65,0,0,1-.84,0,.63.63,0,0,1-.15-.83l5.86-10.09a.72.72,0,0,1-.45-.09.68.68,0,0,1-.3-.6l.08-1.28-.42.72a.65.65,0,0,1-.64.31.64.64,0,0,1-.54-.47l-1.29-4.46-3.92,4.32a.66.66,0,0,1-.91.05l-.08-.07,0,1.06a.65.65,0,0,1-.24.54.65.65,0,0,1-.58.11l-.63-.17,3.31,10a.66.66,0,0,1-1.16.58l-3.75-5.44,0,0A.65.65,0,0,1,35,38l-.52-.12.23.5a.65.65,0,0,1-.74.91l-.55-.13.61.95a.62.62,0,0,1,.08.51.62.62,0,0,1-.31.41Z"/></svg>