<svg id="Ebene_1" data-name="Ebene 1" xmlns="http://www.w3.org/2000/svg" viewBox="0 0 152 152"><defs><style>.cls-1{fill:#bfe54a;}.cls-2{fill:#1d1d1b;}.cls-3{fill:#9fb737;}.cls-4{fill:#fff;}</style></defs><title>opencelery</title><path class="cls-1" d="M59.16,69.27c3.5,14.38,3.3,30.32,1.85,51.16-1,14.52,6.88,20.66,17,20.66,10.86,0,21.72-12.58,15.13-34-6.28-20.46,6.05-48.57,6.05-48.57l-5.3-.69L89.68,69.36V60l-3.93.12a64.75,64.75,0,0,1-1,23.33c-2.86,13.09-3,18.09-3,18.09s-3.07-3-2.66-12.73,5.28-25.36,5.28-25.36L75.28,62.1s-3.65,35.76-5.46,35.67c-.83,0-1.57-6.64-1-13.11a109.14,109.14,0,0,0,.08-15.06Z"/><path class="cls-2" d="M78,142.1c-5.57,0-10.19-1.79-13.35-5.17-3.56-3.82-5.12-9.4-4.61-16.57,1.45-20.8,1.65-36.57-1.83-50.85a1,1,0,0,1,.2-.88,1,1,0,0,1,.81-.37l9.7.33a1,1,0,0,1,1,1,110.76,110.76,0,0,1-.08,15.2,50.84,50.84,0,0,0,.15,10C71.15,89.19,73,75,74.27,62a1,1,0,0,1,.39-.69.94.94,0,0,1,.76-.2l9.17,1.3a1.09,1.09,0,0,1,.48.21c-.15-1.48-.3-2.33-.31-2.36a1,1,0,0,1,.21-.81,1,1,0,0,1,.75-.38L89.65,59a1.13,1.13,0,0,1,.73.29,1,1,0,0,1,.31.72V63.6l2.21-6.12A1,1,0,0,1,94,56.82l5.3.69A1,1,0,0,1,100,58a1,1,0,0,1,0,.9c-.13.27-12.11,28-6,47.86,4.65,15.13.39,24.09-2.56,28.09A16.92,16.92,0,0,1,78,142.1ZM60.44,70.32c3.23,14.19,3,29.8,1.58,50.18-.46,6.59.91,11.65,4.08,15.05,2.76,3,6.87,4.54,11.87,4.54a14.9,14.9,0,0,0,11.91-6.42c2.73-3.69,6.65-12,2.26-26.3-5.64-18.38,3.25-42.3,5.57-48l-3.19-.42L90.63,69.71a1,1,0,0,1-2-.35V61l-1.75,0a67.78,67.78,0,0,1-1.13,22.58c-2.8,12.79-3,17.85-3,17.9a1,1,0,0,1-1.71.7c-.14-.14-3.39-3.41-3-13.51.35-8.36,3.85-20.68,5-24.47l-7-1c-3.66,35.65-5.36,35.6-6.4,35.53a1.23,1.23,0,0,1-.88-.44C67.72,97,67.33,90,67.77,84.58a107.61,107.61,0,0,0,.12-14Zm24.77-6c-.9,3-4.7,16-5,24.46a26.25,26.25,0,0,0,1,9.19c.36-2.85,1.11-7.61,2.68-14.81A67.93,67.93,0,0,0,85.21,64.35Z"/><path class="cls-3" d="M86.72,59.64c-5.18,1.22-5.9-6.49-8.14-7.16S83,46.12,83,46.12L74.07,25.86l3.71.69-.54-4.75,2.58,1.78,8.82-10.31,4,10.16,3.25-6V25l3.5-2.11L86.83,46.32S91.9,58.42,86.72,59.64Z"/><path class="cls-2" d="M85.64,60.78c-3.17,0-4.74-3-5.83-5.09-.47-.89-1.12-2.12-1.52-2.25a1.57,1.57,0,0,1-1.15-1.18c-.33-1.61,2.21-4.28,4.62-6.41L73.14,26.27a1,1,0,0,1,1.11-1.4l2.37.44-.38-3.39a1,1,0,0,1,.48-1,1,1,0,0,1,1.09,0l1.84,1.27,8.22-9.63a1,1,0,0,1,.94-.33,1,1,0,0,1,.77.62l3.19,8.15L95,17a1,1,0,0,1,1.14-.5,1,1,0,0,1,.76,1v5.72l2-1.19a1,1,0,0,1,1.21.13,1,1,0,0,1,.2,1.21L88,46.38c.77,1.95,3.25,8.82,1.49,12.28a3.66,3.66,0,0,1-2.49,2A5.64,5.64,0,0,1,85.64,60.78Zm-6.43-9.13c1,.49,1.66,1.72,2.38,3.11,1.43,2.72,2.55,4.46,4.9,3.9a1.66,1.66,0,0,0,1.15-.91c1.3-2.54-.81-8.83-1.74-11a1,1,0,0,1,0-.87L96.76,25.6l-.36.23a1,1,0,0,1-1,0,1,1,0,0,1-.51-.88V21.42l-1.35,2.49a1,1,0,0,1-1.82-.11l-3.37-8.6-7.73,9a1,1,0,0,1-1.34.17l-.76-.52.29,2.55a1,1,0,0,1-.31.85,1,1,0,0,1-.88.25l-1.83-.34,8.15,18.52a1,1,0,0,1-.27,1.17A22.06,22.06,0,0,0,79.21,51.65Z"/><path class="cls-3" d="M69.32,53.45c-5,1.84-7.95,1.58-10.25,1.18s1.15-9.15,1.15-9.15l-9.09-20.3,3.77.23-1.11-4.65,2.78,1.45,7.51-11.3,5.18,9.6,2.5-6.32.91,7.45,3.22-2.52L71.67,42.45S74.31,51.61,69.32,53.45Z"/><path class="cls-2" d="M62.11,55.92a18.47,18.47,0,0,1-3.22-.3,1.77,1.77,0,0,1-1.27-.91c-1.08-1.93.71-7.12,1.5-9.21L50.21,25.59a1,1,0,0,1,.1-1,1,1,0,0,1,.89-.43l2.41.15L52.81,21a1,1,0,0,1,1.45-1.13l2,1,7-10.55a1,1,0,0,1,.88-.45,1,1,0,0,1,.84.53l4.16,7.7,1.7-4.31a1,1,0,0,1,1.94.25l.7,5.67,1.81-1.42a1,1,0,0,1,1.15-.07,1,1,0,0,1,.47,1.05L72.7,42.41c.41,1.56,2.35,10-3,12A21.53,21.53,0,0,1,62.11,55.92Zm-2.77-2.26c2.18.37,4.91.58,9.63-1.16h0c4-1.46,1.75-9.68,1.73-9.77a1,1,0,0,1,0-.46l3.75-20.73-1.13.89a1,1,0,0,1-1.63-.67l-.43-3.51-1,2.63a1,1,0,0,1-.88.64,1,1,0,0,1-.95-.53L64,12.86l-6.58,9.91a1,1,0,0,1-1.3.34l-.82-.43.59,2.5a1,1,0,0,1-.21.88,1.05,1.05,0,0,1-.83.36l-2.1-.14,8.4,18.78a1,1,0,0,1,0,.79C59.83,49.2,59,52.83,59.34,53.66Z"/><path class="cls-1" d="M40.51,65.34s11.9-5.09,16.77-7.24,6.81-4.4,8.19-6.29,7.9-11.69,7.9-11.69l-3.3.36.15-5.25-3.07,3.12-.43-3.54-2.63,2.65-1.28-5.19-1.25,19L56.45,29.79,53.9,32.58l-2.43-4.12-1,3L37.23,28.53l3,10.51L34,36.23l4.52,6-4.07.43L58.6,53.8,44.15,52.24l1.41,2.34-3.46.9,1.11,2.05L40.7,59.24l2.95.4Z"/><path class="cls-2" d="M40.51,66.35a1,1,0,0,1-.74-.33,1,1,0,0,1-.14-1.16l2.42-4.42-1.48-.2a1,1,0,0,1-.44-1.83l1.76-1.2L41.21,56a1,1,0,0,1,0-.89,1,1,0,0,1,.68-.57L44,53.94l-.71-1.18a1,1,0,0,1,0-1.06,1,1,0,0,1,1-.46l8.34.9L34,43.57a1,1,0,0,1,.32-1.92l2.29-.24-3.44-4.57a1,1,0,0,1,0-1.23,1,1,0,0,1,1.21-.29l4.21,1.91-2.36-8.42a1,1,0,0,1,.23-1,1,1,0,0,1,.95-.29l12.37,2.71.7-2.12a1,1,0,0,1,.85-.68,1,1,0,0,1,1,.49l1.74,2.94,1.62-1.78a1,1,0,0,1,1-.3,1,1,0,0,1,.73.74l3.56,15,.81-12.36a1,1,0,0,1,2-.18l.85,3.45L66,34.1a1,1,0,0,1,1-.25,1,1,0,0,1,.67.84l.18,1.46,1.6-1.63a1,1,0,0,1,1.11-.22,1,1,0,0,1,.62,1l-.12,4.1,2.16-.23a1,1,0,0,1,1,.47,1,1,0,0,1,0,1.09c-.26.4-6.55,9.84-7.92,11.72-1.58,2.16-3.71,4.46-8.6,6.62S41,66.22,40.91,66.27A.92.92,0,0,1,40.51,66.35Zm2.93-7.76.34,0a1,1,0,0,1,.76.54,1,1,0,0,1,0,.94l-1.72,3.14c3.8-1.63,10.68-4.59,14.06-6.09,4.68-2.06,6.47-4.16,7.79-6,1-1.36,4.73-6.95,6.68-9.86l-1.16.12a1,1,0,0,1-.79-.26,1,1,0,0,1-.33-.77l.08-2.68-1.27,1.29a1,1,0,0,1-1.05.25,1,1,0,0,1-.67-.84L66,37l-1.16,1.17a1,1,0,0,1-1,.26,1,1,0,0,1-.39-.21l-.87,13.17a1,1,0,0,1-.92.94,1,1,0,0,1-1.06-.77L55.91,31.88l-1.26,1.38a1,1,0,0,1-.85.32,1,1,0,0,1-.76-.49l-1.31-2.21-.29.88a1,1,0,0,1-1.18.67L38.65,29.88l2.5,8.89A1,1,0,0,1,39.77,40l-2.59-1.17,2.13,2.83a1,1,0,0,1,.12,1,1,1,0,0,1-.81.61l-.43,0L59,52.89a1,1,0,0,1,.55,1.18,1,1,0,0,1-1.08.74L46.06,53.46l.36.6a1,1,0,0,1,.07.9,1,1,0,0,1-.68.6l-2.21.57.5.91a1,1,0,0,1-.32,1.32Z"/><path class="cls-1" d="M103.87,55.1s-11,4.71-15.57,6.59S81,63.34,78.85,63s-12.91-2.76-12.91-2.76l2.34-2.06-3.63-3.62,4.06.07L66.6,51.79l3.46,0-2.68-4.58L81,59.88,69.76,41l3.5.19L72,36.61,74.68,38l6.49-11.34,5.19,9.52,2-6.32,1.16,7.41,2.88-2.54L84.57,59.58l8.16-11.23L93.41,51l2.8-1.79.67,2.24,2.76-.55L98,53.24Z"/><path class="cls-2" d="M81.55,64.23A15.82,15.82,0,0,1,78.68,64c-2.15-.37-12.52-2.67-13-2.77a1,1,0,0,1-.76-.73,1,1,0,0,1,.31-1l1.54-1.34-2.87-2.86a1,1,0,0,1-.21-1.11,1,1,0,0,1,.94-.62l2,0-.88-1.17a1,1,0,0,1-.09-1.06,1,1,0,0,1,.9-.55h0l1.68,0-1.78-3a1,1,0,0,1,1.56-1.25l8.48,7.86L68.9,41.55a1,1,0,0,1,0-1,1,1,0,0,1,.92-.48l2.11.12-.86-3.28a1,1,0,0,1,.35-1,1,1,0,0,1,1.1-.1l1.77,1,6-10.49a1.13,1.13,0,0,1,.89-.51,1,1,0,0,1,.87.53l4.08,7.47,1.33-4.1a1,1,0,0,1,1-.7,1,1,0,0,1,.91.86l.87,5.59L91.78,34a1,1,0,0,1,1.63,1.06L87.41,54l4.5-6.19a1,1,0,0,1,1.79.34L94,49.4l1.63-1a1,1,0,0,1,.89-.1,1,1,0,0,1,.62.66l.4,1.36,1.86-.37a1,1,0,0,1,1,1.57l-.84,1.21,4.54,1.45a1,1,0,0,1,.09,1.88c-.11,0-11.07,4.74-15.57,6.61A18.51,18.51,0,0,1,81.55,64.23ZM68.1,59.65c3.2.71,9.37,2.06,10.92,2.32,2,.36,4.55.59,8.9-1.21,3.16-1.31,9.53-4,13-5.52l-3.25-1a1,1,0,0,1-.65-.63,1,1,0,0,1,.13-.9l.2-.3-.33.07a1,1,0,0,1-1.16-.71l-.28-.95L94,51.85a1,1,0,0,1-.92.08,1,1,0,0,1-.6-.68l-.15-.57-6.9,9.49a1,1,0,0,1-1.78-.9l6.79-21.34-.15.13a1,1,0,0,1-1.67-.6l-.5-3.24-.75,2.31a1,1,0,0,1-1.84.17l-4.33-7.94-5.6,9.77a1,1,0,0,1-1.35.39l-.59-.32L74.24,41a1,1,0,0,1-.2.9,1,1,0,0,1-.83.37l-1.61-.09L81.88,59.37a1,1,0,0,1-.23,1.3,1,1,0,0,1-1.32-.05L71.05,52a1,1,0,0,1-.12.31.94.94,0,0,1-.88.5l-1.41,0L69.52,54a1,1,0,0,1-.81,1.62h0l-1.57,0L69,57.44a1,1,0,0,1,0,1.47Z"/><path class="cls-1" d="M118,58.32s-12,.48-16.9.61-7.41-1.06-9.28-2.17-11.08-7.19-11.08-7.19l2.92-1.08-2.1-4.68,3.77,1.51-1-3.38,3.22,1.27L86.72,38,95,54.65,91.16,33l3.2,1.43.51-4.75L96.82,32l10.11-8.28,1.46,10.75,4.17-5.18L111,36.6l3.6-1.35L98.38,55.62,110,48.05l-.31,2.71,3.26-.67-.18,2.33,2.77.48-2.34,1.61Z"/><path class="cls-2" d="M100.37,60a16.19,16.19,0,0,1-9.06-2.33c-1.87-1.11-10.74-7-11.12-7.21a1,1,0,0,1,.21-1.78l1.91-.71-1.66-3.7A1,1,0,0,1,82,42.87l1.85.75-.4-1.4a1,1,0,0,1,.29-1,1,1,0,0,1,1-.2l1.57.62-.58-3.47A1,1,0,0,1,86.41,37a1,1,0,0,1,1.22.51L92.75,47.9,90.17,33.2a1,1,0,0,1,1.4-1.1l1.94.87.36-3.38A1,1,0,0,1,95.63,29L97,30.57l9.34-7.66a1,1,0,0,1,1.64.64L109.07,32l2.71-3.35a1,1,0,0,1,1.21-.28,1,1,0,0,1,.56,1.12L112.37,35l1.87-.71a1,1,0,0,1,1.17.35,1,1,0,0,1,0,1.22L103.05,51.38l6.41-4.18a1,1,0,0,1,1.07,0,1,1,0,0,1,.48,1l-.15,1.33,1.89-.39a1.05,1.05,0,0,1,.87.23,1,1,0,0,1,.34.83l-.1,1.42,1.87.32a1,1,0,0,1,.39,1.83l-1.21.84,3.73,3a1,1,0,0,1,.33,1.11,1,1,0,0,1-.92.69c-.12,0-12,.48-16.91.61ZM83,49.83c2.74,1.79,8,5.25,9.38,6.06,1.76,1,4.05,2.15,8.74,2,3.42-.1,10.33-.36,14.17-.51l-2.67-2.12a1,1,0,0,1,0-1.63l.3-.2-.33-.06a1,1,0,0,1-.83-1.07l.07-1-1.95.4a1,1,0,0,1-.88-.25,1,1,0,0,1-.32-.85l.06-.59-9.83,6.41a1,1,0,0,1-1.3-.17,1,1,0,0,1,0-1.3l14-17.53-.19.07a1,1,0,0,1-1-.18,1,1,0,0,1-.33-1l.68-3.2-1.52,1.88a1,1,0,0,1-1,.34,1,1,0,0,1-.73-.84l-1.22-9-8.71,7.14a1,1,0,0,1-1.4-.12l-.44-.51-.26,2.44a1,1,0,0,1-1.41.82l-1.47-.66L96,54.47a1,1,0,0,1-1.9.62l-5.6-11.34a1.31,1.31,0,0,1-.22.25,1,1,0,0,1-1,.15l-1.31-.52.4,1.41A1,1,0,0,1,85,46.26l-1.45-.58,1.07,2.4a1,1,0,0,1,0,.8.93.93,0,0,1-.58.55Z"/><path class="cls-1" d="M84.26,69.63s-9.74,1.83-13.75,2.54a12.84,12.84,0,0,1-7.86-.67C61,70.81,52.72,67,52.72,67L55,65.72,52.7,62.14l3.27.79-1.2-2.66,2.79.66-1.35-4.18L65,69.4l-5.7-17.24L62,53l-.15-4,1.87,1.62,7.27-8,2.49,8.62,2.79-4.74-.4,6.19,2.78-1.54L67.87,69.79l8.61-7.6.07,2.26,2.59-.94.13,1.92,2.33.06-1.72,1.6Z"/><path class="cls-2" d="M67.38,73.47a12.58,12.58,0,0,1-5.11-1c-1.68-.69-9.64-4.4-10-4.56a1,1,0,0,1,0-1.8l1.31-.72-1.7-2.67a1,1,0,0,1,1.09-1.52l1.26.3-.35-.77A1,1,0,0,1,54,59.63a1,1,0,0,1,1-.34l1,.25-.8-2.48A1,1,0,0,1,57,56.18l4.75,6.87-3.5-10.57a1,1,0,0,1,1.23-1.29L61,51.6,60.88,49a1,1,0,0,1,.57-.95,1,1,0,0,1,1.1.14l1.12,1L70.29,42a1,1,0,0,1,1.71.4l1.84,6.37L75.44,46a1,1,0,0,1,1.17-.45,1,1,0,0,1,.7,1L77,50.93l1.17-.65a1,1,0,0,1,1.2.18,1,1,0,0,1,.16,1.21L71.88,64.91l3.93-3.48a1,1,0,0,1,1.67.73l0,.86,1.28-.46a1,1,0,0,1,1.35.88l.08,1,1.4,0a1,1,0,0,1,.92.65,1,1,0,0,1-.26,1.1l-.72.67,3.21,1.86a1,1,0,0,1-.32,1.87s-9.75,1.83-13.77,2.53A19,19,0,0,1,67.38,73.47ZM55,66.88c2.53,1.18,6.94,3.21,8.09,3.69a11.76,11.76,0,0,0,7.3.6c2.67-.46,7.89-1.43,11.06-2l-2-1.18a1,1,0,0,1-.49-.76,1,1,0,0,1,.24-.77,1,1,0,0,1-.85-.93l0-.59-1.34.48a1,1,0,0,1-.9-.11,1,1,0,0,1-.45-.8v-.12l-7,6.18A1,1,0,0,1,67,69.28l9-15.58a1,1,0,0,1-.68-.15,1,1,0,0,1-.46-.91l.12-2-.64,1.09a1,1,0,0,1-1,.49,1,1,0,0,1-.84-.72l-2-6.89L64.5,51.3a1,1,0,0,1-1.4.08l-.12-.1.07,1.63a1,1,0,0,1-.39.83,1,1,0,0,1-.89.18l-1-.27,5.11,15.43a1,1,0,0,1-.51,1.22A1,1,0,0,1,64.12,70l-5.79-8.39,0,0a1,1,0,0,1-1,.3l-.8-.19.36.79a1,1,0,0,1-.14,1.06,1,1,0,0,1-1,.34l-.83-.2.93,1.46A1,1,0,0,1,56,66a1,1,0,0,1-.49.63Z"/><ellipse class="cls-4" cx="70.67" cy="114.88" rx="4.33" ry="5.53"/><path class="cls-2" d="M70.67,121.09c-2.76,0-5-2.79-5-6.21s2.24-6.2,5-6.2,5,2.78,5,6.2S73.43,121.09,70.67,121.09Zm0-11.07c-2,0-3.66,2.18-3.66,4.86s1.64,4.86,3.66,4.86,3.65-2.18,3.65-4.86S72.68,110,70.67,110Z"/><ellipse class="cls-4" cx="85.8" cy="114.88" rx="4.33" ry="5.53"/><path class="cls-2" d="M85.8,121.09c-2.76,0-5-2.79-5-6.21s2.24-6.2,5-6.2,5,2.78,5,6.2S88.56,121.09,85.8,121.09Zm0-11.07c-2,0-3.66,2.18-3.66,4.86s1.64,4.86,3.66,4.86,3.66-2.18,3.66-4.86S87.82,110,85.8,110Z"/><path class="cls-2" d="M89.63,107.26a.65.65,0,0,1-.55-.3,3.94,3.94,0,0,0-3.28-1.51,4.07,4.07,0,0,0-3.1,1.28.67.67,0,0,1-1-.88,5.42,5.42,0,0,1,4.12-1.74,5.26,5.26,0,0,1,4.39,2.1.68.68,0,0,1-.18.94A.76.76,0,0,1,89.63,107.26Z"/><path class="cls-2" d="M64.62,109.31a.66.66,0,0,1-.23,0,.67.67,0,0,1-.4-.86,6.63,6.63,0,0,1,4-3.76,6.44,6.44,0,0,1,5.93.52.67.67,0,1,1-.78,1.09,5.12,5.12,0,0,0-4.68-.35,5.29,5.29,0,0,0-3.18,3A.66.66,0,0,1,64.62,109.31Z"/><ellipse class="cls-2" cx="85.18" cy="114.2" rx="1.97" ry="2.52"/><ellipse class="cls-2" cx="71.37" cy="114.2" rx="1.97" ry="2.52"/><path class="cls-4" d="M87.51,124.05s-3.61,2.5-6.83,2.9a20.4,20.4,0,0,1-7-.91c2.13,4.77,4.3,8.12,8,7.56C84.91,133.1,87.51,129.37,87.51,124.05Z"/><path class="cls-2" d="M80.86,134.33c-3.9,0-6.08-4.11-7.82-8a.66.66,0,0,1,.11-.72.67.67,0,0,1,.7-.19,20.09,20.09,0,0,0,6.74.88c3-.38,6.5-2.76,6.54-2.78a.67.67,0,0,1,1.05.55c0,5.44-2.64,9.63-6.43,10.21A5.42,5.42,0,0,1,80.86,134.33Zm-6-7.27c1.91,4,3.78,6.32,6.68,5.87s4.87-3.55,5.23-7.63a17.13,17.13,0,0,1-6,2.31A17.88,17.88,0,0,1,74.87,127.06Z"/><ellipse class="cls-2" cx="76.39" cy="122.47" rx="0.98" ry="0.63" transform="translate(-14.75 10.54) rotate(-7.2)"/><ellipse class="cls-2" cx="79.11" cy="122.13" rx="0.98" ry="0.63" transform="translate(-14.68 10.88) rotate(-7.2)"/></svg>