<svg id="Ebene_1" data-name="Ebene 1" xmlns="http://www.w3.org/2000/svg" viewBox="0 0 112 112"><defs><style>.cls-1{fill:#bfe54a;}.cls-2{fill:#1d1d1b;}.cls-3{fill:#9fb737;}</style></defs><title>opencelery</title><path class="cls-1" d="M44.36,51.35c2.42,9.93,2.28,20.95,1.28,35.36-.7,10,4.75,14.28,11.72,14.28,7.5,0,15-8.7,10.46-23.52C63.48,63.34,72,43.91,72,43.91l-3.67-.48-2.88,8v-6.5L62.74,45a45,45,0,0,1-.66,16.12c-2,9.05-2.06,12.5-2.06,12.5s-2.12-2.05-1.84-8.8S61.83,47.3,61.83,47.3l-6.33-.9S53,71.1,51.72,71.05c-.56,0-1.07-4.59-.72-9.07a75.22,75.22,0,0,0,.06-10.4Z"/><path class="cls-2" d="M57.36,101.68a12.2,12.2,0,0,1-9.22-3.58C45.67,95.46,44.6,91.61,45,86.66c1-14.38,1.14-25.28-1.27-35.15a.68.68,0,0,1,.14-.6.69.69,0,0,1,.57-.26l6.69.23a.7.7,0,0,1,.67.66,77.64,77.64,0,0,1,0,10.5A35.16,35.16,0,0,0,51.8,69c.85-3.84,2.09-13.67,3-22.64a.68.68,0,0,1,.26-.47.66.66,0,0,1,.53-.14l6.33.9a.7.7,0,0,1,.34.15c-.11-1-.21-1.62-.22-1.64a.71.71,0,0,1,.15-.56.68.68,0,0,1,.52-.26l2.71-.08a.72.72,0,0,1,.51.2.71.71,0,0,1,.21.49v2.52l1.53-4.23a.7.7,0,0,1,.74-.46l3.67.48a.71.71,0,0,1,.52.35.75.75,0,0,1,0,.62c-.09.19-8.37,19.36-4.16,33.08,3.22,10.46.27,16.65-1.76,19.41A11.69,11.69,0,0,1,57.36,101.68ZM45.25,52.07c2.22,9.81,2.07,20.6,1.08,34.69-.31,4.55.63,8,2.82,10.39a10.84,10.84,0,0,0,8.21,3.14,10.33,10.33,0,0,0,8.24-4.44c1.88-2.54,4.59-8.3,1.55-18.17C63.25,65,69.4,48.44,71,44.48L68.8,44.2l-2.69,7.45a.71.71,0,0,1-.78.45.7.7,0,0,1-.57-.69V45.63l-1.21,0a46.92,46.92,0,0,1-.79,15.6c-1.93,8.84-2,12.34-2,12.37a.69.69,0,0,1-1.18.48c-.1-.09-2.35-2.35-2-9.33.24-5.78,2.66-14.3,3.44-16.92l-4.81-.68c-2.54,24.64-3.68,24.6-4.43,24.55a.85.85,0,0,1-.6-.3c-.81-.91-1.08-5.78-.78-9.51a73.43,73.43,0,0,0,.09-9.68Zm17.12-4.13C61.74,50,59.12,59,58.88,64.85a18.12,18.12,0,0,0,.67,6.36c.25-2,.76-5.26,1.85-10.24A47.2,47.2,0,0,0,62.37,47.94Z"/><path class="cls-3" d="M63.41,44.69c-3.58.85-4.08-4.48-5.63-4.95s3-4.39,3-4.39l-6.17-14,2.57.48-.38-3.29,1.79,1.23,6.1-7.12,2.75,7,2.24-4.13v5.19l2.43-1.46L63.49,35.49S67,43.85,63.41,44.69Z"/><path class="cls-2" d="M62.66,45.48c-2.19,0-3.28-2.08-4-3.51-.32-.63-.77-1.48-1.05-1.56a1.1,1.1,0,0,1-.79-.82c-.23-1.11,1.52-3,3.19-4.43L54,21.63a.68.68,0,0,1,.09-.71.65.65,0,0,1,.67-.25l1.64.3-.27-2.35A.7.7,0,0,1,57.25,18l1.27.87,5.69-6.65a.66.66,0,0,1,.64-.23.69.69,0,0,1,.53.43L67.59,18l1.53-2.81a.69.69,0,0,1,.78-.34.68.68,0,0,1,.52.67v4l1.37-.83a.69.69,0,0,1,1,.92L64.25,35.53c.54,1.35,2.26,6.1,1,8.49a2.55,2.55,0,0,1-1.72,1.35h0A3.7,3.7,0,0,1,62.66,45.48Zm-4.44-6.31a4.61,4.61,0,0,1,1.64,2.15c1,1.88,1.75,3.08,3.39,2.69h0a1.12,1.12,0,0,0,.8-.62c.89-1.76-.57-6.11-1.21-7.64a.68.68,0,0,1,0-.59l7.48-14-.26.15a.69.69,0,0,1-1-.59V18.28L68.1,20a.71.71,0,0,1-.66.37.69.69,0,0,1-.6-.45L64.51,14l-5.34,6.25a.69.69,0,0,1-.92.12L57.72,20l.2,1.77a.7.7,0,0,1-.82.76l-1.27-.24,5.63,12.8a.69.69,0,0,1-.18.81A14.71,14.71,0,0,0,58.22,39.17Z"/><path class="cls-3" d="M51.38,40.41a12.37,12.37,0,0,1-7.08.82c-1.6-.28.79-6.33.79-6.33l-6.28-14,2.61.17-.77-3.22,1.92,1L47.76,11l3.58,6.64,1.73-4.37.63,5.15,2.23-1.74L53,32.81S54.83,39.14,51.38,40.41Z"/><path class="cls-2" d="M46.4,42.12a13.46,13.46,0,0,1-2.22-.2,1.23,1.23,0,0,1-.88-.64c-.75-1.33.49-4.91,1-6.36L38.18,21.16a.69.69,0,0,1,.06-.68.71.71,0,0,1,.62-.3l1.66.1L40,18a.72.72,0,0,1,.25-.71.68.68,0,0,1,.75-.06l1.37.71,4.84-7.29a.65.65,0,0,1,.61-.31.71.71,0,0,1,.58.36L51.24,16l1.18-3a.68.68,0,0,1,.73-.44.7.7,0,0,1,.61.61l.48,3.92,1.26-1a.69.69,0,0,1,.79-.05.71.71,0,0,1,.32.72l-2.89,16c.28,1.08,1.62,6.92-2.1,8.29A14.86,14.86,0,0,1,46.4,42.12Zm-1.91-1.56a11.77,11.77,0,0,0,6.65-.8c2.76-1,1.21-6.7,1.2-6.75a.7.7,0,0,1,0-.32l2.6-14.33-.79.62a.7.7,0,0,1-.7.09.69.69,0,0,1-.42-.56l-.3-2.43L52,17.91a.71.71,0,0,1-.61.44.69.69,0,0,1-.65-.37l-3-5.62-4.55,6.85a.68.68,0,0,1-.9.23l-.57-.29.42,1.72a.71.71,0,0,1-.15.61.68.68,0,0,1-.58.25l-1.45-.09,5.81,13a.72.72,0,0,1,0,.54C44.82,37.48,44.25,40,44.49,40.56Z"/><path class="cls-1" d="M31.47,48.63s8.23-3.52,11.59-5a12.51,12.51,0,0,0,5.66-4.35c1-1.3,5.46-8.08,5.46-8.08l-2.28.25.1-3.63L49.88,30l-.29-2.45-1.82,1.83-.89-3.58L46,39,42.49,24.06,40.73,26,39,23.14l-.68,2.06-9.16-2,2,7.27L27,28.52l3.12,4.14L27.28,33,44,40.66,34,39.58l1,1.62-2.39.62.77,1.41L31.6,44.42l2,.27Z"/><path class="cls-2" d="M31.47,49.33A.68.68,0,0,1,31,49.1a.7.7,0,0,1-.1-.8l1.68-3-1-.14a.7.7,0,0,1-.3-1.27L32.43,43,32,42.15a.7.7,0,0,1,.44-1l1.48-.38-.49-.82a.7.7,0,0,1,.67-1l5.77.62L27,33.58a.69.69,0,0,1,.21-1.32l1.59-.17-2.38-3.15a.71.71,0,0,1,0-.86.7.7,0,0,1,.83-.2l2.92,1.33-1.64-5.83a.7.7,0,0,1,.17-.66.66.66,0,0,1,.65-.2l8.55,1.87.48-1.46a.72.72,0,0,1,.59-.48.69.69,0,0,1,.67.34l1.21,2L42,23.59a.7.7,0,0,1,1.19.31l2.47,10.38.56-8.55a.7.7,0,0,1,.63-.65.71.71,0,0,1,.74.53L48.15,28l.94-.95a.71.71,0,0,1,.72-.17.69.69,0,0,1,.47.58l.12,1,1.11-1.13a.69.69,0,0,1,.76-.15.68.68,0,0,1,.43.66l-.08,2.83,1.49-.16a.68.68,0,0,1,.67.33.7.7,0,0,1,0,.75c-.18.27-4.53,6.8-5.48,8.1a13.13,13.13,0,0,1-5.94,4.57c-3.33,1.47-11.51,5-11.59,5A.67.67,0,0,1,31.47,49.33Zm2-5.36.23,0a.68.68,0,0,1,.53.38.69.69,0,0,1,0,.64L33.06,47.2C35.69,46.07,40.44,44,42.78,43a11.78,11.78,0,0,0,5.38-4.12c.68-.94,3.27-4.8,4.62-6.82l-.8.09a.66.66,0,0,1-.55-.18.67.67,0,0,1-.22-.53l0-1.86-.88.9a.7.7,0,0,1-1.19-.41l-.12-1-.81.82a.69.69,0,0,1-.95,0l-.6,9.1a.7.7,0,0,1-1.37.12L42.11,25.5l-.87,1a.7.7,0,0,1-.58.22.69.69,0,0,1-.53-.34l-.91-1.53-.2.61a.69.69,0,0,1-.81.46l-8-1.76,1.72,6.15a.7.7,0,0,1-.21.72.71.71,0,0,1-.74.1l-1.79-.81,1.47,2a.67.67,0,0,1,.09.69.72.72,0,0,1-.57.42l-.3,0L44.27,40a.69.69,0,0,1,.38.81.7.7,0,0,1-.75.51l-8.6-.93.25.42a.65.65,0,0,1,.05.62.67.67,0,0,1-.47.41l-1.52.4.34.63a.7.7,0,0,1-.22.91Z"/><path class="cls-1" d="M75.26,41.55s-7.62,3.26-10.76,4.56A10.71,10.71,0,0,1,58,47c-1.49-.26-8.93-1.9-8.93-1.9l1.63-1.42-2.51-2.51,2.8.05L49.5,39.27l2.4,0L50,36.13l9.42,8.73-7.77-13,2.42.14-.85-3.19,1.83,1,4.48-7.84,3.59,6.58,1.42-4.37.8,5.12,2-1.75L61.92,44.65l5.64-7.76L68,38.72,70,37.48,70.43,39l1.9-.37-1.11,1.61Z"/><path class="cls-2" d="M59.83,47.87a11,11,0,0,1-2-.19c-1.49-.26-8.65-1.85-9-1.91a.71.71,0,0,1-.31-1.21l1.07-.93-2-2a.68.68,0,0,1-.15-.76.65.65,0,0,1,.65-.42l1.38,0-.61-.81a.71.71,0,0,1-.06-.73.66.66,0,0,1,.63-.38h1.16l-1.23-2.1a.7.7,0,0,1,1.08-.86l5.86,5.44-5.29-8.87a.71.71,0,0,1,0-.72.69.69,0,0,1,.64-.33l1.46.08L52.59,29a.69.69,0,0,1,.24-.72.7.7,0,0,1,.76-.07l1.23.66L59,21.58a.64.64,0,0,1,.61-.35.69.69,0,0,1,.6.36L63,26.75l.92-2.83a.7.7,0,0,1,1.35.11l.6,3.86,1-.92a.71.71,0,0,1,.84-.06.7.7,0,0,1,.28.8l-4.15,13L67,36.48a.66.66,0,0,1,.69-.27.69.69,0,0,1,.54.51l.23.9,1.13-.72a.69.69,0,0,1,1,.38l.28.94L72.2,38a.72.72,0,0,1,.72.3.71.71,0,0,1,0,.78l-.58.84,3.14,1a.7.7,0,0,1,.48.63.67.67,0,0,1-.42.67c-.08,0-7.65,3.28-10.76,4.57A12.86,12.86,0,0,1,59.83,47.87ZM50.54,44.7c2.21.49,6.48,1.42,7.55,1.61a10,10,0,0,0,6.14-.84c2.19-.91,6.59-2.78,9-3.82L71,40.93a.68.68,0,0,1-.36-1l.14-.21-.23,0a.7.7,0,0,1-.8-.48l-.2-.66-1.16.74a.7.7,0,0,1-.63.06.72.72,0,0,1-.42-.48l-.1-.39-4.77,6.56a.71.71,0,0,1-.88.21.69.69,0,0,1-.34-.83l4.68-14.76-.1.1a.74.74,0,0,1-.7.13.71.71,0,0,1-.45-.55l-.35-2.24-.52,1.6a.69.69,0,0,1-1.27.12l-3-5.49L55.69,30.1a.7.7,0,0,1-.94.27l-.4-.22.43,1.64a.69.69,0,0,1-.13.62.77.77,0,0,1-.58.26L53,32.6l7.1,11.9a.7.7,0,0,1-.16.9.69.69,0,0,1-.91,0l-6.41-5.94a.76.76,0,0,1-.08.21.7.7,0,0,1-.6.35h-1l.61.81a.68.68,0,0,1,.06.74.73.73,0,0,1-.63.38l-1.08,0,1.29,1.28a.72.72,0,0,1,.2.52.67.67,0,0,1-.24.5Z"/><path class="cls-1" d="M85,43.78s-8.27.33-11.67.42a10.68,10.68,0,0,1-6.42-1.5c-1.3-.77-7.66-5-7.66-5l2-.75-1.45-3.24,2.61,1-.68-2.34,2.23.88-.6-3.62L69.1,41.24,66.48,26.3l2.21,1L69,24l1.35,1.57,7-5.72,1,7.43,2.89-3.58-1.08,5.07,2.48-.94L71.47,41.92l8-5.24-.21,1.88,2.25-.47-.12,1.61,1.91.33-1.61,1.11Z"/><path class="cls-2" d="M72.83,44.91a11.18,11.18,0,0,1-6.25-1.61c-1.29-.77-7.42-4.81-7.68-5A.7.7,0,0,1,59,37.08l1.32-.49L59.22,34a.69.69,0,0,1,.13-.77.7.7,0,0,1,.76-.16l1.28.51-.28-1a.7.7,0,0,1,.2-.7.72.72,0,0,1,.73-.14l1.08.43-.4-2.4a.72.72,0,0,1,.47-.78.7.7,0,0,1,.84.36l3.54,7.17L65.79,26.42a.71.71,0,0,1,.26-.67.7.7,0,0,1,.71-.09l1.34.6.25-2.33a.7.7,0,0,1,1.22-.38l.91,1.05,6.45-5.29a.71.71,0,0,1,.7-.11.68.68,0,0,1,.43.55l.79,5.83,1.87-2.32a.7.7,0,0,1,1.23.58l-.82,3.83,1.3-.49a.71.71,0,0,1,.81.24.72.72,0,0,1,0,.85L74.69,39l4.43-2.89a.68.68,0,0,1,.74,0,.68.68,0,0,1,.33.67l-.1.92,1.31-.27a.72.72,0,0,1,.6.16.69.69,0,0,1,.23.57l-.07,1,1.29.23a.68.68,0,0,1,.56.53.72.72,0,0,1-.28.73l-.84.58,2.57,2.05a.69.69,0,0,1,.23.76.7.7,0,0,1-.63.48c-.08,0-8.32.33-11.69.42Zm-12-7c1.9,1.24,5.55,3.64,6.48,4.19a10,10,0,0,0,6,1.41c2.36-.07,7.14-.25,9.79-.35l-1.85-1.47a.7.7,0,0,1-.26-.57.72.72,0,0,1,.3-.55l.21-.14-.23,0a.69.69,0,0,1-.57-.74l0-.69-1.35.28a.71.71,0,0,1-.61-.17.66.66,0,0,1-.22-.59l0-.41L71.85,42.5a.7.7,0,0,1-.9-.11.71.71,0,0,1,0-.91l9.64-12.11-.13.05a.69.69,0,0,1-.7-.13.67.67,0,0,1-.22-.67L80,26.41l-1.06,1.3a.69.69,0,0,1-.72.24.72.72,0,0,1-.51-.58l-.84-6.19-6,4.93a.69.69,0,0,1-1-.09l-.3-.35-.18,1.69a.69.69,0,0,1-.34.53.72.72,0,0,1-.64,0l-1-.45,2.39,13.65a.7.7,0,0,1-1.31.43L64.6,33.71a.8.8,0,0,1-.15.17.71.71,0,0,1-.7.11l-.91-.36.29,1a.69.69,0,0,1-.21.7.68.68,0,0,1-.72.13l-1-.4.75,1.66a.66.66,0,0,1,0,.55.7.7,0,0,1-.4.39Z"/><path class="cls-1" d="M60.78,50.67s-6.73,1.27-9.5,1.75A8.84,8.84,0,0,1,45.84,52C44.69,51.48,39,48.82,39,48.82L40.55,48,39,45.49l2.26.54L40.4,44.2l1.92.46-.92-2.89,6,8.74L43.5,38.6l1.92.54-.1-2.73,1.29,1.12,5-5.52,1.71,6,1.93-3.28L55,39l1.92-1.06L49.46,50.78l5.94-5.25.05,1.56,1.79-.65.09,1.33,1.61,0-1.19,1.1Z"/><path class="cls-2" d="M49.11,53.32a8.69,8.69,0,0,1-3.53-.72c-1.15-.47-6.66-3-6.89-3.15a.7.7,0,0,1-.4-.61.68.68,0,0,1,.36-.63l.91-.5-1.18-1.84a.71.71,0,0,1,0-.78.7.7,0,0,1,.73-.27L40,45l-.25-.54a.69.69,0,0,1,.79-1l.74.17L40.73,42A.7.7,0,0,1,42,41.37l3.28,4.75-2.42-7.31a.7.7,0,0,1,.16-.7.71.71,0,0,1,.69-.18l1,.28-.07-1.77a.7.7,0,0,1,1.15-.56l.78.68,4.57-5a.7.7,0,0,1,1.19.28l1.27,4.4,1.1-1.88a.7.7,0,0,1,.81-.31.68.68,0,0,1,.49.71l-.19,3,.81-.45a.69.69,0,0,1,.93,1l-5.31,9.15L54.94,45a.71.71,0,0,1,.74-.11.69.69,0,0,1,.42.61v.6l.89-.32a.72.72,0,0,1,.62.07.69.69,0,0,1,.31.54l0,.7,1,0a.7.7,0,0,1,.45,1.21l-.5.46,2.22,1.29a.7.7,0,0,1-.22,1.29s-6.74,1.26-9.51,1.75A13.4,13.4,0,0,1,49.11,53.32Zm-8.59-4.55c1.75.81,4.8,2.22,5.59,2.55a8.16,8.16,0,0,0,5,.42l7.65-1.41-1.41-.82a.68.68,0,0,1-.17-1,.7.7,0,0,1-.59-.64l0-.41-.92.33a.67.67,0,0,1-.63-.08.71.71,0,0,1-.31-.55V47L49.92,51.3a.71.71,0,0,1-.91,0,.69.69,0,0,1-.16-.88l6.26-10.77a.71.71,0,0,1-.47-.1.69.69,0,0,1-.32-.64l.08-1.36-.45.76a.69.69,0,0,1-1.26-.16L51.31,33.4,47.12,38a.7.7,0,0,1-1,.06L46.07,38l0,1.12a.69.69,0,0,1-.88.7l-.67-.19L48.1,50.29a.7.7,0,0,1-1.24.61l-4-5.8,0,0a.67.67,0,0,1-.66.2l-.56-.13.25.55a.69.69,0,0,1-.79,1l-.59-.14.65,1a.67.67,0,0,1,.09.55.7.7,0,0,1-.34.43Z"/></svg>