<svg id="Ebene_1" data-name="Ebene 1" xmlns="http://www.w3.org/2000/svg" viewBox="0 0 144 144"><defs><style>.cls-1{fill:#bfe54a;}.cls-2{fill:#1d1d1b;}.cls-3{fill:#9fb737;}.cls-4{fill:#fff;}</style></defs><title>opencelery</title><path class="cls-1" d="M56.17,65.65c3.28,13.5,3.1,28.47,1.74,48-1,13.63,6.45,19.4,15.92,19.4,10.19,0,20.39-11.81,14.21-31.94-5.9-19.2,5.68-45.6,5.68-45.6l-5-.65L84.83,65.74V56.91L81.14,57a60.81,60.81,0,0,1-.9,21.91c-2.68,12.29-2.79,17-2.79,17s-2.89-2.8-2.51-12,5-23.81,5-23.81L71.3,58.92s-3.42,33.57-5.13,33.5c-.77,0-1.46-6.24-1-12.32A103.74,103.74,0,0,0,65.27,66Z"/><path class="cls-2" d="M73.83,134c-5.23,0-9.57-1.68-12.53-4.86-3.35-3.59-4.81-8.82-4.34-15.55,1.36-19.54,1.55-34.35-1.71-47.76a1,1,0,0,1,.18-.82.92.92,0,0,1,.77-.35l9.1.32a.94.94,0,0,1,.91.89,103.54,103.54,0,0,1-.07,14.26,48,48,0,0,0,.14,9.4c1.15-5.21,2.84-18.57,4.08-30.75A.95.95,0,0,1,71.44,58L80,59.21a.92.92,0,0,1,.45.2c-.14-1.4-.28-2.19-.28-2.22a1,1,0,0,1,.9-1.12L84.8,56a1,1,0,0,1,.69.27,1,1,0,0,1,.28.68v3.41l2.08-5.74a.94.94,0,0,1,1-.62l5,.65a1,1,0,0,1,.71.47,1,1,0,0,1,0,.85c-.12.26-11.37,26.3-5.64,44.94,4.36,14.21.36,22.63-2.41,26.38A15.86,15.86,0,0,1,73.83,134ZM57.37,66.64c3,13.32,2.81,28,1.48,47.12-.43,6.19.86,10.94,3.83,14.13,2.6,2.79,6.45,4.26,11.15,4.26a14,14,0,0,0,11.19-6c2.56-3.46,6.24-11.28,2.12-24.69-5.3-17.26,3-39.72,5.23-45.1l-3-.39L85.72,66.06a.95.95,0,0,1-1.84-.32V57.88l-1.64.06a63.73,63.73,0,0,1-1.07,21.19c-2.62,12-2.77,16.76-2.77,16.81a1,1,0,0,1-1.61.66c-.13-.13-3.19-3.2-2.79-12.68.32-7.86,3.62-19.43,4.68-23L72.14,60c-3.44,33.47-5,33.43-6,33.36A1.19,1.19,0,0,1,65.3,93c-1.09-1.24-1.46-7.85-1-12.93a101.47,101.47,0,0,0,.12-13.14ZM80.63,61c-.85,2.82-4.41,15.06-4.74,23a24.48,24.48,0,0,0,.92,8.63c.33-2.68,1-7.15,2.51-13.9A63.83,63.83,0,0,0,80.63,61Z"/><path class="cls-3" d="M82.05,56.61c-4.86,1.14-5.55-6.09-7.65-6.73s4.14-6,4.14-6l-8.38-19,3.49.65-.51-4.46,2.43,1.67,8.28-9.69,3.74,9.55,3-5.61v7l3.29-2-11.78,22S86.91,55.46,82.05,56.61Z"/><path class="cls-2" d="M81,57.68c-3,0-4.45-2.83-5.47-4.78-.45-.84-1-2-1.43-2.11a1.5,1.5,0,0,1-1.08-1.12c-.31-1.5,2.07-4,4.34-6L69.3,25.27a.94.94,0,0,1,1-1.31l2.22.41-.36-3.19a.94.94,0,0,1,1.48-.88l1.73,1.19,7.72-9a.92.92,0,0,1,.88-.32,1,1,0,0,1,.72.59l3,7.65,2.07-3.82a1,1,0,0,1,1.07-.47.94.94,0,0,1,.71.92v5.37l1.85-1.12a.95.95,0,0,1,1.33,1.26L83.2,44.15c.72,1.84,3.06,8.29,1.4,11.54a3.44,3.44,0,0,1-2.33,1.84A5.59,5.59,0,0,1,81,57.68ZM75,49.1c1,.47,1.55,1.62,2.23,2.92,1.34,2.56,2.39,4.19,4.6,3.66a1.48,1.48,0,0,0,1.08-.85c1.22-2.39-.76-8.29-1.63-10.37a.92.92,0,0,1,0-.81l10.16-19-.35.21a1,1,0,0,1-.95,0,.94.94,0,0,1-.48-.82V20.72l-1.27,2.34a.9.9,0,0,1-.89.49.92.92,0,0,1-.82-.6l-3.17-8.07-7.25,8.48a1,1,0,0,1-1.26.17L74.32,23l.27,2.39a.92.92,0,0,1-.29.8,1,1,0,0,1-.82.24l-1.73-.32,7.66,17.38a1,1,0,0,1-.26,1.1A20.65,20.65,0,0,0,75,49.1Z"/><path class="cls-3" d="M65.71,50.79c-4.69,1.73-7.47,1.49-9.63,1.11s1.08-8.59,1.08-8.59L48.63,24.24l3.54.22-1-4.36,2.61,1.36,7-10.61,4.87,9L68,13.93l.87,7,3-2.37-4,21.92S70.4,49.07,65.71,50.79Z"/><path class="cls-2" d="M58.94,53.12a17.25,17.25,0,0,1-3-.28,1.71,1.71,0,0,1-1.2-.86c-1-1.82.66-6.68,1.41-8.65l-8.36-18.7a.94.94,0,0,1,.08-.93,1,1,0,0,1,.84-.4l2.26.14-.75-3.12a1,1,0,0,1,.34-1,1,1,0,0,1,1-.09l1.86,1L60,10.32a1,1,0,0,1,1.63.08l3.9,7.22,1.59-4a1,1,0,0,1,1-.59.93.93,0,0,1,.82.82l.66,5.33,1.71-1.33a.94.94,0,0,1,1.51.91L68.88,40.43c.39,1.46,2.21,9.39-2.84,11.25A20.3,20.3,0,0,1,58.94,53.12ZM56.34,51c2,.34,4.61.55,9-1.08h0c3.75-1.38,1.64-9.1,1.62-9.18a.9.9,0,0,1,0-.43l3.53-19.47-1.07.84A.95.95,0,0,1,67.92,21l-.41-3.3-1,2.47a.95.95,0,0,1-1.71.11L60.7,12.68,54.53,22a1,1,0,0,1-1.23.31l-.77-.4.56,2.34a.93.93,0,0,1-.2.83,1,1,0,0,1-.78.34l-2-.12L58,42.92a1,1,0,0,1,0,.74C56.8,46.8,56,50.21,56.34,51Z"/><path class="cls-1" d="M38.66,62s11.17-4.78,15.74-6.8,6.4-4.13,7.69-5.9,7.43-11,7.43-11l-3.11.33.14-4.93-2.88,2.94-.4-3.33L60.8,35.78l-1.21-4.87L58.42,48.8l-4.8-20.23-2.39,2.62-2.29-3.86L48,30.13,35.57,27.4l2.78,9.87-5.82-2.64,4.25,5.62L33,40.66,55.64,51.13,42.07,49.66l1.32,2.2-3.24.84,1,1.92-2.36,1.61,2.77.37Z"/><path class="cls-2" d="M38.66,62.91a1,1,0,0,1-.7-.31.92.92,0,0,1-.13-1.09l2.27-4.15-1.39-.19a.94.94,0,0,1-.8-.72,1,1,0,0,1,.39-1L40,54.32l-.64-1.17a1,1,0,0,1,.6-1.37l2-.52-.67-1.11a1,1,0,0,1,0-1,.94.94,0,0,1,.9-.43l7.83.84L32.56,41.51a.93.93,0,0,1-.54-1,1,1,0,0,1,.84-.79L35,39.49,31.78,35.2a.94.94,0,0,1,1.14-1.43l4,1.79-2.22-7.91a.95.95,0,0,1,1.11-1.18L47.39,29,48,27a1,1,0,0,1,1.72-.18l1.63,2.76,1.53-1.67a1,1,0,0,1,.94-.28.93.93,0,0,1,.68.7l3.35,14.09.76-11.6a.94.94,0,0,1,1.86-.17l.8,3.24,1.29-1.3a.94.94,0,0,1,1.61.56l.16,1.37L65.88,33a.94.94,0,0,1,1-.21,1,1,0,0,1,.58.9l-.11,3.84,2-.22a.95.95,0,0,1,.89,1.47c-.25.38-6.15,9.24-7.44,11-1.48,2-3.48,4.18-8.08,6.21S39.14,62.78,39,62.83A1,1,0,0,1,38.66,62.91Zm2.75-7.29.31.05a.95.95,0,0,1,.71,1.39L40.81,60c3.57-1.54,10-4.31,13.21-5.72,4.39-1.94,6.07-3.9,7.31-5.59.93-1.28,4.44-6.52,6.27-9.26l-1.08.11a.9.9,0,0,1-.75-.24.94.94,0,0,1-.3-.72l.07-2.52-1.19,1.21a1,1,0,0,1-1.62-.55l-.17-1.38-1.09,1.1a.92.92,0,0,1-.92.24.82.82,0,0,1-.37-.19l-.82,12.36A.94.94,0,0,1,57.5,49L53.11,30.54l-1.18,1.29a.94.94,0,0,1-1.51-.15L49.19,29.6l-.27.82a1,1,0,0,1-1.11.63l-10.9-2.39L39.26,37A1,1,0,0,1,38,38.13L35.53,37l2,2.65a.95.95,0,0,1-.65,1.51l-.41.05,19.57,9a1,1,0,0,1,.52,1.11,1,1,0,0,1-1,.69L43.87,50.81l.33.56a1,1,0,0,1,.07.85.93.93,0,0,1-.64.55l-2.07.54.46.86a.93.93,0,0,1-.29,1.23Z"/><path class="cls-1" d="M98.15,52.34s-10.35,4.43-14.62,6.2-6.86,1.55-8.87,1.19-12.13-2.59-12.13-2.59l2.2-1.93-3.41-3.4,3.82.07-2-2.65,3.25,0L63.89,45l12.8,11.87L66.12,39.14l3.29.18L68.26,35l2.48,1.34,6.09-10.65,4.88,8.94,1.93-5.94,1.08,7,2.71-2.39L80,56.55,87.69,46l.63,2.48L91,46.81l.63,2.1,2.59-.51-1.52,2.2Z"/><path class="cls-2" d="M77.19,60.92a15.9,15.9,0,0,1-2.7-.25c-2-.36-11.75-2.51-12.16-2.6a1,1,0,0,1-.72-.69,1,1,0,0,1,.3-1l1.44-1.26-2.69-2.69a.94.94,0,0,1-.21-1,.93.93,0,0,1,.89-.58l1.88,0-.83-1.1a.93.93,0,0,1-.08-1,.94.94,0,0,1,.84-.52h0l1.58,0-1.67-2.86a.94.94,0,0,1,1.46-1.17l8,7.38-7.19-12a.94.94,0,0,1,0-1,1,1,0,0,1,.87-.46l2,.11-.81-3.08a.94.94,0,0,1,1.36-1.07l1.67.9L76,25.2a1,1,0,0,1,.83-.48.94.94,0,0,1,.82.5l3.83,7,1.25-3.85a1,1,0,0,1,1-.65.93.93,0,0,1,.86.8l.82,5.25,1.41-1.25a.95.95,0,0,1,1.53,1L82.7,51.26l4.22-5.81a.93.93,0,0,1,.94-.37,1,1,0,0,1,.74.69L88.92,47l1.53-1a1,1,0,0,1,1.42.53l.38,1.28L94,47.47a1,1,0,0,1,1,1.47l-.79,1.14,4.26,1.36a.95.95,0,0,1,.09,1.77c-.1,0-10.4,4.45-14.63,6.2A17.26,17.26,0,0,1,77.19,60.92Zm-12.63-4.3c3,.66,8.8,1.93,10.26,2.18,1.9.33,4.27.55,8.35-1.14,3-1.23,9-3.77,12.26-5.19l-3.05-1a1,1,0,0,1-.5-1.44l.2-.28-.31.06a1,1,0,0,1-1.09-.66l-.27-.9-1.58,1a1,1,0,0,1-.85.08.92.92,0,0,1-.57-.64l-.14-.54L80.79,57.1a.95.95,0,0,1-1.67-.84l6.37-20-.14.12a.94.94,0,0,1-1.56-.57l-.48-3-.7,2.16a.95.95,0,0,1-1.73.16l-4.07-7.45-5.25,9.18a1,1,0,0,1-1.27.36l-.55-.3.59,2.23a1,1,0,0,1-1,1.19l-1.51-.09L77.5,56.35a.94.94,0,0,1-1.45,1.18l-8.72-8.07a.79.79,0,0,1-.11.29.88.88,0,0,1-.83.47l-1.32,0,.83,1.11a.95.95,0,0,1-.76,1.51h0l-1.47,0,1.75,1.74a.93.93,0,0,1,.28.7,1,1,0,0,1-.32.68Z"/><path class="cls-1" d="M111.43,55.37s-11.25.45-15.87.57-7-1-8.72-2-10.4-6.75-10.4-6.75l2.75-1-2-4.4,3.54,1.42L79.84,40l3,1.19-.82-4.91,7.73,15.65L86.22,31.61l3,1.35.48-4.47,1.84,2.13L101,22.85l1.37,10.09,3.92-4.86L104.84,35l3.38-1.27L93,52.84l10.91-7.12-.29,2.55,3.06-.63-.16,2.19,2.6.44-2.19,1.52Z"/><path class="cls-2" d="M94.86,56.9a15.13,15.13,0,0,1-8.5-2.19c-1.76-1.05-10.09-6.53-10.44-6.77a.93.93,0,0,1-.42-.89.94.94,0,0,1,.61-.78l1.8-.67-1.56-3.47a.93.93,0,0,1,.18-1,1,1,0,0,1,1-.23l1.74.7-.38-1.31a.95.95,0,0,1,1.26-1.14l1.47.58-.55-3.27a1,1,0,0,1,1.79-.57l4.81,9.73-2.43-13.8a.95.95,0,0,1,1.32-1l1.82.81.34-3.17a.95.95,0,0,1,1.66-.51l1.23,1.43,8.77-7.19a.94.94,0,0,1,1-.15.92.92,0,0,1,.59.75L103,30.64l2.53-3.15a1,1,0,0,1,1.67.79l-1.11,5.19,1.76-.66a1,1,0,0,1,1.1.33,1,1,0,0,1,0,1.15L97.38,48.85l6-3.92a1,1,0,0,1,1,0,1,1,0,0,1,.44.92l-.14,1.25,1.78-.37a1,1,0,0,1,1.14,1l-.1,1.33,1.75.3a1,1,0,0,1,.77.73.93.93,0,0,1-.39,1l-1.14.79,3.5,2.79a.94.94,0,0,1-.55,1.68c-.12,0-11.31.46-15.88.58ZM78.52,47.39c2.58,1.69,7.54,4.94,8.81,5.69,1.66,1,3.8,2,8.21,1.92,3.21-.09,9.7-.34,13.3-.48l-2.5-2a1,1,0,0,1-.36-.78.93.93,0,0,1,.41-.74l.28-.2-.31-.05a.94.94,0,0,1-.78-1l.07-.94-1.84.38a.95.95,0,0,1-1.13-1l.06-.55-9.23,6a.94.94,0,0,1-1.25-1.38l13.09-16.46-.17.07a1,1,0,0,1-1-.17,1,1,0,0,1-.31-.92l.64-3-1.43,1.77a1,1,0,0,1-1,.32,1,1,0,0,1-.68-.79l-1.15-8.41-8.17,6.7a1,1,0,0,1-1.32-.12l-.41-.47-.25,2.29a.94.94,0,0,1-1.33.76l-1.37-.61,3.25,18.54a.95.95,0,0,1-1.78.59L83.67,41.68a1.21,1.21,0,0,1-.21.24.94.94,0,0,1-.94.14l-1.24-.48.38,1.32a1,1,0,0,1-.27,1,.94.94,0,0,1-1,.17L79,43.5l1,2.25a.93.93,0,0,1,0,.75,1,1,0,0,1-.54.52Z"/><path class="cls-1" d="M79.74,66s-9.15,1.72-12.91,2.38a12,12,0,0,1-7.39-.63c-1.56-.64-9.32-4.26-9.32-4.26l2.13-1.17L50.1,59l3.07.73L52,57.2l2.62.62L53.4,53.9l8.21,11.87L56.25,49.58l2.62.74-.14-3.71,1.76,1.53,6.82-7.51,2.34,8.1,2.62-4.45-.37,5.81,2.61-1.44L64.35,66.13,72.43,59l.07,2.12,2.42-.88.14,1.81,2.18.05-1.62,1.5Z"/><path class="cls-2" d="M63.88,69.59a12,12,0,0,1-4.8-1c-1.57-.65-9-4.14-9.36-4.29a1,1,0,0,1-.55-.82,1,1,0,0,1,.49-.86L50.9,62l-1.59-2.51a1,1,0,0,1,0-1.06,1,1,0,0,1,1-.37l1.19.29-.33-.73a.94.94,0,0,1,.13-1,1,1,0,0,1,.95-.32l1,.23-.75-2.32a.95.95,0,0,1,1.68-.83l4.46,6.44-3.29-9.92a1,1,0,0,1,.22-1,1,1,0,0,1,.94-.26l1.36.39-.09-2.41a.95.95,0,0,1,1.57-.75l1.06.92L66.61,40a1,1,0,0,1,.92-.29.94.94,0,0,1,.69.66l1.73,6,1.5-2.55a1,1,0,0,1,1.1-.43.94.94,0,0,1,.66,1L73,48.43l1.1-.61a.94.94,0,0,1,1.14.17,1,1,0,0,1,.14,1.13L68.11,61.55l3.69-3.26a1,1,0,0,1,1-.16.94.94,0,0,1,.57.84l0,.81,1.2-.43a.93.93,0,0,1,.84.09.94.94,0,0,1,.43.73l.07.95,1.32,0a.95.95,0,0,1,.62,1.64l-.68.64,3,1.74a.95.95,0,0,1-.3,1.75S70.76,68.64,67,69.3A17.62,17.62,0,0,1,63.88,69.59ZM52.22,63.41c2.37,1.1,6.51,3,7.59,3.46a11.08,11.08,0,0,0,6.85.57c2.51-.44,7.41-1.35,10.4-1.91l-1.91-1.11A.94.94,0,0,1,74.91,63a1,1,0,0,1-.8-.87l0-.55L72.82,62A.92.92,0,0,1,72,61.9a1,1,0,0,1-.42-.75V61L65,66.85a1,1,0,0,1-1.23,0,1,1,0,0,1-.22-1.21L72,51A1,1,0,0,1,71,50l.12-1.85-.61,1a1,1,0,0,1-.93.46,1,1,0,0,1-.79-.68l-1.87-6.47-5.69,6.25a.94.94,0,0,1-1.32.08l-.1-.09.06,1.53a1,1,0,0,1-.36.78.92.92,0,0,1-.84.16L57.71,51l4.8,14.49A1,1,0,0,1,62,66.62a.94.94,0,0,1-1.2-.31l-5.45-7.88,0,0a1,1,0,0,1-.91.28l-.75-.18.33.74A.94.94,0,0,1,53,60.61l-.79-.19L53,61.8a.9.9,0,0,1,.12.75.91.91,0,0,1-.46.59Z"/><ellipse class="cls-4" cx="66.97" cy="108.48" rx="4.07" ry="5.19"/><path class="cls-2" d="M67,114.31c-2.59,0-4.69-2.62-4.69-5.83s2.1-5.82,4.69-5.82,4.7,2.61,4.7,5.82S69.56,114.31,67,114.31Zm0-10.39c-1.89,0-3.43,2-3.43,4.56S65.08,113,67,113s3.44-2,3.44-4.56S68.87,103.92,67,103.92Z"/><ellipse class="cls-4" cx="81.18" cy="108.48" rx="4.07" ry="5.19"/><path class="cls-2" d="M81.18,114.31c-2.59,0-4.69-2.62-4.69-5.83s2.1-5.82,4.69-5.82,4.7,2.61,4.7,5.82S83.77,114.31,81.18,114.31Zm0-10.39c-1.89,0-3.43,2-3.43,4.56S79.29,113,81.18,113s3.44-2,3.44-4.56S83.08,103.92,81.18,103.92Z"/><path class="cls-2" d="M84.78,101.32a.6.6,0,0,1-.52-.28,3.7,3.7,0,0,0-3.08-1.41,3.83,3.83,0,0,0-2.91,1.19.62.62,0,0,1-.89.07.64.64,0,0,1-.07-.89,5.12,5.12,0,0,1,3.87-1.64,5,5,0,0,1,4.13,2,.64.64,0,0,1-.17.88A.68.68,0,0,1,84.78,101.32Z"/><path class="cls-2" d="M61.3,103.25a.78.78,0,0,1-.22,0,.63.63,0,0,1-.38-.81,6.24,6.24,0,0,1,3.73-3.53,6.06,6.06,0,0,1,5.57.49.63.63,0,1,1-.73,1,4.8,4.8,0,0,0-4.39-.34,5,5,0,0,0-3,2.78A.63.63,0,0,1,61.3,103.25Z"/><ellipse class="cls-2" cx="80.6" cy="107.84" rx="1.85" ry="2.37"/><ellipse class="cls-2" cx="67.63" cy="107.84" rx="1.85" ry="2.37"/><path class="cls-4" d="M82.79,117.09a17.72,17.72,0,0,1-6.42,2.72,19,19,0,0,1-6.59-.85c2,4.48,4,7.62,7.51,7.09C80.35,125.59,82.79,122.08,82.79,117.09Z"/><path class="cls-2" d="M76.54,126.74c-3.66,0-5.7-3.85-7.34-7.53a.63.63,0,0,1,.1-.67.65.65,0,0,1,.67-.19,18.16,18.16,0,0,0,6.32.83,16.91,16.91,0,0,0,6.14-2.61.63.63,0,0,1,1,.52c0,5.1-2.48,9-6,9.59A6.15,6.15,0,0,1,76.54,126.74Zm-5.63-6.82c1.8,3.75,3.56,5.93,6.28,5.51s4.58-3.33,4.91-7.16a16.38,16.38,0,0,1-5.65,2.17A17.19,17.19,0,0,1,70.91,119.92Z"/><ellipse class="cls-2" cx="72.34" cy="115.61" rx="0.92" ry="0.59" transform="matrix(0.99, -0.13, 0.13, 0.99, -13.92, 9.98)"/><ellipse class="cls-2" cx="74.9" cy="115.29" rx="0.92" ry="0.59" transform="translate(-13.86 10.3) rotate(-7.2)"/></svg>