<svg id="Ebene_1" data-name="Ebene 1" xmlns="http://www.w3.org/2000/svg" viewBox="0 0 120 120"><defs><style>.cls-1{fill:#bfe54a;}.cls-2{fill:#1d1d1b;}.cls-3{fill:#9fb737;}.cls-4{fill:#fff;}</style></defs><title>opencelery</title><path class="cls-1" d="M47.25,54.9c2.65,10.89,2.5,23,1.4,38.74-.76,11,5.21,15.64,12.84,15.64,8.22,0,16.44-9.53,11.46-25.76C68.19,68,77.53,46.76,77.53,46.76l-4-.52L70.36,55V47.86l-3,.09a49.16,49.16,0,0,1-.72,17.66c-2.16,9.91-2.25,13.7-2.25,13.7s-2.33-2.26-2-9.65,4-19.19,4-19.19l-6.94-1s-2.76,27.07-4.13,27c-.62,0-1.18-5-.79-9.93a84.87,84.87,0,0,0,.06-11.39Z"/><path class="cls-2" d="M61.49,110c-4.22,0-7.71-1.35-10.1-3.92-2.7-2.89-3.88-7.11-3.5-12.53C49,77.83,49.14,65.9,46.51,55.08a.75.75,0,0,1,.15-.66.74.74,0,0,1,.62-.28l7.33.25a.77.77,0,0,1,.74.72,84.11,84.11,0,0,1-.06,11.5,38.58,38.58,0,0,0,.11,7.58c.93-4.2,2.29-15,3.29-24.79a.78.78,0,0,1,.29-.52.76.76,0,0,1,.58-.16l6.94,1a.68.68,0,0,1,.36.15c-.11-1.12-.22-1.76-.23-1.78a.78.78,0,0,1,.73-.91l3-.08a.81.81,0,0,1,.56.21.75.75,0,0,1,.23.55v2.75L72.79,46a.76.76,0,0,1,.82-.5l4,.52a.8.8,0,0,1,.56.39.78.78,0,0,1,0,.68c-.1.21-9.17,21.2-4.55,36.23,3.52,11.46.29,18.24-1.94,21.26A12.78,12.78,0,0,1,61.49,110ZM48.22,55.7c2.44,10.74,2.27,22.56,1.19,38-.34,5,.7,8.82,3.09,11.39,2.1,2.25,5.21,3.44,9,3.44a11.32,11.32,0,0,0,9-4.86c2.06-2.8,5-9.09,1.71-19.91-4.27-13.91,2.46-32,4.22-36.36L74,47.07l-3,8.17A.76.76,0,0,1,69.59,55V48.64l-1.32,0a51.33,51.33,0,0,1-.86,17.08c-2.12,9.69-2.24,13.52-2.24,13.55a.76.76,0,0,1-1.29.53c-.11-.1-2.57-2.57-2.25-10.22C61.89,63.3,64.54,54,65.4,51.1l-5.27-.75c-2.77,27-4.06,26.95-4.85,26.9a.91.91,0,0,1-.66-.34c-.89-1-1.18-6.32-.85-10.42a80.33,80.33,0,0,0,.09-10.59ZM67,51.18c-.68,2.27-3.55,12.15-3.82,18.52a20.13,20.13,0,0,0,.74,7c.27-2.16.84-5.77,2-11.21A51.23,51.23,0,0,0,67,51.18Z"/><path class="cls-3" d="M68.12,47.62c-3.92.92-4.47-4.92-6.17-5.43s3.34-4.81,3.34-4.81L58.54,22.05l2.81.52L60.94,19l2,1.35,6.68-7.81,3,7.7L75,15.68v5.68l2.65-1.6L68.2,37.53S72,46.69,68.12,47.62Z"/><path class="cls-2" d="M67.3,48.48c-2.4,0-3.59-2.28-4.42-3.85C62.53,44,62,43,61.73,42.92a1.16,1.16,0,0,1-.86-.9c-.26-1.21,1.66-3.23,3.49-4.85L57.84,22.35a.74.74,0,0,1,.1-.78.77.77,0,0,1,.74-.28l1.79.34-.29-2.57a.77.77,0,0,1,.36-.74.76.76,0,0,1,.83,0l1.39,1L69,12a.73.73,0,0,1,.71-.25.75.75,0,0,1,.58.47L72.7,18.4l1.67-3.08a.77.77,0,0,1,.86-.38.76.76,0,0,1,.57.74V20l1.49-.9a.75.75,0,0,1,.92.1.76.76,0,0,1,.15.91L69,37.57c.59,1.49,2.47,6.69,1.13,9.31a2.76,2.76,0,0,1-1.88,1.48A4.45,4.45,0,0,1,67.3,48.48Zm-4.87-6.91a5,5,0,0,1,1.8,2.35c1.08,2.06,1.93,3.38,3.71,2.95a1.2,1.2,0,0,0,.87-.69c1-1.92-.61-6.68-1.31-8.36a.74.74,0,0,1,0-.65l8.19-15.32-.28.17a.78.78,0,0,1-.77,0,.77.77,0,0,1-.39-.67V18.68l-1,1.89a.77.77,0,0,1-1.39-.09L69.32,14l-5.84,6.85a.78.78,0,0,1-1,.13l-.57-.4.21,1.93a.79.79,0,0,1-.23.65.8.8,0,0,1-.66.19l-1.39-.26,6.17,14a.77.77,0,0,1-.21.89A16.68,16.68,0,0,0,62.43,41.57Z"/><path class="cls-3" d="M54.94,42.93a13.72,13.72,0,0,1-7.76.89c-1.74-.3.87-6.93.87-6.93L41.18,21.52,44,21.7l-.84-3.52,2.1,1.1L51,10.72,54.9,18l1.89-4.79.69,5.64,2.44-1.91L56.72,34.6S58.72,41.54,54.94,42.93Z"/><path class="cls-2" d="M49.49,44.8a14.94,14.94,0,0,1-2.44-.22,1.37,1.37,0,0,1-1-.7c-.82-1.46.53-5.38,1.13-7L40.48,21.84a.77.77,0,0,1,.74-1.08l1.83.11-.61-2.51a.78.78,0,0,1,.28-.78.76.76,0,0,1,.82-.08l1.5.79,5.3-8A.75.75,0,0,1,51,10a.73.73,0,0,1,.63.4l3.15,5.83,1.29-3.26a.75.75,0,0,1,.8-.48.76.76,0,0,1,.66.67l.53,4.29,1.38-1.07a.77.77,0,0,1,.87-.06.76.76,0,0,1,.35.79L57.5,34.57c.31,1.18,1.78,7.58-2.29,9.08A16.45,16.45,0,0,1,49.49,44.8Zm-2.1-1.72a12.87,12.87,0,0,0,7.29-.87h0c3-1.11,1.32-7.33,1.31-7.39a.7.7,0,0,1,0-.35l2.84-15.7-.86.68a.74.74,0,0,1-.76.1.78.78,0,0,1-.47-.61l-.32-2.66-.79,2a.78.78,0,0,1-.67.48.75.75,0,0,1-.71-.4L50.91,12.2l-5,7.5a.76.76,0,0,1-1,.26l-.62-.32.45,1.88a.74.74,0,0,1-.16.67.73.73,0,0,1-.63.27l-1.59-.1,6.36,14.22a.76.76,0,0,1,0,.59C47.76,39.71,47.13,42.46,47.39,43.08Z"/><path class="cls-1" d="M33.14,51.93s9-3.86,12.69-5.48A13.72,13.72,0,0,0,52,41.69c1-1.43,6-8.85,6-8.85l-2.5.27.11-4L53.3,31.5,53,28.82l-2,2L50,26.9l-.94,14.42L45.2,25l-1.93,2.11L41.43,24l-.75,2.26-10-2.2,2.23,8L28.2,29.9l3.42,4.53-3.08.32L46.83,43.2,35.89,42,37,43.79l-2.61.67L35.18,46l-1.9,1.3,2.23.3Z"/><path class="cls-2" d="M33.14,52.7a.77.77,0,0,1-.57-.25.76.76,0,0,1-.1-.88l1.83-3.35-1.12-.15a.74.74,0,0,1-.64-.58.76.76,0,0,1,.31-.81l1.33-.91-.51-.94a.72.72,0,0,1,0-.67.76.76,0,0,1,.5-.44l1.63-.42-.54-.89a.75.75,0,0,1,0-.8.72.72,0,0,1,.72-.35l6.31.68L28.22,35.45a.77.77,0,0,1-.43-.82.74.74,0,0,1,.67-.63l1.74-.19-2.61-3.45a.77.77,0,0,1,0-.94.77.77,0,0,1,.91-.22l3.2,1.45-1.8-6.38a.79.79,0,0,1,.18-.73.77.77,0,0,1,.72-.22l9.36,2.06.53-1.61a.78.78,0,0,1,.65-.52.8.8,0,0,1,.74.37l1.31,2.23,1.23-1.35a.77.77,0,0,1,1.31.34l2.7,11.37.61-9.36a.77.77,0,0,1,1.51-.14l.64,2.61,1-1a.75.75,0,0,1,1.29.45l.14,1.1,1.21-1.23a.75.75,0,0,1,.84-.17.78.78,0,0,1,.47.72l-.09,3.1,1.63-.17a.74.74,0,0,1,.74.36.78.78,0,0,1,0,.82c-.2.3-5,7.45-6,8.88a14.57,14.57,0,0,1-6.51,5c-3.65,1.62-12.61,5.46-12.7,5.49A.66.66,0,0,1,33.14,52.7Zm2.21-5.88.26,0a.75.75,0,0,1,.58.41.77.77,0,0,1,0,.71l-1.31,2.38c2.88-1.24,8.09-3.48,10.65-4.61a12.92,12.92,0,0,0,5.89-4.51c.75-1,3.58-5.26,5.06-7.47l-.87.1a.77.77,0,0,1-.61-.2.75.75,0,0,1-.24-.58l.06-2-1,1a.76.76,0,0,1-.79.18.78.78,0,0,1-.51-.63l-.13-1.12-.88.89a.75.75,0,0,1-.75.2.87.87,0,0,1-.3-.16l-.65,10a.76.76,0,0,1-.7.71.78.78,0,0,1-.81-.58L44.79,26.6l-.95,1a.79.79,0,0,1-.65.25.82.82,0,0,1-.58-.37l-1-1.68-.22.67a.76.76,0,0,1-.89.5l-8.79-1.93,1.89,6.74a.77.77,0,0,1-1,.9l-2-.89L32.23,34a.77.77,0,0,1,.09.76.76.76,0,0,1-.62.46l-.32,0L47.15,42.5a.76.76,0,0,1-.4,1.45l-9.42-1,.28.45a.8.8,0,0,1,0,.69.78.78,0,0,1-.52.45L35.47,45l.38.69a.76.76,0,0,1-.24,1Z"/><path class="cls-1" d="M81.1,44.18s-8.34,3.57-11.79,5a11.81,11.81,0,0,1-7.15,1c-1.63-.29-9.78-2.09-9.78-2.09l1.78-1.56-2.75-2.74,3.07,0-1.6-2.13,2.62,0-2-3.46L63.8,47.8,55.28,33.53l2.65.15L57,30.18l2,1.08,4.91-8.59,3.93,7.21,1.56-4.79.87,5.61,2.18-1.92-6,18.79,6.18-8.5.52,2,2.12-1.35.51,1.69L77.89,41l-1.22,1.77Z"/><path class="cls-2" d="M64.2,51.09a12.93,12.93,0,0,1-2.17-.2c-1.63-.29-9.48-2-9.81-2.1a.76.76,0,0,1-.34-1.32l1.16-1-2.17-2.16a.77.77,0,0,1-.16-.84.74.74,0,0,1,.71-.47l1.52,0-.67-.88a.76.76,0,0,1,.61-1.22h1.28l-1.34-2.3a.76.76,0,0,1,.18-1,.75.75,0,0,1,1,0l6.43,6-5.8-9.71a.77.77,0,0,1,0-.79.74.74,0,0,1,.69-.36l1.6.09-.65-2.48a.76.76,0,0,1,1.1-.87l1.34.72,4.54-7.94a.83.83,0,0,1,.67-.38.74.74,0,0,1,.66.4L67.67,28l1-3.1a.79.79,0,0,1,.79-.53.77.77,0,0,1,.69.65l.66,4.23,1.14-1a.75.75,0,0,1,.92-.07.76.76,0,0,1,.31.87L68.64,43.3,72,38.62a.76.76,0,0,1,.76-.3.77.77,0,0,1,.6.56l.25,1,1.24-.78a.78.78,0,0,1,.68-.08.79.79,0,0,1,.46.5l.31,1,1.41-.28a.77.77,0,0,1,.78.33.75.75,0,0,1,0,.85l-.63.93,3.44,1.09a.76.76,0,0,1,.53.69.78.78,0,0,1-.46.74c-.09,0-8.39,3.59-11.8,5A14,14,0,0,1,64.2,51.09ZM54,47.63c2.42.53,7.1,1.55,8.27,1.75A10.93,10.93,0,0,0,69,48.46c2.4-1,7.21-3,9.89-4.18l-2.47-.78A.76.76,0,0,1,76,43a.78.78,0,0,1,.1-.68l.15-.23-.25,0a.77.77,0,0,1-.88-.53l-.21-.72-1.27.81a.77.77,0,0,1-.69.06.75.75,0,0,1-.46-.52l-.11-.43L67.1,48a.78.78,0,0,1-1,.23.77.77,0,0,1-.38-.92l5.13-16.15-.11.1a.77.77,0,0,1-.77.14.74.74,0,0,1-.49-.6l-.38-2.45-.57,1.75a.76.76,0,0,1-1.39.13l-3.28-6-4.24,7.4a.76.76,0,0,1-1,.29l-.45-.24.48,1.79a.77.77,0,0,1-.79,1l-1.21-.07,7.78,13a.76.76,0,0,1-1.17,1l-7-6.51a.59.59,0,0,1-.09.24.69.69,0,0,1-.66.37H54.43l.67.89a.77.77,0,0,1-.62,1.22h0l-1.18,0L54.7,46a.74.74,0,0,1,.22.56.76.76,0,0,1-.26.55Z"/><path class="cls-1" d="M91.8,46.62S82.74,47,79,47.08a11.75,11.75,0,0,1-7-1.65C70.56,44.59,63.59,40,63.59,40l2.22-.82-1.59-3.54,2.85,1.15-.73-2.56,2.44,1-.66-4,6.23,12.61L71.48,27.47l2.42,1.08.38-3.6,1.48,1.72,7.65-6.27,1.11,8.14,3.16-3.92-1.19,5.55,2.73-1L76.94,44.57l8.8-5.73-.23,2,2.47-.5-.13,1.76,2.09.36-1.77,1.22Z"/><path class="cls-2" d="M78.45,47.85a12.28,12.28,0,0,1-6.86-1.76c-1.42-.85-8.13-5.27-8.42-5.46a.77.77,0,0,1,.16-1.35l1.45-.54-1.26-2.8a.76.76,0,0,1,1-1l1.41.57-.31-1.06a.76.76,0,0,1,1-.92L67.8,34l-.44-2.63a.76.76,0,0,1,1.44-.46l3.88,7.85-2-11.13a.78.78,0,0,1,.28-.74.76.76,0,0,1,.78-.09l1.46.65.28-2.55a.76.76,0,0,1,1.33-.42l1,1.16,7.07-5.8a.77.77,0,0,1,.76-.12.76.76,0,0,1,.48.61L85,26.68l2-2.54a.77.77,0,0,1,.93-.21.76.76,0,0,1,.41.85L87.53,29,89,28.43a.77.77,0,0,1,.89.27.76.76,0,0,1,0,.92L80.48,41.36l4.85-3.16a.74.74,0,0,1,.81,0,.73.73,0,0,1,.36.73l-.11,1,1.43-.29a.78.78,0,0,1,.66.17.76.76,0,0,1,.26.63l-.08,1.07,1.41.25a.76.76,0,0,1,.62.59.77.77,0,0,1-.31.79l-.93.63L92.28,46a.76.76,0,0,1-.45,1.36c-.09,0-9.11.36-12.8.46ZM65.28,40.19c2.07,1.36,6.07,4,7.09,4.59A11.17,11.17,0,0,0,79,46.32c2.59-.07,7.83-.27,10.73-.38l-2-1.61a.79.79,0,0,1-.29-.63.77.77,0,0,1,.33-.6l.23-.16-.25,0a.76.76,0,0,1-.63-.81l0-.75-1.48.3a.76.76,0,0,1-.66-.18.74.74,0,0,1-.25-.65l0-.45-7.44,4.85a.76.76,0,0,1-1-1.11L86.9,30.83l-.14.06a.78.78,0,0,1-.76-.14.75.75,0,0,1-.25-.74l.51-2.42L85.11,29a.77.77,0,0,1-.8.25.76.76,0,0,1-.55-.63l-.92-6.78-6.59,5.4a.77.77,0,0,1-1.06-.09l-.33-.39-.2,1.85a.78.78,0,0,1-.38.58.76.76,0,0,1-.69,0l-1.11-.5,2.62,15a.76.76,0,0,1-.51.86.77.77,0,0,1-.93-.39l-4.24-8.59a.6.6,0,0,1-.16.19.75.75,0,0,1-.76.12l-1-.39.31,1.07a.76.76,0,0,1-.22.77.78.78,0,0,1-.8.15L65.69,37l.82,1.82a.81.81,0,0,1,0,.61.76.76,0,0,1-.44.42Z"/><path class="cls-1" d="M66.25,55.18s-7.37,1.39-10.41,1.92a9.75,9.75,0,0,1-6-.51c-1.26-.52-7.51-3.44-7.51-3.44l1.71-.93-1.73-2.71,2.48.59-.91-2,2.11.49-1-3.16L51.64,55,47.32,42l2.11.6-.11-3,1.41,1.23,5.51-6,1.88,6.52,2.11-3.58-.3,4.68L62,41.2,53.85,55.3l6.51-5.75.06,1.7,1.95-.71L62.48,52l1.76,0-1.3,1.21Z"/><path class="cls-2" d="M53.47,58.09a9.68,9.68,0,0,1-3.87-.79c-1.26-.52-7.29-3.34-7.55-3.46a.75.75,0,0,1-.44-.66.78.78,0,0,1,.4-.7l1-.54-1.29-2a.77.77,0,0,1,0-.86.75.75,0,0,1,.8-.29l1,.22-.26-.58a.78.78,0,0,1,.1-.8.8.8,0,0,1,.77-.26l.8.19-.61-1.88A.77.77,0,0,1,45.65,45l3.59,5.2-2.64-8a.76.76,0,0,1,.93-1l1.1.31-.08-1.94A.76.76,0,0,1,49.81,39l.86.74,5-5.5a.79.79,0,0,1,.74-.23.77.77,0,0,1,.56.54l1.39,4.82,1.22-2.06a.74.74,0,0,1,.88-.34.76.76,0,0,1,.54.78L60.78,41l.89-.49a.76.76,0,0,1,.91.13.77.77,0,0,1,.12.92l-5.82,10,3-2.63a.8.8,0,0,1,.81-.13.77.77,0,0,1,.46.68l0,.66,1-.36a.77.77,0,0,1,1,.67l0,.76,1.07,0a.76.76,0,0,1,.5,1.32l-.55.51,2.43,1.41a.76.76,0,0,1-.25,1.41S59,57.32,56,57.85A14.25,14.25,0,0,1,53.47,58.09Zm-9.4-5c1.91.89,5.25,2.43,6.12,2.79a9,9,0,0,0,5.52.46c2-.36,6-1.09,8.38-1.54l-1.54-.9a.73.73,0,0,1-.37-.57.75.75,0,0,1,.18-.59.75.75,0,0,1-.64-.7l0-.44-1,.36a.77.77,0,0,1-.69-.08.8.8,0,0,1-.34-.61v-.09l-5.3,4.68a.77.77,0,0,1-1,0,.78.78,0,0,1-.17-1L60,43.12a.8.8,0,0,1-.52-.11.78.78,0,0,1-.35-.7l.1-1.49-.49.83A.8.8,0,0,1,58,42a.75.75,0,0,1-.63-.55l-1.51-5.21-4.58,5a.77.77,0,0,1-1.07.06l-.08-.07,0,1.23a.74.74,0,0,1-.29.63.74.74,0,0,1-.67.13l-.73-.2,3.86,11.68a.75.75,0,0,1-.38.92.77.77,0,0,1-1-.24l-4.39-6.36,0,0a.76.76,0,0,1-.74.22l-.6-.14.27.6a.75.75,0,0,1-.87,1.05L44,50.69l.71,1.11a.76.76,0,0,1-.27,1.08Z"/><ellipse class="cls-4" cx="55.96" cy="89.43" rx="3.28" ry="4.19"/><path class="cls-2" d="M56,94.13c-2.08,0-3.78-2.11-3.78-4.69s1.7-4.7,3.78-4.7,3.79,2.11,3.79,4.7S58.05,94.13,56,94.13Zm0-8.37c-1.52,0-2.77,1.65-2.77,3.68s1.25,3.67,2.77,3.67,2.77-1.65,2.77-3.67S57.49,85.76,56,85.76Z"/><ellipse class="cls-4" cx="67.42" cy="89.43" rx="3.28" ry="4.19"/><path class="cls-2" d="M67.42,94.13c-2.09,0-3.79-2.11-3.79-4.69s1.7-4.7,3.79-4.7,3.78,2.11,3.78,4.7S69.51,94.13,67.42,94.13Zm0-8.37c-1.53,0-2.77,1.65-2.77,3.68s1.24,3.67,2.77,3.67,2.77-1.65,2.77-3.67S68.94,85.76,67.42,85.76Z"/><path class="cls-2" d="M70.32,83.66a.5.5,0,0,1-.42-.22,3,3,0,0,0-2.48-1.14,3.12,3.12,0,0,0-2.35,1,.51.51,0,1,1-.77-.66,4.1,4.1,0,0,1,3.12-1.32,4,4,0,0,1,3.32,1.59.5.5,0,0,1-.42.79Z"/><path class="cls-2" d="M51.39,85.22a.39.39,0,0,1-.18,0,.5.5,0,0,1-.3-.65,5,5,0,0,1,3-2.84,4.85,4.85,0,0,1,4.48.39.51.51,0,1,1-.59.83,3.84,3.84,0,0,0-3.54-.27,4,4,0,0,0-2.41,2.24A.5.5,0,0,1,51.39,85.22Z"/><ellipse class="cls-2" cx="66.95" cy="88.92" rx="1.49" ry="1.91"/><ellipse class="cls-2" cx="56.5" cy="88.92" rx="1.49" ry="1.91"/><path class="cls-4" d="M68.71,96.38a14.35,14.35,0,0,1-5.17,2.19,15.4,15.4,0,0,1-5.32-.69c1.62,3.61,3.25,6.15,6.06,5.72C66.75,103.23,68.71,100.4,68.71,96.38Z"/><path class="cls-2" d="M63.68,104.16c-3,0-4.6-3.11-5.92-6.07a.52.52,0,0,1,.08-.55.55.55,0,0,1,.54-.15,15,15,0,0,0,5.1.67A13.56,13.56,0,0,0,68.42,96a.51.51,0,0,1,.53,0,.49.49,0,0,1,.27.45c0,4.11-2,7.29-4.86,7.73A5.45,5.45,0,0,1,63.68,104.16Zm-4.54-5.51c1.45,3,2.86,4.79,5.06,4.45s3.69-2.69,4-5.78a12.85,12.85,0,0,1-4.56,1.75A13.34,13.34,0,0,1,59.14,98.65Z"/><ellipse class="cls-2" cx="60.29" cy="95.18" rx="0.74" ry="0.48" transform="translate(-11.45 8.31) rotate(-7.2)"/><ellipse class="cls-2" cx="62.35" cy="94.92" rx="0.74" ry="0.48" transform="translate(-11.41 8.56) rotate(-7.2)"/></svg>