<svg id="Ebene_1" data-name="Ebene 1" xmlns="http://www.w3.org/2000/svg" viewBox="0 0 60 60"><defs><style>.cls-1{fill:#bfe54a;}.cls-2{fill:#1d1d1b;}.cls-3{fill:#9fb737;}</style></defs><title>opencelery</title><path class="cls-1" d="M23.45,27.38c1.36,5.59,1.29,11.79.72,19.9-.39,5.64,2.68,8,6.6,8,4.22,0,8.44-4.89,5.88-13.23C34.21,34.13,39,23.2,39,23.2l-2.06-.27-1.62,4.49V23.76l-1.53,0a25.23,25.23,0,0,1-.37,9.07,44.52,44.52,0,0,0-1.16,7s-1.19-1.16-1-5,2.05-9.85,2.05-9.85l-3.56-.51S28.3,38.5,27.6,38.47c-.32,0-.61-2.59-.41-5.1a43.24,43.24,0,0,0,0-5.86Z"/><path class="cls-2" d="M30.77,55.7a6.84,6.84,0,0,1-5.19-2c-1.39-1.48-2-3.65-1.8-6.44.57-8.09.64-14.22-.71-19.78a.39.39,0,0,1,.08-.34.39.39,0,0,1,.32-.14l3.76.13a.39.39,0,0,1,.38.37,44.44,44.44,0,0,1,0,5.91,19.85,19.85,0,0,0,.06,3.89c.48-2.15,1.18-7.69,1.69-12.73a.36.36,0,0,1,.15-.27.34.34,0,0,1,.29-.08l3.57.51a.46.46,0,0,1,.19.08c-.06-.58-.12-.91-.12-.92a.41.41,0,0,1,.08-.32.4.4,0,0,1,.29-.14l1.53-.05a.41.41,0,0,1,.28.11.39.39,0,0,1,.12.28v1.42l.86-2.38a.39.39,0,0,1,.42-.26l2.06.27a.38.38,0,0,1,.29.2.36.36,0,0,1,0,.35c0,.11-4.7,10.89-2.33,18.61,1.8,5.88.15,9.37-1,10.92A6.56,6.56,0,0,1,30.77,55.7ZM24,27.79c1.25,5.52,1.16,11.59.61,19.52-.18,2.56.36,4.53,1.59,5.85a6.11,6.11,0,0,0,4.62,1.76,5.81,5.81,0,0,0,4.63-2.49C36.46,51,38,47.76,36.28,42.2c-2.2-7.15,1.26-16.45,2.16-18.68l-1.24-.16-1.51,4.19a.41.41,0,0,1-.44.26.4.4,0,0,1-.32-.39V24.17l-.68,0A26.16,26.16,0,0,1,33.8,33a44.43,44.43,0,0,0-1.14,7,.4.4,0,0,1-.25.35A.39.39,0,0,1,32,40.2c0-.05-1.32-1.33-1.15-5.25a47.06,47.06,0,0,1,1.94-9.52L30.07,25C28.64,38.91,28,38.89,27.58,38.86a.51.51,0,0,1-.34-.17c-.46-.52-.61-3.25-.44-5.35a42.49,42.49,0,0,0,.05-5.45Zm9.63-2.33a48.8,48.8,0,0,0-2,9.52A10.17,10.17,0,0,0,32,38.56c.14-1.11.43-3,1-5.76A26.43,26.43,0,0,0,33.58,25.46Z"/><path class="cls-3" d="M34.17,23.64c-2,.47-2.3-2.52-3.17-2.79s1.72-2.47,1.72-2.47L29.25,10.5l1.44.27-.21-1.85,1,.7,3.43-4,1.54,4,1.27-2.32v2.91l1.36-.82-4.88,9.13S36.18,23.16,34.17,23.64Z"/><path class="cls-2" d="M33.75,24.08c-1.23,0-1.85-1.17-2.27-2-.18-.35-.43-.82-.59-.87a.59.59,0,0,1-.44-.46c-.14-.63.85-1.67,1.79-2.49l-3.35-7.62a.39.39,0,0,1,.43-.54l.92.17L30.09,9a.41.41,0,0,1,.19-.38.38.38,0,0,1,.42,0l.72.49,3.2-3.74A.38.38,0,0,1,35,5.22a.39.39,0,0,1,.3.24l1.24,3.17.86-1.58a.4.4,0,0,1,.74.19V9.46L38.89,9a.39.39,0,0,1,.55.52l-4.79,9c.3.76,1.26,3.43.58,4.78a1.43,1.43,0,0,1-1,.76h0A2.35,2.35,0,0,1,33.75,24.08Zm-2.5-3.55a2.68,2.68,0,0,1,.93,1.21c.55,1.06,1,1.73,1.9,1.52h0a.63.63,0,0,0,.45-.36c.5-1-.32-3.43-.68-4.29a.41.41,0,0,1,0-.34l4.2-7.87-.14.09a.39.39,0,0,1-.39,0,.36.36,0,0,1-.2-.34V8.77l-.53,1a.4.4,0,0,1-.37.2.41.41,0,0,1-.34-.25L34.79,6.36l-3,3.51a.4.4,0,0,1-.52.07L31,9.74l.11,1a.38.38,0,0,1-.12.33.42.42,0,0,1-.34.1L29.9,11l3.18,7.2a.42.42,0,0,1-.11.46A8.64,8.64,0,0,0,31.25,20.53Z"/><path class="cls-3" d="M27.4,21.23a6.93,6.93,0,0,1-4,.46c-.9-.15.44-3.56.44-3.56l-3.53-7.89,1.47.09-.44-1.81,1.09.56,2.91-4.39,2,3.73,1-2.46.36,2.9,1.25-1L28.32,17S29.34,20.52,27.4,21.23Z"/><path class="cls-2" d="M24.6,22.19a7.86,7.86,0,0,1-1.25-.11.74.74,0,0,1-.5-.36c-.42-.75.28-2.77.59-3.58L20,10.4A.42.42,0,0,1,20,10a.39.39,0,0,1,.35-.16l.93.05L21,8.61a.4.4,0,0,1,.14-.4.42.42,0,0,1,.43,0l.76.4L25,4.47a.37.37,0,0,1,.34-.17.38.38,0,0,1,.33.2l1.61,3L28,5.82a.38.38,0,0,1,.41-.24.38.38,0,0,1,.34.34L29,8.13l.71-.56a.39.39,0,0,1,.44,0,.4.4,0,0,1,.18.41l-1.62,9c.16.6.91,3.89-1.18,4.66A8.42,8.42,0,0,1,24.6,22.19Zm-1.08-.88a6.57,6.57,0,0,0,3.75-.45c1.55-.57.68-3.76.67-3.8a.33.33,0,0,1,0-.17l1.46-8.07L29,9.17a.37.37,0,0,1-.39.05.39.39,0,0,1-.24-.31l-.17-1.37-.41,1a.38.38,0,0,1-.34.25A.4.4,0,0,1,27,8.61L25.33,5.45,22.77,9.3a.38.38,0,0,1-.51.13L22,9.26l.23,1a.39.39,0,0,1-.08.34.4.4,0,0,1-.33.14L21,10.67,24.22,18a.39.39,0,0,1,0,.3A7.49,7.49,0,0,0,23.52,21.31Z"/><path class="cls-1" d="M16.2,25.86s4.63-2,6.52-2.82a7.09,7.09,0,0,0,3.19-2.45c.53-.73,3.07-4.54,3.07-4.54l-1.28.14.05-2-1.19,1.21L26.39,14l-1,1-.5-2-.49,7.4L22.4,12l-1,1.08-.95-1.6-.38,1.16-5.16-1.13,1.15,4.09-2.41-1.09,1.76,2.33L13.84,17l9.4,4.34-5.63-.61.55.91L16.82,22l.43.8-1,.66,1.15.16Z"/><path class="cls-2" d="M16.2,26.25a.41.41,0,0,1-.29-.13.39.39,0,0,1-.05-.45L16.8,24l-.58-.08a.39.39,0,0,1-.33-.3.41.41,0,0,1,.16-.41l.69-.47-.27-.48a.43.43,0,0,1,0-.35.38.38,0,0,1,.26-.22l.84-.22L17.28,21a.38.38,0,0,1,0-.41.43.43,0,0,1,.38-.18l3.24.35-7.22-3.33a.4.4,0,0,1-.23-.42.39.39,0,0,1,.35-.33l.89-.09-1.34-1.78a.39.39,0,0,1,0-.48.4.4,0,0,1,.47-.11l1.64.74-.92-3.27a.39.39,0,0,1,.46-.49l4.81,1.05.27-.82a.39.39,0,0,1,.71-.08l.67,1.15.64-.69a.38.38,0,0,1,.39-.12.41.41,0,0,1,.28.29l1.38,5.84L24.48,13a.39.39,0,0,1,.77-.07l.33,1.34.53-.53a.4.4,0,0,1,.41-.1.41.41,0,0,1,.26.33l.07.56.62-.63a.41.41,0,0,1,.43-.09.39.39,0,0,1,.24.38l0,1.59.84-.09a.37.37,0,0,1,.37.18.4.4,0,0,1,0,.42c-.11.16-2.55,3.83-3.09,4.56a7.51,7.51,0,0,1-3.34,2.58c-1.87.82-6.48,2.8-6.53,2.82A.37.37,0,0,1,16.2,26.25Zm1.14-3,.13,0a.41.41,0,0,1,.3.21.4.4,0,0,1,0,.37l-.67,1.22c1.48-.64,4.16-1.79,5.47-2.37a6.6,6.6,0,0,0,3-2.32c.38-.52,1.84-2.7,2.6-3.83l-.45,0a.4.4,0,0,1-.44-.4l0-1-.49.51a.41.41,0,0,1-.41.09.39.39,0,0,1-.26-.32l-.07-.58-.45.46a.4.4,0,0,1-.39.1.37.37,0,0,1-.15-.08l-.34,5.12a.38.38,0,0,1-.35.36.39.39,0,0,1-.42-.3l-1.81-7.65-.49.54a.41.41,0,0,1-.33.12.37.37,0,0,1-.3-.19l-.51-.86-.11.35a.4.4,0,0,1-.46.26l-4.51-1,1,3.46a.41.41,0,0,1-.12.41.4.4,0,0,1-.42.06l-1-.46.83,1.1a.37.37,0,0,1,0,.39.42.42,0,0,1-.32.24H15.3L23.4,21a.4.4,0,0,1,.21.46.39.39,0,0,1-.42.29l-4.83-.52.14.23a.39.39,0,0,1,0,.35.38.38,0,0,1-.26.23l-.86.22.2.36a.39.39,0,0,1-.13.51Z"/><path class="cls-1" d="M40.84,21.87s-4.29,1.84-6.06,2.57a6,6,0,0,1-3.67.49c-.84-.14-5-1.07-5-1.07l.91-.8-1.41-1.41,1.58,0-.83-1.09h1.35l-1-1.78L32,23.73,27.57,16.4l1.37.08-.48-1.8,1,.56L32,10.83l2,3.7.8-2.46L35.28,15l1.12-1-3.07,9.65,3.17-4.36.27,1,1.09-.7.26.87,1.07-.21-.62.91Z"/><path class="cls-2" d="M32.16,25.42a6.39,6.39,0,0,1-1.12-.1c-.83-.15-4.87-1-5-1.08a.39.39,0,0,1-.17-.67l.6-.53-1.12-1.11a.4.4,0,0,1-.08-.43.36.36,0,0,1,.36-.24h.78L26,20.82a.4.4,0,0,1,0-.41.4.4,0,0,1,.36-.22H27L26.31,19a.39.39,0,0,1,.09-.5.4.4,0,0,1,.52,0l3.3,3.06-3-5a.36.36,0,0,1,0-.4A.39.39,0,0,1,27.6,16l.82,0-.34-1.28a.38.38,0,0,1,.14-.4.38.38,0,0,1,.43,0l.69.37,2.33-4.08a.39.39,0,0,1,.68,0l1.59,2.9L34.45,12a.4.4,0,0,1,.41-.27.37.37,0,0,1,.35.33l.34,2.17.59-.51a.39.39,0,0,1,.47,0,.4.4,0,0,1,.16.45l-2.33,7.35L36.19,19a.4.4,0,0,1,.39-.16.37.37,0,0,1,.3.29l.13.51.64-.41a.39.39,0,0,1,.35,0,.36.36,0,0,1,.23.25l.16.53.73-.14a.38.38,0,0,1,.4.17.36.36,0,0,1,0,.43l-.32.48L41,21.5a.4.4,0,0,1,.28.35.38.38,0,0,1-.24.38s-4.31,1.84-6.06,2.57A7,7,0,0,1,32.16,25.42Zm-5.23-1.78c1.24.28,3.64.8,4.25.91a5.67,5.67,0,0,0,3.45-.48c1.23-.5,3.71-1.56,5.08-2.14l-1.26-.41a.38.38,0,0,1-.21-.59l.08-.12-.12,0a.41.41,0,0,1-.46-.28l-.11-.37-.65.42a.41.41,0,0,1-.36,0,.37.37,0,0,1-.23-.27l-.06-.22-2.68,3.69a.39.39,0,0,1-.5.12.38.38,0,0,1-.19-.47l2.64-8.3-.06.06a.41.41,0,0,1-.4.07.4.4,0,0,1-.25-.31l-.2-1.26-.29.9a.4.4,0,0,1-.33.27.39.39,0,0,1-.38-.2L32,11.63l-2.17,3.8a.39.39,0,0,1-.53.15l-.23-.12.24.92a.37.37,0,0,1-.07.35.42.42,0,0,1-.33.14l-.62,0,4,6.69a.4.4,0,0,1-.09.51.41.41,0,0,1-.52,0l-3.6-3.34a.61.61,0,0,1,0,.12.39.39,0,0,1-.34.19h-.55l.34.45a.42.42,0,0,1,0,.42.41.41,0,0,1-.36.21h-.61l.73.72a.46.46,0,0,1,.11.29.41.41,0,0,1-.13.29Z"/><path class="cls-1" d="M46.34,23.13s-4.66.18-6.57.23a6,6,0,0,1-3.61-.84c-.73-.44-4.31-2.8-4.31-2.8L33,19.3l-.81-1.82,1.46.59-.38-1.31,1.26.49-.34-2,3.2,6.48L35.9,13.29l1.24.55.2-1.84.76.88L42,9.66l.56,4.18,1.63-2-.61,2.85,1.4-.53L38.7,22.08l4.52-2.95-.12,1.06,1.27-.26-.07.9,1.08.19-.91.62Z"/><path class="cls-2" d="M39.47,23.76A6.2,6.2,0,0,1,36,22.85c-.73-.43-4.18-2.7-4.33-2.8a.38.38,0,0,1-.17-.37.37.37,0,0,1,.25-.32l.75-.28-.65-1.44a.39.39,0,0,1,.5-.52l.73.29-.16-.55a.38.38,0,0,1,.11-.39.41.41,0,0,1,.41-.08l.61.24-.23-1.35a.39.39,0,0,1,.74-.24l2,4-1-5.72a.39.39,0,0,1,.14-.38.4.4,0,0,1,.41-.05l.75.34L37,12a.4.4,0,0,1,.27-.33.39.39,0,0,1,.41.12l.52.59,3.63-3a.4.4,0,0,1,.39-.07.43.43,0,0,1,.25.32l.44,3.27,1-1.3a.4.4,0,0,1,.48-.11.4.4,0,0,1,.21.44l-.46,2.15.73-.27a.39.39,0,0,1,.46.13.42.42,0,0,1,0,.48l-4.8,6L43,18.8a.4.4,0,0,1,.42,0,.37.37,0,0,1,.18.37l-.06.52.74-.15a.41.41,0,0,1,.34.09.39.39,0,0,1,.13.32l0,.55.73.13a.4.4,0,0,1,.31.3.39.39,0,0,1-.16.41l-.47.33,1.45,1.15a.39.39,0,0,1,.13.43.41.41,0,0,1-.36.27l-6.57.24Zm-6.76-3.94c1.06.7,3.12,2.05,3.65,2.36a5.54,5.54,0,0,0,3.4.79c1.33,0,4-.14,5.51-.19l-1-.83a.41.41,0,0,1-.15-.32.38.38,0,0,1,.17-.31l.12-.08-.13,0a.41.41,0,0,1-.33-.42l0-.39-.76.16a.36.36,0,0,1-.34-.1.4.4,0,0,1-.13-.33l0-.23L38.92,22.4a.39.39,0,0,1-.52-.57L43.82,15l-.07,0a.39.39,0,0,1-.52-.44l.26-1.25-.59.73a.39.39,0,0,1-.41.14.4.4,0,0,1-.28-.33l-.48-3.48-3.38,2.77a.38.38,0,0,1-.55,0l-.17-.19-.1,1a.39.39,0,0,1-.19.29.38.38,0,0,1-.36,0L36.41,14l1.35,7.68a.39.39,0,0,1-.74.24l-2.18-4.41a.41.41,0,0,1-.09.1.39.39,0,0,1-.39.05l-.51-.2L34,18a.39.39,0,0,1-.11.4.38.38,0,0,1-.41.07l-.57-.22.42.93a.37.37,0,0,1,0,.31.45.45,0,0,1-.23.22Z"/><path class="cls-1" d="M32.69,27l-5.35,1a5,5,0,0,1-3.05-.26c-.65-.27-3.86-1.77-3.86-1.77l.88-.48-.89-1.39,1.27.3-.47-1,1.09.26L21.78,22l3.4,4.92L23,20.21l1.09.3L24,19l.73.63,2.83-3.11,1,3.35L29.6,18l-.16,2.41,1.09-.6-4.21,7.24,3.34-2.95,0,.88,1-.37.05.75.9,0L31,26Z"/><path class="cls-2" d="M26.13,28.49a4.86,4.86,0,0,1-2-.4c-.65-.27-3.75-1.71-3.88-1.77A.43.43,0,0,1,20,26a.4.4,0,0,1,.21-.35l.51-.28-.66-1a.39.39,0,0,1,0-.44.39.39,0,0,1,.41-.15l.49.12-.14-.3a.4.4,0,0,1,.06-.42.41.41,0,0,1,.39-.13l.41.1-.31-1a.4.4,0,0,1,.2-.47.41.41,0,0,1,.5.13L24,24.44l-1.36-4.11a.39.39,0,0,1,.09-.39.38.38,0,0,1,.39-.11l.57.16,0-1a.4.4,0,0,1,.22-.37.42.42,0,0,1,.43.06l.44.38,2.57-2.82a.37.37,0,0,1,.37-.12.4.4,0,0,1,.29.27l.72,2.48.62-1.06A.39.39,0,0,1,30,18l-.11,1.69.46-.25a.38.38,0,0,1,.47.07.39.39,0,0,1,.05.47l-3,5.15,1.53-1.36a.4.4,0,0,1,.42-.06.37.37,0,0,1,.23.34l0,.34.49-.18a.39.39,0,0,1,.35,0,.42.42,0,0,1,.18.3l0,.4h.54a.39.39,0,0,1,.26.68l-.28.26,1.25.72a.42.42,0,0,1,.19.41.41.41,0,0,1-.32.32s-3.79.71-5.35,1A7,7,0,0,1,26.13,28.49Zm-4.84-2.56c1,.46,2.7,1.25,3.15,1.44a4.65,4.65,0,0,0,2.84.23c1-.18,3.07-.56,4.3-.79l-.79-.46a.39.39,0,0,1-.1-.59.39.39,0,0,1-.33-.36l0-.23-.51.18a.39.39,0,0,1-.36,0A.39.39,0,0,1,29.3,25V25l-2.72,2.41a.39.39,0,0,1-.51,0,.39.39,0,0,1-.09-.5l3.52-6.05a.43.43,0,0,1-.27-.06.39.39,0,0,1-.18-.36l.05-.77-.25.43a.39.39,0,0,1-.71-.09l-.78-2.68L25,19.87a.39.39,0,0,1-.55,0l0,0,0,.63a.38.38,0,0,1-.15.32.37.37,0,0,1-.35.07l-.37-.1,2,6a.39.39,0,0,1-.69.34L22.6,23.87h0a.37.37,0,0,1-.37.12l-.31-.07.14.3a.38.38,0,0,1-.06.41.37.37,0,0,1-.39.13l-.33-.07.37.57a.47.47,0,0,1,.05.31.4.4,0,0,1-.2.24Z"/></svg>