<svg id="Ebene_1" data-name="Ebene 1" xmlns="http://www.w3.org/2000/svg" viewBox="0 0 192 192"><defs><style>.cls-1{fill:#bfe54a;}.cls-2{fill:#1d1d1b;}.cls-3{fill:#9fb737;}.cls-4{fill:#fff;}</style></defs><title>opencelery</title><path class="cls-1" d="M74.08,87.24c4.56,18.71,4.3,39.47,2.41,66.6-1.32,18.89,9,26.89,22.07,26.89,14.13,0,28.27-16.38,19.7-44.28-8.17-26.62,7.88-63.21,7.88-63.21l-6.91-.91-5.42,15V75.12l-5.12.16a84.36,84.36,0,0,1-1.24,30.36c-3.71,17-3.87,23.55-3.87,23.55s-4-3.87-3.47-16.57,6.88-33,6.88-33L95.06,77.91S90.32,124.45,88,124.34c-1.07,0-2-8.65-1.36-17.07a142.9,142.9,0,0,0,.1-19.6Z"/><path class="cls-2" d="M98.56,182c-7.25,0-13.26-2.33-17.37-6.74-4.64-5-6.66-12.22-6-21.55,1.89-27.09,2.15-47.61-2.38-66.2a1.33,1.33,0,0,1,.26-1.14,1.27,1.27,0,0,1,1.07-.49l12.61.44A1.3,1.3,0,0,1,88,87.6a143.7,143.7,0,0,1-.1,19.77,66.68,66.68,0,0,0,.2,13c1.59-7.22,3.93-25.73,5.65-42.61a1.33,1.33,0,0,1,1.5-1.17l11.93,1.71a1.2,1.2,0,0,1,.62.27c-.19-1.94-.39-3-.4-3.07A1.3,1.3,0,0,1,108.65,74l5.12-.16a1.48,1.48,0,0,1,1,.37,1.3,1.3,0,0,1,.4.94v4.74l2.88-8a1.3,1.3,0,0,1,1.4-.86l6.91.9a1.32,1.32,0,0,1,1,.66,1.34,1.34,0,0,1,.06,1.17c-.16.37-15.76,36.46-7.82,62.3,6,19.7.51,31.37-3.33,36.56C111.76,178.61,105.34,182,98.56,182ZM75.75,88.61c4.2,18.47,3.9,38.79,2,65.32-.6,8.57,1.19,15.16,5.31,19.58,3.6,3.87,9,5.91,15.45,5.91,5.94,0,11.59-3,15.51-8.36,3.55-4.8,8.65-15.63,2.94-34.23-7.35-23.92,4.22-55.06,7.25-62.51l-4.15-.55-5.07,14a1.31,1.31,0,0,1-2.55-.45V76.48l-2.27.07a88.24,88.24,0,0,1-1.48,29.38c-3.64,16.65-3.85,23.23-3.85,23.3a1.31,1.31,0,0,1-.81,1.18,1.33,1.33,0,0,1-1.41-.27c-.18-.18-4.42-4.44-3.87-17.58.45-10.89,5-26.92,6.49-31.86l-9.06-1.3c-4.78,46.4-7,46.34-8.34,46.25a1.62,1.62,0,0,1-1.14-.57c-1.52-1.72-2-10.88-1.47-17.92a140.06,140.06,0,0,0,.17-18.22ZM108,80.83c-1.18,3.91-6.11,20.89-6.57,31.84a34,34,0,0,0,1.27,12c.46-3.72,1.44-9.91,3.48-19.28A88.28,88.28,0,0,0,108,80.83Z"/><path class="cls-3" d="M110,74.71c-6.74,1.58-7.69-8.45-10.61-9.33s5.74-8.27,5.74-8.27L93.48,30.74l4.83.9-.7-6.19L101,27.77l11.47-13.42,5.19,13.23,4.22-7.78v9.77l4.56-2.75L110.1,57.36S116.7,73.12,110,74.71Z"/><path class="cls-2" d="M108.55,76.19c-4.12,0-6.18-3.92-7.59-6.62-.62-1.17-1.46-2.77-2-2.93a2.06,2.06,0,0,1-1.49-1.55c-.44-2.08,2.87-5.57,6-8.34L92.28,31.27a1.32,1.32,0,0,1,.18-1.35,1.29,1.29,0,0,1,1.26-.47l3.09.57-.5-4.42a1.32,1.32,0,0,1,2-1.23L100.75,26l10.71-12.53a1.27,1.27,0,0,1,1.21-.44,1.33,1.33,0,0,1,1,.82l4.15,10.6,2.88-5.29a1.3,1.3,0,0,1,1.47-.65,1.32,1.32,0,0,1,1,1.27v7.44l2.57-1.55a1.32,1.32,0,0,1,1.84,1.75l-16,30c1,2.55,4.24,11.49,1.94,16A4.74,4.74,0,0,1,110.26,76,7.12,7.12,0,0,1,108.55,76.19ZM100.18,64.3c1.32.65,2.15,2.24,3.1,4,1.86,3.54,3.31,5.81,6.38,5.08a2.15,2.15,0,0,0,1.5-1.19c1.68-3.31-1.07-11.49-2.27-14.37a1.3,1.3,0,0,1,.06-1.12L123,30.4l-.47.29a1.31,1.31,0,0,1-2-1.12V25l-1.76,3.24a1.28,1.28,0,0,1-1.23.69,1.31,1.31,0,0,1-1.14-.83L112,16.86,102,28.63a1.31,1.31,0,0,1-1.75.22l-1-.68.38,3.32a1.33,1.33,0,0,1-.41,1.11,1.32,1.32,0,0,1-1.13.33l-2.39-.45,10.6,24.1a1.3,1.3,0,0,1-.35,1.53C103.22,60.43,100.74,63.13,100.18,64.3Z"/><path class="cls-3" d="M87.31,66.65C80.81,69,77,68.7,74,68.18s1.5-11.91,1.5-11.91L63.63,29.84l4.91.31-1.45-6L70.71,26l9.77-14.72,6.75,12.51,3.25-8.23,1.19,9.69L95.86,22l-5.5,30.37S93.81,64.26,87.31,66.65Z"/><path class="cls-2" d="M77.93,69.87a24.3,24.3,0,0,1-4.2-.39,2.34,2.34,0,0,1-1.65-1.19c-1.42-2.52.91-9.26,2-12L62.44,30.38a1.3,1.3,0,0,1,.12-1.28,1.34,1.34,0,0,1,1.16-.57l3.13.2-1-4.33a1.31,1.31,0,0,1,1.88-1.47l2.57,1.35,9.12-13.73a1.3,1.3,0,0,1,2.24.1l5.41,10,2.21-5.6a1.32,1.32,0,0,1,1.39-.83,1.34,1.34,0,0,1,1.14,1.15l.91,7.38,2.36-1.85a1.32,1.32,0,0,1,2.11,1.27L91.71,52.28c.53,2,3.05,13-3.95,15.6A28.05,28.05,0,0,1,77.93,69.87Zm-3.61-3c2.83.49,6.39.77,12.53-1.49h0c5.2-1.91,2.28-12.61,2.25-12.72a1.22,1.22,0,0,1,0-.6l4.89-27-1.48,1.15a1.31,1.31,0,0,1-2.11-.87l-.57-4.57-1.35,3.43a1.32,1.32,0,0,1-1.14.83,1.29,1.29,0,0,1-1.24-.69L80.36,13.82l-8.55,12.9a1.31,1.31,0,0,1-1.71.43L69,26.6l.78,3.24a1.33,1.33,0,0,1-1.36,1.62l-2.74-.17L76.65,55.73a1.29,1.29,0,0,1,0,1C75,61.11,73.87,65.84,74.32,66.91Z"/><path class="cls-1" d="M49.81,82.13S65.3,75.5,71.63,72.7,80.5,67,82.29,64.51,92.58,49.29,92.58,49.29l-4.3.47.19-6.83-4,4.07-.56-4.62L80.5,45.84l-1.67-6.76L77.2,63.88l-6.65-28-3.31,3.63-3.17-5.36L62.78,38,45.53,34.22,49.38,47.9l-8.06-3.66L47.2,52l-5.29.55L73.36,67.11l-18.82-2,1.83,3-4.5,1.17L53.33,72l-3.27,2.24,3.83.51Z"/><path class="cls-2" d="M49.81,83.44a1.31,1.31,0,0,1-1.15-1.94l3.15-5.75-1.93-.26a1.31,1.31,0,0,1-.56-2.38l2.29-1.57-.89-1.63a1.32,1.32,0,0,1,.82-1.9l2.8-.72-.92-1.54a1.31,1.31,0,0,1,1.26-2l10.86,1.17L41.36,53.79a1.31,1.31,0,0,1,.41-2.5l3-.32L40.27,45a1.31,1.31,0,0,1,1.59-2l5.49,2.48-3.08-11a1.3,1.3,0,0,1,.3-1.25,1.31,1.31,0,0,1,1.24-.39l16.1,3.54.91-2.76a1.29,1.29,0,0,1,1.11-.89,1.33,1.33,0,0,1,1.27.63l2.26,3.83L69.58,35a1.32,1.32,0,0,1,2.25.58l4.63,19.55L77.52,39a1.32,1.32,0,0,1,1.2-1.23,1.34,1.34,0,0,1,1.39,1l1.1,4.48L83,41.46a1.31,1.31,0,0,1,2.24.77l.23,1.9L87.54,42A1.3,1.3,0,0,1,89,41.72a1.33,1.33,0,0,1,.8,1.24l-.15,5.34,2.8-.31a1.26,1.26,0,0,1,1.26.62,1.31,1.31,0,0,1,0,1.41c-.35.52-8.54,12.82-10.32,15.27-2.06,2.81-4.83,5.79-11.2,8.61s-21.68,9.37-21.83,9.44A1.37,1.37,0,0,1,49.81,83.44Zm3.81-10.1.44.06a1.32,1.32,0,0,1,1,.71,1.35,1.35,0,0,1,0,1.22l-2.25,4.09c5-2.13,13.91-6,18.31-7.92,6.09-2.7,8.43-5.42,10.13-7.76,1.29-1.76,6.16-9,8.7-12.83l-1.5.16a1.29,1.29,0,0,1-1-.34,1.34,1.34,0,0,1-.42-1l.1-3.5-1.65,1.69a1.32,1.32,0,0,1-2.24-.76L83,45.23l-1.52,1.53a1.29,1.29,0,0,1-1.28.34,1.32,1.32,0,0,1-.51-.27L78.51,64a1.3,1.3,0,0,1-1.2,1.22,1.33,1.33,0,0,1-1.39-1L69.85,38.57l-1.64,1.79a1.32,1.32,0,0,1-2.1-.21l-1.7-2.88L64,38.41a1.3,1.3,0,0,1-1.53.87L47.39,36l3.25,11.57a1.31,1.31,0,0,1-1.8,1.55l-3.37-1.52,2.78,3.67a1.33,1.33,0,0,1,.15,1.32,1.3,1.3,0,0,1-1.06.78l-.56.06L73.91,65.92a1.31,1.31,0,0,1-.69,2.49L57,66.67l.47.77a1.31,1.31,0,0,1-.8,2l-2.87.75.65,1.19A1.32,1.32,0,0,1,54.07,73Z"/><path class="cls-1" d="M132.27,68.79S117.93,74.93,112,77.38s-9.5,2.15-12.3,1.66S82.9,75.45,82.9,75.45L86,72.77l-4.73-4.71,5.29.09-2.76-3.66,4.51.05-3.49-6L102.53,75,87.88,50.49l4.56.25-1.59-6,3.43,1.85,8.45-14.76,6.76,12.39L112.16,36l1.5,9.65,3.75-3.31-10.26,32.3L117.77,60l.89,3.44,3.65-2.32.87,2.91,3.59-.71-2.1,3Z"/><path class="cls-2" d="M103.22,80.68a21.42,21.42,0,0,1-3.74-.35c-2.79-.49-16.29-3.47-16.86-3.6A1.31,1.31,0,0,1,82,74.46l2-1.75L80.3,69A1.33,1.33,0,0,1,80,67.55a1.28,1.28,0,0,1,1.23-.81l2.6.05-1.14-1.52a1.31,1.31,0,0,1,1.05-2.1h0l2.19,0-2.32-4a1.31,1.31,0,0,1,2-1.62l11,10.23-10-16.69a1.31,1.31,0,0,1,0-1.35A1.29,1.29,0,0,1,88,49.18l2.76.15-1.13-4.27a1.32,1.32,0,0,1,1.89-1.49l2.31,1.25,7.81-13.65a1.44,1.44,0,0,1,1.15-.66,1.31,1.31,0,0,1,1.14.68l5.3,9.72,1.73-5.33a1.35,1.35,0,0,1,1.35-.91,1.33,1.33,0,0,1,1.2,1.11l1.13,7.28,2-1.73a1.31,1.31,0,0,1,2.12,1.38l-7.81,24.58,5.86-8.05a1.31,1.31,0,0,1,2.33.45l.44,1.69L121.6,60a1.32,1.32,0,0,1,1.16-.12,1.28,1.28,0,0,1,.8.85l.53,1.77,2.42-.47a1.31,1.31,0,0,1,1.34,2l-1.09,1.58,5.91,1.88a1.32,1.32,0,0,1,.12,2.46c-.15.06-14.42,6.17-20.28,8.59A23.84,23.84,0,0,1,103.22,80.68Zm-17.5-6c4.16.92,12.2,2.67,14.21,3,2.64.46,5.93.76,11.58-1.57,4.12-1.71,12.4-5.24,17-7.2l-4.23-1.34a1.3,1.3,0,0,1-.85-.83,1.32,1.32,0,0,1,.16-1.17l.27-.39-.43.09a1.33,1.33,0,0,1-1.51-.92l-.37-1.24-2.19,1.39a1.29,1.29,0,0,1-1.19.11,1.31,1.31,0,0,1-.79-.89l-.19-.74-9,12.35a1.31,1.31,0,0,1-2.31-1.17l8.83-27.78-.2.17a1.28,1.28,0,0,1-1.31.25,1.3,1.3,0,0,1-.85-1l-.66-4.21-1,3a1.32,1.32,0,0,1-1.13.9,1.29,1.29,0,0,1-1.27-.68L102.7,34.51,95.42,47.23a1.3,1.3,0,0,1-1.76.5l-.77-.41.82,3.09a1.34,1.34,0,0,1-.26,1.17,1.37,1.37,0,0,1-1.09.48l-2.08-.12,13.38,22.41a1.32,1.32,0,0,1-2,1.64L89.56,64.79a1.56,1.56,0,0,1-.15.41,1.22,1.22,0,0,1-1.15.65l-1.84,0,1.15,1.53a1.3,1.3,0,0,1,.12,1.38,1.33,1.33,0,0,1-1.17.72h0l-2,0,2.42,2.42a1.31,1.31,0,0,1-.06,1.92Z"/><path class="cls-1" d="M150.68,73s-15.58.62-22,.8S119,72.4,116.6,71s-14.42-9.35-14.42-9.35L106,60.19l-2.73-6.09,4.9,2-1.27-4.4,4.2,1.65L110,46.51,120.67,68.2l-4.94-28.14,4.17,1.86.66-6.18,2.55,2.95,13.15-10.78,1.9,14,5.43-6.74-2,9.55L146.24,43,125.13,69.48l15.13-9.86-.4,3.53,4.24-.87-.22,3,3.6.63-3,2.09Z"/><path class="cls-2" d="M127.72,75.11a21.13,21.13,0,0,1-11.79-3c-2.44-1.45-14-9.06-14.47-9.38a1.33,1.33,0,0,1-.58-1.25,1.3,1.3,0,0,1,.84-1.08l2.5-.92-2.16-4.81a1.31,1.31,0,0,1,1.68-1.76l2.42,1L105.63,52A1.3,1.3,0,0,1,106,50.7a1.32,1.32,0,0,1,1.37-.25l2,.8-.75-4.52a1.31,1.31,0,0,1,2.47-.8l6.67,13.5-3.36-19.14a1.31,1.31,0,0,1,1.83-1.43L118.79,40l.47-4.39a1.31,1.31,0,0,1,2.3-.72l1.7,2,12.17-10a1.32,1.32,0,0,1,1.31-.21,1.3,1.3,0,0,1,.82,1l1.49,11,3.52-4.36a1.31,1.31,0,0,1,2.3,1.1l-1.53,7.2,2.44-.91a1.3,1.3,0,0,1,1.52.45,1.32,1.32,0,0,1,0,1.59L131.21,64l8.34-5.43a1.29,1.29,0,0,1,1.4,0,1.33,1.33,0,0,1,.62,1.26l-.2,1.74,2.47-.51a1.33,1.33,0,0,1,1.13.3,1.3,1.3,0,0,1,.44,1.08l-.13,1.84,2.43.42a1.32,1.32,0,0,1,.52,2.38l-1.59,1.09L151.5,72a1.31,1.31,0,0,1-.77,2.34c-.15,0-15.66.63-22,.8ZM105.07,61.93c3.57,2.34,10.45,6.85,12.21,7.89,2.3,1.37,5.27,2.8,11.37,2.65,4.46-.12,13.46-.46,18.45-.65l-3.48-2.77a1.31,1.31,0,0,1-.49-1.07,1.29,1.29,0,0,1,.57-1l.39-.27-.43-.07a1.32,1.32,0,0,1-1.09-1.39l.1-1.3-2.54.52a1.3,1.3,0,0,1-1.15-.31,1.32,1.32,0,0,1-.42-1.12l.08-.76-12.79,8.34a1.32,1.32,0,0,1-1.75-1.92l18.16-22.81-.24.09a1.31,1.31,0,0,1-1.75-1.5l.89-4.17-2,2.46a1.31,1.31,0,0,1-2.32-.65l-1.59-11.66L123.94,39.7a1.31,1.31,0,0,1-1.83-.15l-.57-.66-.33,3.17a1.32,1.32,0,0,1-1.85,1.06l-1.91-.85L122,68a1.3,1.3,0,0,1-.88,1.47,1.32,1.32,0,0,1-1.59-.67L112.2,54a1.26,1.26,0,0,1-.29.32,1.28,1.28,0,0,1-1.3.2l-1.72-.67.53,1.84A1.28,1.28,0,0,1,109,57a1.3,1.3,0,0,1-1.37.25l-1.88-.76,1.4,3.12a1.31,1.31,0,0,1-.75,1.77Z"/><path class="cls-1" d="M106.75,87.71S94.07,90.1,88.85,91s-8,0-10.23-.87S65.7,84.23,65.7,84.23l3-1.62-3-4.65,4.25,1-1.57-3.45,3.63.85L70.25,71,81.62,87.41,74.2,65l3.63,1-.2-5.15L80.07,63l9.46-10.4,3.24,11.22,3.63-6.16-.52,8.05,3.63-2L85.42,87.91,96.62,78l.1,2.94,3.36-1.22.18,2.5,3,.08-2.24,2.08Z"/><path class="cls-2" d="M84.78,92.71a16.62,16.62,0,0,1-6.66-1.35c-2.17-.9-12.54-5.74-13-5.94a1.3,1.3,0,0,1-.75-1.15,1.27,1.27,0,0,1,.68-1.19l1.71-.94-2.21-3.47a1.32,1.32,0,0,1,1.41-2l1.64.4-.45-1a1.31,1.31,0,0,1,1.49-1.82l1.37.32-1-3.22a1.31,1.31,0,0,1,2.33-1.15l6.17,8.94L73,65.38a1.32,1.32,0,0,1,.3-1.32,1.29,1.29,0,0,1,1.3-.35l1.9.53-.13-3.34a1.31,1.31,0,0,1,2.17-1L80,61.13l8.6-9.45a1.34,1.34,0,0,1,1.27-.4,1.32,1.32,0,0,1,1,.92l2.4,8.29L95.27,57a1.31,1.31,0,0,1,2.44.75l-.36,5.67,1.52-.85a1.32,1.32,0,0,1,1.57.23,1.3,1.3,0,0,1,.2,1.58l-10,17.23L95.75,77a1.31,1.31,0,0,1,2.18.94l0,1.13,1.66-.61a1.32,1.32,0,0,1,1.76,1.14l.1,1.32,1.83.05a1.3,1.3,0,0,1,1.19.84,1.32,1.32,0,0,1-.33,1.43l-.94.88,4.17,2.42A1.31,1.31,0,0,1,107,89S94.3,91.39,89.08,92.3A24.54,24.54,0,0,1,84.78,92.71ZM68.61,84.13c3.28,1.53,9,4.18,10.52,4.8,2,.83,4.58,1.65,9.5.79,3.47-.61,10.27-1.87,14.41-2.65l-2.65-1.53a1.31,1.31,0,0,1-.33-2A1.32,1.32,0,0,1,99,82.34l0-.77-1.74.63A1.32,1.32,0,0,1,95.4,81v-.15L86.29,88.9a1.31,1.31,0,0,1-2-1.65L96.07,67a1.28,1.28,0,0,1-.89-.19,1.32,1.32,0,0,1-.6-1.19L94.74,63l-.84,1.43a1.37,1.37,0,0,1-1.3.64,1.31,1.31,0,0,1-1.09-.94l-2.59-9L81,63.85a1.33,1.33,0,0,1-1.83.11l-.15-.13.08,2.11a1.32,1.32,0,0,1-.5,1.09,1.3,1.3,0,0,1-1.17.23l-1.25-.36L82.87,87a1.31,1.31,0,0,1-2.33,1.16L73,77.23l0,0a1.31,1.31,0,0,1-1.27.39l-1-.24.46,1a1.31,1.31,0,0,1-.18,1.38,1.33,1.33,0,0,1-1.32.44L68.53,80l1.22,1.91a1.29,1.29,0,0,1,.17,1,1.37,1.37,0,0,1-.64.83Z"/><ellipse class="cls-4" cx="89.06" cy="146.61" rx="5.63" ry="7.2"/><path class="cls-2" d="M89.06,154.68c-3.59,0-6.51-3.62-6.51-8.07s2.92-8.07,6.51-8.07,6.51,3.62,6.51,8.07S92.65,154.68,89.06,154.68Zm0-14.39c-2.63,0-4.76,2.83-4.76,6.32s2.13,6.32,4.76,6.32,4.76-2.83,4.76-6.32S91.68,140.29,89.06,140.29Z"/><ellipse class="cls-4" cx="108.75" cy="146.61" rx="5.63" ry="7.2"/><path class="cls-2" d="M108.76,154.68c-3.59,0-6.51-3.62-6.51-8.07s2.92-8.07,6.51-8.07,6.5,3.62,6.5,8.07S112.34,154.68,108.76,154.68Zm0-14.39c-2.63,0-4.76,2.83-4.76,6.32s2.13,6.32,4.76,6.32,4.75-2.83,4.75-6.32S111.38,140.29,108.76,140.29Z"/><path class="cls-2" d="M113.75,136.69a.89.89,0,0,1-.73-.39,5.11,5.11,0,0,0-4.26-2,5.35,5.35,0,0,0-4,1.65.86.86,0,0,1-1.23.1.88.88,0,0,1-.1-1.24,7.08,7.08,0,0,1,5.37-2.26,6.88,6.88,0,0,1,5.71,2.73.88.88,0,0,1-.23,1.22A.91.91,0,0,1,113.75,136.69Z"/><path class="cls-2" d="M81.19,139.36a.8.8,0,0,1-.3-.06.87.87,0,0,1-.52-1.12,8.62,8.62,0,0,1,5.17-4.89,8.4,8.4,0,0,1,7.71.67.88.88,0,1,1-1,1.43,6.65,6.65,0,0,0-6.09-.46A6.86,6.86,0,0,0,82,138.78.88.88,0,0,1,81.19,139.36Z"/><ellipse class="cls-2" cx="107.94" cy="145.73" rx="2.57" ry="3.28"/><ellipse class="cls-2" cx="89.98" cy="145.73" rx="2.57" ry="3.28"/><path class="cls-4" d="M111,158.55s-4.7,3.24-8.89,3.76c-3.88.48-9.15-1.18-9.15-1.18,2.78,6.22,5.59,10.57,10.42,9.84C107.6,170.32,111,165.46,111,158.55Z"/><path class="cls-2" d="M102.32,171.93c-5.07,0-7.9-5.35-10.18-10.44a.88.88,0,0,1,.15-.94.89.89,0,0,1,.92-.25c.05,0,5.12,1.59,8.77,1.14,3.93-.48,8.46-3.58,8.5-3.61a.87.87,0,0,1,1.37.72c0,7.07-3.43,12.53-8.36,13.28A6.77,6.77,0,0,1,102.32,171.93Zm-7.8-9.47c2.5,5.2,4.93,8.23,8.71,7.65,3.62-.56,6.34-4.62,6.8-9.94a22.41,22.41,0,0,1-7.84,3A23.14,23.14,0,0,1,94.52,162.46Z"/><ellipse class="cls-2" cx="96.5" cy="156.49" rx="1.27" ry="0.82" transform="translate(-18.85 13.33) rotate(-7.2)"/><ellipse class="cls-2" cx="100.04" cy="156.05" rx="1.27" ry="0.82" transform="matrix(0.99, -0.13, 0.13, 0.99, -18.77, 13.77)"/></svg>