<svg id="Ebene_1" data-name="Ebene 1" xmlns="http://www.w3.org/2000/svg" viewBox="0 0 76 76"><defs><style>.cls-1{fill:#bfe54a;}.cls-2{fill:#1d1d1b;}.cls-3{fill:#9fb737;}</style></defs><title>opencelery</title><path class="cls-1" d="M30.86,35.15c1.48,6.09,1.4,12.85.78,21.69-.42,6.16,2.92,8.76,7.2,8.76,4.6,0,9.2-5.33,6.41-14.42-2.66-8.68,2.57-20.6,2.57-20.6l-2.25-.29-1.77,4.9v-4l-1.66.05a27.63,27.63,0,0,1-.41,9.89,48,48,0,0,0-1.26,7.67s-1.3-1.26-1.13-5.4,2.24-10.75,2.24-10.75l-3.89-.55s-1.54,15.16-2.31,15.12c-.35,0-.66-2.81-.44-5.56a47.63,47.63,0,0,0,0-6.38Z"/><path class="cls-2" d="M38.84,66a7.47,7.47,0,0,1-5.66-2.2c-1.52-1.62-2.17-4-2-7,.61-8.82.7-15.51-.78-21.56a.41.41,0,0,1,.09-.37.39.39,0,0,1,.34-.16l4.11.14a.42.42,0,0,1,.41.4,45.77,45.77,0,0,1,0,6.44A21,21,0,0,0,35.43,46c.51-2.35,1.28-8.38,1.84-13.89a.43.43,0,0,1,.16-.29.41.41,0,0,1,.32-.08l3.89.55a.4.4,0,0,1,.21.09c-.07-.63-.13-1-.13-1A.41.41,0,0,1,41.8,31a.49.49,0,0,1,.32-.16l1.67-.05a.47.47,0,0,1,.31.12.44.44,0,0,1,.13.31v1.55l.94-2.6a.41.41,0,0,1,.45-.28l2.25.29a.43.43,0,0,1,.32.22.42.42,0,0,1,0,.38c-.05.11-5.13,11.87-2.55,20.29,2,6.42.17,10.22-1.08,11.91A7.2,7.2,0,0,1,38.84,66ZM31.4,35.59c1.37,6,1.27,12.64.67,21.28-.19,2.79.39,4.94,1.73,6.38a6.64,6.64,0,0,0,5,1.92,6.33,6.33,0,0,0,5-2.72c1.15-1.56,2.81-5.09,1-11.15-2.39-7.79,1.38-17.94,2.37-20.36l-1.36-.18L44.2,35.33a.43.43,0,0,1-.47.28.44.44,0,0,1-.36-.42V31.64l-.74,0a28.9,28.9,0,0,1-.48,9.57,49.15,49.15,0,0,0-1.25,7.59.45.45,0,0,1-.27.39.43.43,0,0,1-.46-.09c-.06-.06-1.44-1.44-1.26-5.72A51.68,51.68,0,0,1,41,33l-3-.43c-1.55,15.12-2.25,15.1-2.71,15.07a.52.52,0,0,1-.37-.19c-.5-.56-.66-3.54-.48-5.83a44.73,44.73,0,0,0,.05-5.94Zm10.51-2.54c-.38,1.27-2,6.81-2.14,10.38a11,11,0,0,0,.41,3.9c.15-1.21.47-3.23,1.13-6.28A28.88,28.88,0,0,0,41.91,33.05Z"/><path class="cls-3" d="M42.55,31.06c-2.2.52-2.51-2.75-3.46-3S41,25.33,41,25.33l-3.78-8.59,1.57.29-.22-2,1.09.75,3.74-4.37,1.69,4.31,1.37-2.53v3.18l1.48-.9-5.32,10S44.74,30.55,42.55,31.06Z"/><path class="cls-2" d="M42.09,31.55c-1.34,0-2-1.28-2.47-2.16-.2-.38-.48-.9-.65-1a.64.64,0,0,1-.48-.5c-.15-.68.93-1.81,1.95-2.72l-3.65-8.3a.42.42,0,0,1,.06-.43.4.4,0,0,1,.41-.16l1,.19-.16-1.44a.43.43,0,0,1,.67-.4l.78.53L43,11.12a.4.4,0,0,1,.39-.14.43.43,0,0,1,.33.27l1.35,3.45L46.05,13a.42.42,0,0,1,.48-.21.43.43,0,0,1,.32.42V15.6l.84-.5a.44.44,0,0,1,.52.05.43.43,0,0,1,.08.51l-5.22,9.78c.32.83,1.38,3.74.63,5.21a1.56,1.56,0,0,1-1.06.83h0A2.18,2.18,0,0,1,42.09,31.55Zm-2.73-3.88a2.86,2.86,0,0,1,1,1.32c.61,1.16,1.08,1.89,2.08,1.66h0a.74.74,0,0,0,.49-.39c.55-1.08-.35-3.74-.74-4.68a.44.44,0,0,1,0-.37l4.59-8.58-.16.09a.43.43,0,0,1-.65-.36v-1.5l-.58,1.05a.41.41,0,0,1-.4.23.44.44,0,0,1-.37-.27l-1.43-3.65L40,16.05a.43.43,0,0,1-.57.08l-.32-.23L39.18,17a.5.5,0,0,1-.13.37.42.42,0,0,1-.37.1l-.78-.14,3.45,7.85a.43.43,0,0,1-.11.5A9.15,9.15,0,0,0,39.36,27.67Z"/><path class="cls-3" d="M35.17,28.44a7.67,7.67,0,0,1-4.35.5c-1-.17.49-3.88.49-3.88l-3.85-8.61,1.59.1-.47-2,1.18.61,3.18-4.79,2.2,4.07,1.06-2.68L36.59,15,38,13.88l-1.8,9.9S37.29,27.66,35.17,28.44Z"/><path class="cls-2" d="M32.11,29.49a8,8,0,0,1-1.36-.13.77.77,0,0,1-.54-.39c-.46-.82.3-3,.64-3.9l-3.78-8.45a.4.4,0,0,1,0-.41.42.42,0,0,1,.37-.19l1,.07-.33-1.41a.42.42,0,0,1,.61-.48l.84.44,3-4.48A.42.42,0,0,1,33,10a.43.43,0,0,1,.36.23l1.76,3.26.72-1.83a.41.41,0,0,1,.45-.26.42.42,0,0,1,.37.37l.3,2.41.77-.61a.44.44,0,0,1,.49,0,.45.45,0,0,1,.2.45l-1.78,9.8c.17.66,1,4.24-1.28,5.08A9.25,9.25,0,0,1,32.11,29.49Zm-1.17-1A7.27,7.27,0,0,0,35,28c1.69-.62.74-4.11.73-4.15a.61.61,0,0,1,0-.19l1.6-8.79-.49.38a.42.42,0,0,1-.42.05.4.4,0,0,1-.26-.34L36,13.51l-.44,1.12a.44.44,0,0,1-.37.27.42.42,0,0,1-.4-.22l-1.86-3.45-2.79,4.2a.44.44,0,0,1-.56.14l-.34-.18.25,1.06A.44.44,0,0,1,29,17l-.89-.06,3.56,8a.42.42,0,0,1,0,.33A8.06,8.06,0,0,0,30.94,28.53Z"/><path class="cls-1" d="M23,33.48s5.05-2.16,7.11-3.07a7.69,7.69,0,0,0,3.48-2.67c.58-.8,3.35-4.95,3.35-4.95l-1.4.15.06-2.23L34.25,22l-.18-1.51L33,21.66l-.54-2.2-.53,8.08L29.71,18.4l-1.08,1.19-1-1.75-.42,1.27-5.62-1.24,1.25,4.46-2.62-1.19,1.91,2.54-1.72.18,10.24,4.73-6.13-.66.6,1-1.46.38.47.87L23,30.89l1.25.17Z"/><path class="cls-2" d="M23,33.91a.43.43,0,0,1-.31-.14.41.41,0,0,1-.06-.49l1-1.88L23,31.32a.43.43,0,0,1-.36-.33.44.44,0,0,1,.17-.45l.75-.51-.29-.53a.44.44,0,0,1,0-.37.48.48,0,0,1,.29-.25l.91-.23-.3-.5a.43.43,0,0,1,0-.45.41.41,0,0,1,.4-.2l3.54.38L20.2,24.25a.42.42,0,0,1-.24-.46.41.41,0,0,1,.37-.35l1-.11L19.85,21.4a.42.42,0,0,1,.51-.65l1.79.81-1-3.57a.44.44,0,0,1,.1-.41.4.4,0,0,1,.4-.12l5.25,1.15.29-.9a.45.45,0,0,1,.36-.29.43.43,0,0,1,.42.21l.73,1.24.69-.75a.43.43,0,0,1,.43-.13.41.41,0,0,1,.3.32l1.52,6.37L32,19.43a.44.44,0,0,1,.39-.4.42.42,0,0,1,.45.33l.36,1.46.58-.59a.45.45,0,0,1,.44-.1.42.42,0,0,1,.29.35l.08.62.67-.69a.45.45,0,0,1,.48-.09.44.44,0,0,1,.26.4l0,1.74.91-.1a.41.41,0,0,1,.41.2.43.43,0,0,1,0,.46c-.11.17-2.78,4.18-3.36,5a8.12,8.12,0,0,1-3.65,2.81c-2,.9-7.06,3.05-7.11,3.07A.33.33,0,0,1,23,33.91Zm1.24-3.29.15,0a.42.42,0,0,1,.31.63l-.73,1.33c1.62-.69,4.53-2,6-2.58a7.25,7.25,0,0,0,3.3-2.53c.42-.57,2-2.94,2.83-4.18l-.49.05a.38.38,0,0,1-.33-.11.43.43,0,0,1-.14-.32l0-1.14-.54.55a.43.43,0,0,1-.73-.25l-.07-.63-.5.5a.41.41,0,0,1-.41.11.46.46,0,0,1-.17-.09l-.37,5.58a.43.43,0,0,1-.84.08l-2-8.35-.53.58a.46.46,0,0,1-.36.14.42.42,0,0,1-.33-.21l-.55-.93-.13.37a.41.41,0,0,1-.49.28l-4.93-1.08,1.06,3.77a.41.41,0,0,1-.13.44.42.42,0,0,1-.45.07l-1.1-.5.9,1.2a.4.4,0,0,1,0,.43.41.41,0,0,1-.34.25l-.18,0L30.8,28.2a.44.44,0,0,1,.24.5.43.43,0,0,1-.46.31l-5.28-.57.16.26a.42.42,0,0,1-.26.63l-.94.24.21.39a.42.42,0,0,1-.13.56Z"/><path class="cls-1" d="M49.82,29.14s-4.67,2-6.6,2.79a6.56,6.56,0,0,1-4,.54c-.91-.15-5.48-1.17-5.48-1.17l1-.87L33.19,28.9l1.72,0-.9-1.2,1.47,0-1.13-1.94,5.78,5.36-4.77-8,1.48.09-.52-2,1.12.6,2.75-4.81,2.2,4,.87-2.68.49,3.14L45,20.51,41.63,31l3.46-4.76.29,1.12,1.19-.76.28.95L48,27.36l-.68,1Z"/><path class="cls-2" d="M40.35,33a7.45,7.45,0,0,1-1.21-.11c-.92-.16-5.31-1.14-5.5-1.18a.41.41,0,0,1-.32-.31.44.44,0,0,1,.13-.43l.65-.57L32.89,29.2a.41.41,0,0,1-.09-.47.4.4,0,0,1,.4-.26H34L33.67,28a.43.43,0,0,1,0-.45.41.41,0,0,1,.39-.23h.71L34,26a.43.43,0,0,1,.66-.53l3.6,3.33L35,23.39A.43.43,0,0,1,35,23a.43.43,0,0,1,.39-.2l.9.05-.37-1.39a.43.43,0,0,1,.15-.45.44.44,0,0,1,.47,0l.75.41,2.54-4.45a.41.41,0,0,1,.38-.21.42.42,0,0,1,.37.22l1.72,3.17.57-1.74a.43.43,0,0,1,.83.06l.37,2.37.63-.56a.44.44,0,0,1,.52,0,.43.43,0,0,1,.17.49l-2.54,8L44.75,26a.39.39,0,0,1,.42-.17.43.43,0,0,1,.34.31l.14.55.69-.44a.42.42,0,0,1,.38,0,.45.45,0,0,1,.26.28l.17.57.79-.15a.43.43,0,0,1,.44.18.42.42,0,0,1,0,.48l-.35.52,1.93.61a.43.43,0,0,1,0,.8s-4.69,2-6.6,2.8A7.8,7.8,0,0,1,40.35,33Zm-5.7-1.94c1.36.3,4,.87,4.63,1a6.13,6.13,0,0,0,3.77-.51l5.54-2.34-1.38-.44a.41.41,0,0,1-.27-.27.4.4,0,0,1,.05-.38l.09-.13-.14,0a.44.44,0,0,1-.5-.3l-.12-.41-.71.46a.44.44,0,0,1-.39,0A.41.41,0,0,1,45,27.5l-.07-.24-2.92,4a.44.44,0,0,1-.54.13.42.42,0,0,1-.21-.51l2.87-9.06-.06.06a.42.42,0,0,1-.43.08.43.43,0,0,1-.28-.33l-.21-1.38-.32,1a.44.44,0,0,1-.37.3.44.44,0,0,1-.41-.23L40.18,18l-2.37,4.14a.43.43,0,0,1-.57.17L37,22.14l.26,1a.41.41,0,0,1-.08.38.44.44,0,0,1-.35.15l-.69,0L40.49,31a.43.43,0,0,1-.09.55.44.44,0,0,1-.56,0L35.9,27.83a.39.39,0,0,1,0,.14.42.42,0,0,1-.37.21h-.6l.37.5a.42.42,0,0,1-.35.68h-.66l.79.79a.46.46,0,0,1,.13.32.42.42,0,0,1-.15.3Z"/><path class="cls-1" d="M55.81,30.5s-5.07.21-7.16.26a6.61,6.61,0,0,1-3.94-.92c-.79-.47-4.7-3.05-4.7-3.05l1.24-.46-.89-2L42,25l-.41-1.43,1.37.54-.37-2.22L46,29l-1.61-9.17,1.36.6.21-2,.83,1,4.29-3.51.61,4.56,1.77-2.2-.66,3.11,1.53-.57-6.88,8.64,4.93-3.21-.13,1.15L53.67,27l-.07,1,1.17.2-1,.69Z"/><path class="cls-2" d="M48.33,31.2a6.94,6.94,0,0,1-3.84-1c-.79-.48-4.55-2.95-4.71-3.06a.41.41,0,0,1-.19-.4.44.44,0,0,1,.28-.36l.81-.3L40,24.53a.45.45,0,0,1,.09-.48.44.44,0,0,1,.46-.1l.79.32-.17-.59a.42.42,0,0,1,.12-.44.44.44,0,0,1,.45-.08l.66.26L42.12,22a.44.44,0,0,1,.3-.48.43.43,0,0,1,.51.22l2.17,4.4L44,19.85a.42.42,0,0,1,.16-.41.4.4,0,0,1,.43-.05l.82.36.16-1.43a.42.42,0,0,1,.29-.36.44.44,0,0,1,.46.13l.55.65,4-3.25a.45.45,0,0,1,.43-.07.43.43,0,0,1,.27.34L52,19.34l1.15-1.43a.43.43,0,0,1,.75.36l-.5,2.35.8-.3a.41.41,0,0,1,.49.15.44.44,0,0,1,0,.52l-5.23,6.57,2.72-1.77a.43.43,0,0,1,.45,0,.44.44,0,0,1,.2.42l-.06.56.8-.16a.44.44,0,0,1,.37.09.44.44,0,0,1,.15.36l-.05.6.79.13a.43.43,0,0,1,.17.78l-.51.35,1.58,1.26a.44.44,0,0,1,.14.47.43.43,0,0,1-.39.29s-5.1.2-7.17.26ZM41,26.9c1.16.76,3.41,2.23,4,2.57a6.08,6.08,0,0,0,3.71.87c1.45,0,4.38-.15,6-.22l-1.14-.9a.45.45,0,0,1-.16-.35.47.47,0,0,1,.19-.34l.13-.08-.15,0a.43.43,0,0,1-.35-.45l0-.42-.83.17a.46.46,0,0,1-.37-.11.43.43,0,0,1-.14-.36l0-.25-4.17,2.72a.44.44,0,0,1-.55-.07.44.44,0,0,1,0-.56l5.91-7.43-.08,0a.42.42,0,0,1-.43-.07.44.44,0,0,1-.14-.42l.29-1.36-.64.8a.44.44,0,0,1-.45.15.43.43,0,0,1-.31-.36l-.52-3.8-3.69,3a.41.41,0,0,1-.59-.05l-.19-.22-.11,1a.38.38,0,0,1-.21.32.41.41,0,0,1-.39,0L45,20.49l1.47,8.38a.43.43,0,0,1-.29.48.42.42,0,0,1-.52-.22l-2.37-4.81a.52.52,0,0,1-.1.11.4.4,0,0,1-.42.06l-.56-.22.17.6a.42.42,0,0,1-.12.44.43.43,0,0,1-.45.08l-.61-.25.45,1a.45.45,0,0,1,0,.34.49.49,0,0,1-.25.24Z"/><path class="cls-1" d="M40.93,34.73s-4.13.78-5.83,1.08a5.5,5.5,0,0,1-3.33-.29c-.71-.29-4.21-1.92-4.21-1.92l1-.53-1-1.52,1.39.34-.51-1.13,1.18.28L29,29.27l3.71,5.36-2.42-7.31,1.18.34L31.45,26l.79.69,3.08-3.39,1.06,3.66,1.18-2-.17,2.62,1.18-.65L34,34.8l3.64-3.23,0,1,1.1-.4.06.82,1,0-.72.68Z"/><path class="cls-2" d="M33.78,36.36a5.46,5.46,0,0,1-2.17-.44c-.71-.3-4.09-1.87-4.23-1.94a.43.43,0,0,1-.25-.37.44.44,0,0,1,.22-.39l.56-.31-.72-1.13a.42.42,0,0,1,0-.47.43.43,0,0,1,.45-.17l.54.13L28,30.94a.41.41,0,0,1,.06-.45.42.42,0,0,1,.42-.14l.45.1-.34-1.05a.43.43,0,0,1,.22-.51.41.41,0,0,1,.54.14l2,2.91-1.49-4.48A.42.42,0,0,1,30,27a.42.42,0,0,1,.42-.12l.62.18L31,26a.42.42,0,0,1,.24-.4.43.43,0,0,1,.47.06l.47.41L35,23a.41.41,0,0,1,.41-.12.4.4,0,0,1,.31.29l.78,2.7.68-1.15A.43.43,0,0,1,38,25l-.12,1.85.5-.27a.41.41,0,0,1,.51.07.42.42,0,0,1,.06.51l-3.26,5.62,1.67-1.48a.43.43,0,0,1,.71.31v.37l.54-.2a.43.43,0,0,1,.38.05.4.4,0,0,1,.2.32l0,.43.6,0a.41.41,0,0,1,.38.27.43.43,0,0,1-.1.47l-.31.28,1.36.79a.43.43,0,0,1,.2.44.41.41,0,0,1-.34.35s-4.13.78-5.83,1.08A8.46,8.46,0,0,1,33.78,36.36Zm-5.27-2.8c1.07.5,2.94,1.37,3.42,1.57a5,5,0,0,0,3.1.25c1.13-.19,3.35-.61,4.69-.86l-.86-.5a.44.44,0,0,1-.21-.32.44.44,0,0,1,.1-.33.44.44,0,0,1-.36-.39v-.25l-.57.2a.45.45,0,0,1-.39,0,.43.43,0,0,1-.18-.34v0l-3,2.62a.45.45,0,0,1-.56,0,.43.43,0,0,1-.09-.55L37.45,28a.39.39,0,0,1-.29-.06.42.42,0,0,1-.19-.39l.05-.83-.27.46a.44.44,0,0,1-.43.21.4.4,0,0,1-.35-.31l-.84-2.92L32.56,27a.44.44,0,0,1-.6,0l-.05,0,0,.69a.45.45,0,0,1-.16.35.44.44,0,0,1-.38.08L31,28l2.16,6.55a.41.41,0,0,1-.21.51.43.43,0,0,1-.55-.14l-2.45-3.55h0a.44.44,0,0,1-.41.13l-.34-.08.16.33a.46.46,0,0,1-.06.45.45.45,0,0,1-.43.14l-.36-.08.4.62a.45.45,0,0,1,.05.34.43.43,0,0,1-.21.27Z"/></svg>