<svg id="Ebene_1" data-name="Ebene 1" xmlns="http://www.w3.org/2000/svg" viewBox="0 0 934.31 150.5"><defs><style>.cls-1{fill:#3b52ff;}.cls-2{fill:#00e6a7;}.cls-3{fill:#fb7363;}</style></defs><title>Protontypes</title><path class="cls-1" d="M36.88,71.17H11.19a60,60,0,0,1,60-60V36.89A34.32,34.32,0,0,0,36.88,71.17Z"/><path class="cls-2" d="M122,135.85a60,60,0,0,1-60-60H87.75A34.32,34.32,0,0,0,122,110.17Z"/><path d="M228.7,81.89c0,19.79-14.18,35.93-32,35.93-9.55,0-17-3.93-21.76-11.09v32.43h-19.8V47.5h19.8v9.68c4.77-7.16,12.21-11.09,21.76-11.09C214.52,46.09,228.7,62.09,228.7,81.89Zm-19.37,0a17.2,17.2,0,0,0-34.39,0c0,9.68,7.58,17,17.26,17A16.9,16.9,0,0,0,209.33,81.89Z"/><path d="M284,46.93v18a31.56,31.56,0,0,0-7.17-1c-9.54,0-17.26,5.75-17.26,18.53v34h-19.8V47.5h19.8v7.86a20.75,20.75,0,0,1,17.83-9.27A37.16,37.16,0,0,1,284,46.93Z"/><path d="M565.16,77.4v39H545.37V79.92c0-9-5.48-14.88-13.62-14.88s-13.61,5.9-13.61,14.88v36.5H498.35V47.5h19.79v9c4.35-6.6,10.8-10.39,18.67-10.39C554.5,46.09,565.16,57.88,565.16,77.4Z"/><path d="M603.76,66.31V88.06c0,7.44,5,10.67,11.93,10.67a20,20,0,0,0,5.06-.56v18.25a43.45,43.45,0,0,1-9.55,1.12c-16.28,0-27.23-10.67-27.23-29.2v-22H571.19V47.5H584V29.39h19.79V47.5h17V66.31Z"/><path d="M699.07,47.5l-38.32,91.8h-21.2l12.78-28.5L625.8,47.5h21.33l15.3,40.28,15.3-40.28Z"/><path d="M780.76,81.89c0,19.79-14.17,35.93-32,35.93-9.55,0-17-3.93-21.76-11.09v32.43H707.21V47.5H727v9.68c4.78-7.16,12.21-11.09,21.76-11.09C766.59,46.09,780.76,62.09,780.76,81.89Zm-19.37,0a17.2,17.2,0,0,0-34.39,0c0,9.68,7.58,17,17.27,17A16.89,16.89,0,0,0,761.39,81.89Z"/><path d="M857.41,86.66H806.17c1.4,9,8.28,14.74,17.54,14.74,7.73,0,12.64-3.37,13.76-8.14h19.37c-2.24,14.88-15.3,24.56-32.57,24.56a35.77,35.77,0,0,1-36.21-36.21c0-20.08,15.72-35.52,35.79-35.52,18.67,0,34,14.6,34,33.55A69,69,0,0,1,857.41,86.66ZM837.19,74c-.56-7-6.88-11.94-14.18-11.94-7.57,0-13.47,3.79-15.86,11.94Z"/><path d="M864.56,93.54h18c.42,4.77,5.75,8.28,12.21,8.28,6.74,0,10.25-2.53,10.25-6.32,0-12.49-39-.42-39-28.21,0-11.51,10.24-21.2,26.94-21.2,15,0,27.94,8,29.63,22.6H903.59c-.56-3.93-5.06-7-10.39-7-5.76,0-9.12,2.25-9.12,5.62,0,11.93,39.16-2.25,39.16,28.21,0,12.64-11.8,22.32-27.24,22.32C878.18,117.82,866,108.7,864.56,93.54Z"/><path d="M393.09,66.17V87.92c0,7.44,5.05,10.67,11.93,10.67a20,20,0,0,0,5.06-.56v18.25a43.45,43.45,0,0,1-9.55,1.12c-16.28,0-27.23-10.67-27.23-29.2v-22H360.52V47.36H373.3V29.25h19.79V47.36h17V66.17Z"/><path class="cls-3" d="M320.8,46h0Z"/><path d="M320.8,98.73c-9.41,0-16.42-7.3-16.42-16.84v0H285s0,0,0,0c0,20.49,15.45,35.79,35.8,35.79h0v-19Z"/><path d="M339.86,51.24a36.33,36.33,0,0,0-19-5.29v19c9.24,0,16.38,7.15,16.4,16.95v0c0,9.54-7.14,16.83-16.4,16.84v19c20.21,0,35.77-15.31,35.77-35.79C356.59,68.58,350,57.44,339.86,51.24Z"/><path class="cls-1" d="M320.8,64.9h0V46h-.05C300.45,46,285,61.38,285,81.85h19.37C304.4,72,311.41,64.9,320.8,64.9Z"/><path class="cls-2" d="M450.88,98.67c-9.4,0-16.42-7.3-16.42-16.85v0H415.09v0c0,20.49,15.44,35.8,35.79,35.8h0v-19Z"/><path d="M470,51.17a36.24,36.24,0,0,0-19-5.28v19c9.24,0,16.37,7.14,16.39,16.94,0,0,0,0,0,0,0,9.54-7.15,16.83-16.4,16.84v19c20.2,0,35.77-15.31,35.77-35.8C486.68,68.51,480.09,57.37,470,51.17Z"/><path d="M450.88,64.83h0v-19h-.05c-20.32,0-35.75,15.42-35.77,35.89h19.37C434.49,72,441.49,64.83,450.88,64.83Z"/></svg>