<?xml version="1.0" standalone="no"?>
<!DOCTYPE svg PUBLIC "-//W3C//DTD SVG 20010904//EN"
 "http://www.w3.org/TR/2001/REC-SVG-20010904/DTD/svg10.dtd">
<svg version="1.0" xmlns="http://www.w3.org/2000/svg"
 width="970.000000pt" height="746.000000pt" viewBox="0 0 970.000000 746.000000"
 preserveAspectRatio="xMidYMid meet">
<metadata>
Created by potrace 1.15, written by Peter Selinger 2001-2017
</metadata>
<g transform="translate(0.000000,746.000000) scale(0.100000,-0.100000)"
fill="#000000" stroke="none">
<path d="M5136 7216 c-4 -63 -2 -123 4 -151 12 -53 5 -70 -16 -41 -23 33 -16
8 24 -78 35 -75 38 -88 36 -164 0 -45 -4 -85 -7 -89 -11 -10 -35 17 -68 74
-21 37 -36 53 -46 49 -8 -3 -17 -6 -19 -6 -2 0 -4 -6 -4 -14 0 -8 -6 -14 -12
-13 -51 2 -69 -5 -80 -28 -6 -14 -16 -25 -22 -25 -6 0 -20 -14 -31 -30 -11
-16 -23 -30 -27 -30 -5 0 -8 -11 -8 -25 0 -18 -4 -23 -15 -19 -9 4 -24 -3 -36
-17 -18 -21 -19 -24 -5 -27 23 -5 20 -22 -3 -22 -20 0 -37 -32 -26 -50 3 -5 2
-10 -4 -10 -5 0 -13 -9 -16 -20 -3 -11 -12 -20 -20 -20 -8 0 -11 7 -8 20 3 12
0 20 -6 20 -7 0 -9 5 -6 10 3 6 -1 10 -9 10 -9 0 -16 -5 -16 -10 0 -6 -11 -16
-25 -22 -14 -6 -25 -15 -25 -20 0 -5 5 -6 10 -3 6 3 10 1 10 -5 0 -7 12 -9 30
-6 22 3 30 0 30 -10 0 -17 -47 -37 -72 -31 -19 5 -42 -15 -31 -27 4 -4 0 -4
-10 0 -9 3 -24 0 -33 -7 -9 -7 -26 -18 -37 -24 -53 -26 -17 -79 85 -128 74
-35 101 -40 168 -29 49 9 51 10 17 11 -24 1 -36 5 -32 11 4 6 14 8 24 5 9 -3
39 -1 66 4 63 12 82 5 59 -20 -9 -10 -21 -16 -25 -13 -5 3 -16 1 -25 -4 -17
-9 21 -21 118 -37 36 -6 37 -8 37 -43 -1 -60 5 -98 20 -116 8 -9 12 -18 10
-19 -2 -1 -20 -10 -39 -19 l-35 -15 36 -16 c20 -8 39 -19 42 -24 3 -5 -7 -29
-24 -54 -37 -57 -63 -133 -56 -168 3 -16 21 -59 39 -97 32 -68 33 -71 33 -209
l0 -140 -35 -45 c-19 -25 -51 -63 -71 -85 -20 -22 -71 -80 -115 -130 -43 -49
-82 -91 -86 -93 -5 -2 -8 -8 -8 -14 0 -6 -11 -19 -25 -30 -14 -11 -23 -24 -20
-29 4 -5 -1 -9 -9 -9 -15 0 -32 -18 -23 -26 2 -2 56 12 119 32 96 31 117 42
131 66 10 17 22 26 30 22 8 -3 34 10 58 28 24 19 80 58 124 89 44 30 104 72
133 92 55 39 74 37 22 -3 -17 -13 -30 -32 -30 -44 1 -18 2 -19 13 -6 7 8 23
16 37 17 14 1 20 -1 13 -3 -8 -4 -10 -16 -6 -35 3 -18 1 -29 -6 -29 -6 0 -11
7 -11 15 0 13 -2 14 -14 3 -9 -9 -11 -19 -5 -30 13 -24 11 -28 -11 -28 -12 0
-20 -7 -20 -16 0 -8 -6 -21 -12 -28 -7 -7 -24 -27 -38 -45 -14 -18 -31 -38
-38 -44 -66 -58 -89 -96 -59 -98 65 -5 171 25 240 68 80 50 234 173 295 235
97 100 119 133 127 188 5 39 14 56 38 76 22 19 32 38 38 72 9 60 2 176 -11
180 -6 2 -7 9 -3 15 4 6 9 27 12 46 4 21 13 36 26 41 22 8 23 6 30 -95 10
-149 18 -204 32 -209 8 -3 11 -2 8 3 -3 5 -1 12 4 15 5 4 12 2 16 -4 4 -7 12
-7 25 0 27 15 32 12 20 -10 -6 -11 -17 -20 -25 -20 -15 0 -40 -35 -94 -135
-65 -119 -183 -252 -315 -355 -141 -110 -147 -115 -184 -130 -28 -11 -35 -11
-42 0 -5 7 -15 10 -25 6 -14 -5 -15 -9 -5 -21 10 -12 9 -15 -4 -15 -9 0 -16 6
-16 14 0 12 -7 12 -46 0 -25 -7 -72 -14 -105 -15 -33 -1 -62 -6 -65 -11 -9
-15 -25 -8 -23 10 3 35 -2 42 -31 42 -34 0 -37 6 -13 32 9 10 14 21 11 24 -6
5 -116 -43 -128 -56 -7 -7 -146 -75 -235 -115 -95 -43 -168 -77 -315 -148 -69
-33 -180 -86 -247 -118 -67 -32 -124 -63 -128 -69 -14 -22 5 -22 52 0 81 37
161 70 170 70 3 0 0 -7 -7 -15 -7 -8 -8 -15 -2 -15 5 0 15 7 22 15 7 8 10 15
6 15 -3 0 3 9 14 20 20 20 56 28 45 11 -3 -6 3 -15 12 -20 17 -10 17 -12 -2
-23 -11 -7 -63 -33 -115 -58 -52 -25 -126 -63 -165 -86 -38 -22 -126 -68 -195
-103 -125 -64 -337 -175 -375 -198 -11 -6 -36 -20 -55 -31 -19 -11 -57 -32
-85 -47 -27 -16 -78 -43 -113 -61 -34 -18 -74 -41 -90 -51 -15 -11 -46 -28
-69 -38 -24 -11 -43 -23 -43 -27 0 -5 -4 -8 -10 -8 -5 0 -44 -20 -86 -45 -41
-25 -78 -45 -80 -45 -2 0 -23 -12 -47 -27 -23 -14 -64 -39 -92 -54 -27 -15
-75 -41 -105 -58 -30 -17 -75 -41 -100 -53 -25 -13 -47 -27 -49 -31 -2 -5 -13
-13 -25 -18 -11 -5 -33 -17 -47 -27 -46 -31 -112 -74 -199 -131 -47 -30 -116
-80 -155 -110 -86 -69 -133 -101 -146 -101 -6 0 -8 -4 -5 -8 3 -5 -5 -15 -16
-23 -12 -8 -62 -54 -112 -102 -50 -49 -102 -99 -116 -111 -14 -11 -30 -27 -34
-34 -12 -21 31 7 66 41 15 15 31 26 35 25 9 -3 35 16 61 46 9 10 27 30 39 43
12 13 24 24 27 24 28 -4 37 1 32 15 -4 9 -2 13 5 8 6 -4 15 0 20 7 7 12 12 12
30 1 18 -11 23 -12 30 -1 4 8 10 11 13 8 3 -3 -2 -13 -12 -22 -275 -262 -312
-300 -299 -313 12 -12 97 55 97 76 0 5 5 10 10 10 18 0 10 -15 -35 -65 -24
-28 -49 -63 -55 -80 -8 -24 5 -14 72 53 45 46 99 93 120 103 21 11 38 24 38
30 0 6 9 8 19 4 11 -3 22 -1 26 5 3 5 13 10 21 10 12 0 363 241 419 288 6 5
42 30 80 55 38 26 66 47 61 47 -5 0 -33 -16 -62 -35 -29 -19 -57 -35 -62 -35
-6 0 -17 -6 -24 -12 -36 -33 -81 -59 -99 -56 -14 2 7 21 77 68 52 36 117 76
142 90 67 36 123 76 116 83 -3 3 4 3 15 0 15 -4 21 -1 19 8 -2 9 5 13 20 11
14 -2 21 1 20 9 -2 7 2 14 7 14 6 1 23 7 38 13 16 7 34 12 40 12 8 0 7 3 -2 9
-11 7 -9 12 10 22 13 7 26 12 29 12 10 -1 36 11 73 34 22 14 45 22 53 19 9 -3
12 -1 9 4 -3 6 3 10 14 10 12 0 21 5 21 10 0 6 7 10 17 10 9 0 13 3 10 7 -11
10 51 33 71 27 12 -4 13 -3 4 3 -8 7 11 20 65 46 43 20 131 61 196 92 65 31
125 54 133 51 8 -3 13 -2 10 3 -8 12 80 55 95 46 7 -5 10 -4 6 2 -4 6 9 17 31
26 20 8 105 47 187 87 83 39 159 75 170 80 43 18 244 108 393 176 29 13 55 24
57 24 3 0 40 16 82 36 43 20 116 52 163 71 103 42 200 93 200 105 0 4 10 7 23
5 12 -2 16 -2 8 0 -8 3 -1 12 20 25 19 12 29 23 22 25 -6 2 -21 -5 -33 -17
-18 -18 -24 -19 -38 -8 -9 7 -13 8 -9 2 3 -6 -4 -16 -18 -22 -15 -7 -26 -8
-30 -2 -4 6 0 10 7 10 7 0 19 9 26 20 7 11 17 20 24 20 6 0 26 11 45 26 18 14
33 22 33 19 0 -3 9 2 19 12 11 10 46 34 78 52 32 19 81 49 108 67 28 17 118
71 200 119 83 48 188 110 234 137 46 28 100 52 118 55 19 3 37 12 40 19 2 6
18 18 34 24 16 7 26 16 24 21 -3 4 17 19 45 33 27 14 50 23 50 20 0 -3 7 2 16
10 8 9 26 16 40 16 13 0 24 4 24 10 0 10 71 32 79 24 3 -3 -1 -14 -8 -25 -12
-21 -6 -42 7 -24 4 6 12 10 17 10 6 0 34 9 63 19 59 20 69 18 52 -13 -9 -18
-8 -21 12 -22 13 0 32 -4 42 -8 17 -7 16 -10 -15 -39 -47 -45 -151 -113 -239
-159 -92 -47 -130 -72 -130 -85 0 -10 19 -8 80 8 17 5 22 3 15 -4 -5 -5 -19
-12 -30 -15 -11 -3 -4 -5 17 -6 21 0 55 5 75 13 32 13 206 66 266 83 16 4 17
2 9 -14 -6 -11 -7 -25 -2 -33 7 -12 10 -11 15 5 13 40 40 95 47 95 4 0 15 -11
26 -25 23 -29 32 -32 32 -9 0 9 7 31 16 50 15 32 18 33 34 19 20 -18 30 -19
30 -2 0 7 6 22 14 32 13 18 14 18 10 -10 -4 -25 -3 -27 5 -10 11 22 14 14 11
-29 -1 -18 2 -26 9 -22 6 4 11 3 11 -3 0 -5 12 -11 27 -13 32 -4 61 -47 40
-60 -9 -6 -8 -8 2 -8 16 0 6 -71 -12 -82 -7 -4 -8 -8 -2 -8 11 0 65 61 65 73
0 5 6 5 13 0 22 -14 41 -12 95 7 57 22 102 26 102 10 0 -5 -10 -10 -22 -10
-18 0 -20 -2 -8 -10 10 -6 24 -2 47 16 38 29 44 30 37 7 -4 -11 -2 -14 3 -8
16 19 53 35 83 35 17 0 30 5 30 13 0 8 4 7 10 -3 8 -13 13 -13 31 -1 18 10 16
5 -10 -28 -18 -22 -37 -41 -42 -41 -6 0 -7 5 -4 11 8 12 -129 -83 -161 -112
-11 -11 -24 -19 -30 -19 -15 0 -114 -72 -109 -80 2 -4 -20 -20 -50 -35 -30
-15 -55 -31 -55 -36 0 -5 -6 -9 -13 -9 -7 0 -22 -7 -33 -15 -10 -9 8 -4 40 10
33 14 61 24 63 21 5 -5 -58 -42 -88 -51 -13 -4 -30 -13 -38 -19 -12 -9 -13 -7
-7 8 7 20 7 20 -16 1 -54 -45 -78 -69 -78 -78 0 -5 17 7 37 27 21 20 41 36 45
36 18 0 5 -18 -47 -65 -30 -28 -55 -55 -55 -61 0 -14 23 -24 54 -24 15 0 22
-6 22 -20 0 -11 -6 -20 -12 -20 -6 0 -17 -7 -24 -15 -10 -12 -10 -15 3 -15 31
0 5 -30 -27 -31 -23 -1 -25 -3 -8 -6 42 -8 23 -32 -43 -52 -22 -7 -46 -15 -52
-17 -7 -3 -13 -1 -13 5 0 6 7 11 15 11 8 0 15 7 15 15 0 19 -2 19 -45 -2 -26
-12 -38 -14 -46 -6 -9 9 -22 5 -51 -15 -22 -14 -36 -28 -30 -30 6 -2 22 4 37
14 14 9 29 13 33 10 10 -10 -27 -36 -51 -36 -10 0 -21 -8 -24 -18 -3 -15 -142
-92 -164 -92 -3 0 -5 12 -4 28 2 26 22 73 54 121 9 14 14 34 13 46 -2 12 8 32
20 46 37 40 144 259 162 333 14 52 16 88 10 157 -3 49 -9 89 -13 89 -3 -1 -19
-11 -34 -24 -24 -19 -26 -24 -13 -29 9 -4 16 -11 16 -17 0 -6 -7 -4 -16 4 -8
9 -20 16 -25 16 -12 0 -12 -17 1 -25 6 -4 8 -11 5 -16 -4 -5 10 -9 29 -9 40 0
43 -4 21 -26 -11 -11 -13 -30 -10 -72 8 -99 4 -106 -96 -158 -49 -26 -89 -52
-89 -57 0 -5 5 -5 13 1 14 12 106 37 112 30 9 -9 -35 -85 -57 -100 -32 -20
-207 -100 -393 -178 -72 -31 -110 -53 -135 -81 -19 -21 -47 -41 -62 -45 -16
-3 -25 -10 -22 -15 3 -5 37 7 76 27 107 54 308 122 338 114 24 -6 23 -7 -13
-19 -55 -19 -39 -24 19 -6 61 19 60 19 40 -4 -9 -10 -14 -25 -10 -34 8 -23
-20 -38 -214 -116 -184 -74 -238 -102 -235 -120 2 -6 -4 -11 -13 -11 -8 0 -12
-4 -9 -10 11 -17 37 -11 42 10 4 15 14 20 42 20 22 0 65 13 102 31 35 18 85
34 112 37 43 4 47 3 47 -17 0 -18 4 -21 20 -16 23 7 133 -22 128 -34 -2 -5
-22 -24 -45 -44 -23 -19 -40 -37 -37 -40 3 -2 -9 -19 -26 -36 -25 -24 -37 -30
-58 -25 -15 3 -22 2 -16 -3 6 -4 14 -18 18 -29 7 -23 -13 -34 -63 -34 -16 0
-21 -4 -17 -15 3 -9 -3 -19 -15 -26 -16 -8 -25 -7 -39 6 -18 16 -20 16 -36 1
-13 -14 -27 -15 -75 -10 l-58 6 1 -58 c0 -48 -16 -136 -29 -153 -1 -2 -9 2
-18 9 -12 10 -16 9 -21 -6 -3 -11 -10 -27 -15 -36 -6 -12 -4 -20 7 -26 8 -4
16 -18 17 -30 1 -18 4 -19 17 -9 8 7 29 19 45 26 17 7 41 19 55 26 14 7 49 26
78 41 57 31 62 39 31 49 -13 5 -19 14 -17 28 4 28 28 34 35 9 3 -11 12 -23 20
-26 17 -7 103 32 103 46 0 5 3 7 8 5 4 -3 23 3 42 14 19 10 43 21 53 25 23 9
22 35 -3 41 -24 6 -21 26 3 31 11 2 19 -6 23 -22 3 -14 9 -26 13 -26 12 -1
131 65 131 73 0 4 -7 7 -17 7 -9 0 -13 3 -10 7 4 3 -1 12 -11 19 -16 12 -16
13 2 20 18 7 39 -10 49 -40 3 -7 16 -5 42 7 42 20 59 16 23 -6 -123 -75 -128
-79 -118 -97 7 -13 6 -20 -6 -24 -24 -9 -26 -8 -19 14 4 11 2 20 -4 20 -6 0
-11 -5 -11 -10 0 -6 -7 -10 -16 -8 -10 2 -19 -3 -21 -10 -3 -7 1 -10 11 -6 17
6 23 -11 7 -20 -5 -3 -7 -16 -4 -29 4 -18 3 -19 -6 -7 -10 13 -12 13 -20 1 -8
-12 -12 -12 -25 -2 -20 17 -35 7 -32 -22 2 -20 -4 -25 -41 -35 -23 -7 -52 -21
-63 -32 -11 -11 -26 -20 -34 -20 -28 0 -46 -12 -46 -31 0 -13 -12 -21 -42 -30
-24 -6 -47 -14 -53 -19 -5 -4 -20 -6 -32 -5 -12 1 -19 -3 -16 -8 7 -12 -16
-26 -47 -28 -17 -1 -19 -3 -7 -6 22 -6 22 -15 -2 -30 -13 -8 -21 -9 -23 -2 -2
6 -11 7 -21 4 -9 -4 -14 -11 -11 -16 3 -5 -7 -14 -23 -20 -15 -6 -36 -18 -46
-26 -9 -9 -34 -19 -55 -23 -21 -3 -36 -11 -35 -18 2 -7 -8 -12 -22 -12 -14 0
-25 -4 -25 -10 0 -5 -11 -12 -25 -16 -14 -3 -34 -17 -44 -30 -10 -13 -21 -20
-25 -17 -11 11 -56 -19 -56 -38 0 -9 -8 -19 -17 -23 -10 -3 -25 -9 -33 -12 -8
-3 -1 4 15 15 26 18 27 21 10 21 -11 0 -31 -7 -43 -16 -12 -8 -30 -14 -40 -12
-11 3 0 12 32 26 32 15 46 26 40 32 -6 6 -38 -5 -89 -32 -44 -22 -90 -46 -102
-52 -13 -6 -23 -14 -23 -18 0 -5 -4 -8 -8 -8 -4 0 -91 -45 -192 -101 -102 -56
-222 -121 -268 -145 -94 -50 -129 -71 -156 -96 -19 -18 -19 -18 2 -18 12 0 22
5 22 10 0 6 5 10 10 10 23 0 7 -32 -22 -45 -18 -8 -26 -15 -18 -15 8 -1 -3
-10 -24 -21 -21 -12 -44 -25 -50 -31 -15 -13 -82 -52 -136 -80 -54 -27 -123
-94 -115 -111 4 -7 -1 -3 -10 8 -13 17 -17 18 -25 6 -5 -8 -22 -16 -38 -17
-37 -2 -92 -31 -92 -48 0 -9 -9 -12 -27 -10 -16 2 -22 1 -15 -2 21 -10 13 -26
-11 -20 -18 4 -23 1 -23 -13 0 -18 2 -18 29 -4 16 8 31 12 33 10 4 -4 -121
-78 -158 -95 -4 -2 -10 8 -14 22 -6 26 -18 33 -28 17 -4 -5 0 -12 6 -15 7 -3
0 -4 -16 -2 -20 3 -36 -3 -50 -16 l-21 -20 30 5 c17 3 40 8 53 12 13 5 22 3
22 -4 0 -6 -11 -13 -25 -17 -14 -3 -25 -10 -25 -15 0 -5 -7 -9 -15 -9 -8 0
-15 -3 -15 -7 0 -5 -12 -9 -26 -10 -15 0 -29 -5 -33 -11 -7 -10 -200 -102
-216 -102 -4 0 -18 -9 -32 -20 -14 -11 -41 -22 -60 -26 -24 -5 -33 -11 -29
-21 3 -8 6 -17 6 -19 0 -10 29 -3 33 9 3 9 8 9 16 1 13 -12 2 -17 -378 -210
-113 -57 -208 -104 -213 -104 -9 0 -160 -74 -220 -108 -69 -39 -97 -72 -60
-72 10 0 26 -6 36 -13 24 -18 8 -52 -29 -61 -14 -4 -25 -13 -25 -21 0 -8 -6
-15 -12 -15 -10 0 -10 -2 0 -9 9 -5 1 -10 -25 -14 -57 -9 -65 -12 -101 -31
-18 -9 -43 -16 -55 -14 -32 4 -87 -22 -88 -41 -1 -9 -2 -23 -3 -31 0 -8 -10
-15 -22 -15 -29 0 -54 -23 -47 -42 6 -14 -3 -15 -68 -11 -51 4 -77 2 -85 -6
-17 -19 -34 -53 -34 -69 0 -21 68 -32 193 -30 60 1 107 0 105 -2 -6 -6 -202
-45 -224 -45 -20 0 -42 -17 -33 -24 9 -7 220 15 274 28 33 8 101 23 150 31 50
9 101 19 115 22 20 4 22 2 10 -6 -10 -7 -11 -11 -2 -11 6 0 12 -4 12 -9 0 -5
-18 -7 -40 -4 -32 5 -40 2 -40 -10 0 -12 9 -14 43 -10 23 3 57 9 76 15 l34 11
-29 15 -29 16 70 18 c39 9 79 17 90 17 17 -1 17 -2 2 -6 -9 -2 -17 -9 -17 -14
0 -6 -9 -7 -20 -4 -29 9 -60 -4 -60 -25 0 -16 4 -17 30 -10 17 5 30 5 30 0 0
-11 -24 -18 -215 -65 -99 -24 -145 -40 -157 -55 -11 -14 -28 -20 -55 -20 -29
0 -35 -3 -23 -11 11 -8 9 -9 -10 -4 -14 4 -27 7 -30 7 -22 0 -30 -3 -25 -11 3
-6 -16 -13 -42 -16 -53 -7 -86 -15 -81 -20 2 -1 26 1 55 4 56 8 65 -3 11 -12
-70 -12 -114 -25 -88 -25 14 -1 54 5 90 14 36 8 101 21 145 30 44 9 82 19 85
23 3 3 23 7 45 7 22 1 81 11 130 22 291 64 636 182 958 326 332 149 1018 501
1312 674 39 23 154 89 257 147 158 90 192 106 217 100 23 -5 29 -11 28 -33 -3
-80 3 -114 21 -119 15 -3 19 -15 19 -56 0 -29 3 -63 6 -77 3 -14 9 -42 12 -62
l6 -37 37 16 c20 9 47 20 59 26 11 5 29 24 39 42 10 18 23 31 30 28 23 -9 73
58 96 128 12 38 26 69 30 69 4 0 8 -4 8 -9 0 -4 20 -29 44 -55 40 -43 46 -47
66 -36 12 6 31 32 42 57 16 36 18 50 9 75 -10 28 -9 30 11 25 13 -4 29 0 40 9
15 14 19 14 38 1 17 -12 41 -14 99 -11 115 7 141 13 141 30 0 12 7 14 30 9 37
-8 39 6 3 34 -41 33 -21 35 48 5 35 -14 74 -26 87 -26 25 -1 82 54 63 60 -6 2
-11 10 -11 17 0 27 -59 81 -122 112 -96 47 -178 128 -178 175 0 10 106 -46
200 -107 76 -49 105 -65 119 -65 24 0 6 18 -78 79 -75 54 -87 67 -83 87 2 14
0 24 -7 24 -7 0 -9 5 -6 10 4 6 11 7 17 4 8 -5 9 -1 5 10 -4 10 -7 22 -7 27 0
5 -6 9 -14 9 -9 0 -12 8 -9 24 6 32 -32 58 -95 63 l-46 4 29 -26 c17 -14 35
-25 40 -25 6 0 20 -8 33 -18 21 -16 21 -18 5 -32 -15 -13 -22 -13 -43 -3 -14
7 -21 13 -17 13 9 0 -18 30 -28 30 -8 0 -75 62 -75 70 0 4 10 10 22 13 21 6
21 7 4 26 -18 20 -15 41 7 41 7 0 19 8 28 18 8 9 26 24 39 33 14 9 22 20 18
24 -3 3 -29 -10 -57 -29 -60 -43 -70 -44 -105 -11 -35 32 -33 57 7 80 17 10
34 21 37 25 3 3 41 29 85 58 44 28 85 55 91 59 5 5 17 13 26 18 114 73 490
325 498 335 3 3 45 33 93 65 142 96 157 107 151 116 -3 5 -15 4 -27 -3 -20
-10 -21 -10 -9 5 8 9 22 19 32 22 11 3 33 25 50 47 16 23 30 39 30 35 0 -3 18
0 41 8 23 8 45 13 49 10 5 -3 10 -1 12 3 3 9 78 24 78 16 0 -3 -11 -17 -25
-32 -14 -15 -25 -32 -25 -38 0 -6 -9 -19 -20 -29 -11 -10 -20 -22 -20 -27 0
-10 54 2 58 13 2 4 9 6 16 3 6 -2 63 11 126 30 515 156 993 244 1419 262 69 3
130 9 136 14 17 14 212 2 274 -17 35 -10 71 -13 105 -10 28 4 69 2 91 -4 22
-5 63 -12 90 -14 28 -3 73 -7 100 -10 77 -9 43 9 -65 34 -112 27 -134 36 -194
87 -36 30 -43 41 -34 50 29 26 123 55 205 63 48 5 108 18 133 30 55 24 49 25
-29 6 -50 -13 -80 -14 -181 -5 -81 7 -127 7 -140 0 -10 -5 -34 -10 -52 -10
l-33 1 28 22 c32 27 34 37 7 37 -21 0 -29 30 -7 30 6 0 3 6 -7 12 -12 6 -43 8
-82 5 -63 -6 -75 -2 -53 20 12 12 -58 33 -109 33 -16 0 -35 6 -41 14 -9 11 -6
16 16 24 19 6 36 25 51 54 12 25 31 48 42 51 12 3 20 14 20 27 0 12 9 33 20
47 33 42 26 71 -20 89 l-40 16 30 34 c37 43 38 55 3 50 -59 -8 -116 -25 -328
-101 -71 -26 -161 -57 -200 -70 -38 -13 -137 -49 -220 -80 -82 -32 -179 -67
-215 -80 -36 -13 -73 -26 -82 -30 -10 -4 -18 -3 -18 2 0 5 21 17 48 26 26 9
37 15 25 13 -13 -2 -26 0 -29 5 -3 5 -2 9 3 8 23 -4 43 2 40 12 -1 7 13 16 31
21 17 5 32 13 32 18 0 15 -22 12 -65 -10 -21 -11 -41 -18 -43 -15 -2 2 -21 -2
-41 -10 -20 -8 -92 -28 -160 -45 -139 -34 -309 -111 -307 -139 1 -9 -10 -17
-28 -21 -28 -5 -50 -30 -27 -30 6 0 11 5 11 11 0 17 22 5 30 -17 7 -16 3 -19
-26 -19 -22 0 -38 7 -48 20 -8 11 -17 17 -21 13 -12 -12 36 -50 56 -45 31 8
22 0 -23 -21 -51 -24 -90 -34 -82 -21 3 5 14 9 25 9 10 0 19 4 19 8 0 10 -36
9 -46 -1 -4 -4 -16 -7 -27 -7 -13 0 -17 -5 -14 -15 4 -8 1 -17 -5 -21 -6 -4
-8 -3 -5 3 4 6 -2 18 -13 28 -17 15 -24 16 -45 7 -14 -6 -32 -9 -40 -6 -23 9
-75 -15 -68 -32 3 -8 15 -14 27 -14 19 -1 20 -2 4 -14 -10 -7 -14 -17 -10 -21
4 -5 1 -5 -6 -1 -7 4 -27 -1 -45 -12 -32 -19 -61 -19 -85 1 -7 5 -16 6 -20 2
-4 -4 -1 -10 6 -12 18 -7 14 -31 -7 -43 -31 -16 -43 -13 -29 10 14 22 3 39
-14 22 -7 -7 -17 -12 -22 -12 -6 0 7 16 29 34 47 40 41 57 -11 32 -49 -23 -55
-13 -10 16 20 13 36 29 36 36 0 18 -62 53 -82 46 -22 -7 -23 9 -3 26 18 15 11
28 -23 41 -21 8 -23 12 -12 19 12 8 12 10 -3 16 -21 8 -22 24 -2 24 8 0 15 5
15 11 0 5 -5 7 -10 4 -20 -12 -23 28 -5 61 21 39 111 130 125 126 6 -1 10 3
10 9 0 15 16 29 85 75 105 71 314 181 395 209 3 1 18 7 33 13 16 7 30 12 31
12 2 0 21 8 42 17 22 9 44 18 49 20 6 1 75 25 155 51 80 27 188 59 240 72 52
13 124 31 160 41 36 10 85 21 110 25 25 3 64 18 88 31 23 14 42 20 42 14 0 -6
-8 -11 -17 -12 -11 0 -13 -3 -5 -6 6 -2 35 9 62 26 56 35 78 40 55 14 -9 -10
-27 -32 -40 -50 l-25 -31 30 -10 c16 -6 30 -8 30 -5 0 3 7 0 15 -7 9 -7 46
-14 83 -15 87 -3 86 -2 68 -20 -19 -19 -32 -19 -16 0 17 20 -7 21 -35 1 -14
-9 -72 -16 -179 -21 -88 -4 -169 -9 -180 -11 -82 -16 -129 -25 -181 -37 -66
-16 -273 -79 -320 -98 -16 -7 -33 -12 -36 -11 -4 1 -34 -12 -68 -28 -34 -17
-63 -30 -66 -30 -11 0 -192 -89 -280 -137 -133 -75 -228 -147 -294 -224 -30
-35 -64 -72 -75 -81 -29 -24 -5 -22 44 3 22 11 59 23 82 27 39 5 42 4 29 -12
-12 -15 -11 -16 15 -14 16 1 43 1 59 0 l30 -2 -30 -20 c-16 -11 -40 -20 -52
-20 -13 0 -23 -4 -23 -9 0 -5 -18 -16 -40 -25 -45 -18 -51 -33 -17 -45 15 -6
32 -3 57 9 19 10 64 27 100 38 36 11 64 25 63 31 -2 6 8 11 21 11 13 0 26 5
28 10 2 6 21 13 43 16 22 4 58 15 81 25 22 10 48 19 58 19 9 0 15 4 11 10 -6
10 45 40 70 40 9 0 14 4 10 9 -3 5 3 12 12 14 12 3 10 5 -7 5 -14 1 -43 -5
-65 -13 -22 -8 -49 -15 -60 -15 -11 0 -35 -9 -53 -20 -37 -23 -42 -24 -42 -9
0 5 5 7 10 4 6 -3 10 -1 10 5 0 6 -11 8 -27 4 -25 -6 -26 -5 -13 8 16 16 91
40 123 39 15 0 16 3 7 15 -10 11 -10 14 0 14 8 0 10 3 7 6 -4 4 -20 1 -37 -6
-17 -7 -33 -10 -36 -7 -3 3 19 13 48 22 29 10 58 21 63 25 6 4 35 15 65 25 30
10 114 39 185 65 72 26 141 51 155 55 35 10 16 -7 -23 -22 -29 -10 -30 -11 -7
-12 36 0 65 14 65 30 0 14 18 16 46 5 19 -8 52 20 43 36 -4 6 1 8 14 4 14 -5
28 0 41 13 12 12 29 21 39 21 14 0 15 -2 2 -10 -13 -8 -13 -10 2 -10 9 0 19 8
22 18 8 24 70 40 149 37 41 -2 72 2 80 9 22 20 70 37 79 28 6 -6 -3 -12 -21
-15 -17 -4 -31 -13 -31 -21 0 -7 -13 -19 -30 -26 -16 -7 -30 -17 -30 -22 0
-10 59 -8 75 3 12 7 60 21 94 25 13 2 31 6 40 10 9 4 23 6 33 5 9 -1 19 3 23
9 3 5 16 10 29 10 13 0 74 13 137 29 192 48 266 64 279 59 7 -2 -27 -17 -76
-32 -96 -30 -185 -65 -169 -66 14 -1 -66 -40 -82 -40 -7 0 -13 -3 -13 -7 0 -5
25 -6 56 -4 41 2 53 6 43 13 -10 7 -6 8 14 5 15 -2 29 -1 32 3 2 4 20 7 40 8
19 1 43 5 53 10 9 5 22 7 29 5 6 -2 14 1 18 6 3 6 19 11 34 11 16 0 34 6 40
14 6 7 32 16 57 20 60 8 120 36 102 47 -7 5 -17 9 -23 9 -5 0 -3 -5 5 -10 8
-5 11 -10 5 -10 -5 0 -16 4 -23 9 -9 5 4 14 40 28 52 20 53 20 71 2 24 -25 54
-24 62 2 6 17 9 18 16 8 12 -20 22 -4 10 18 -5 10 -19 50 -30 89 -20 68 -23
73 -78 110 -32 21 -64 39 -72 39 -28 0 -21 23 14 43 19 12 35 25 35 29 0 12
-48 46 -68 49 -196 28 -317 64 -214 64 45 0 55 6 74 45 24 47 29 105 15 160
-13 48 -15 50 -48 50 -19 -1 -49 -5 -68 -9 l-34 -8 27 47 c14 26 26 53 26 59
-1 17 -49 48 -66 42 -10 -4 -14 2 -14 23 0 27 -31 67 -42 55 -4 -3 -2 14 3 37
6 23 8 48 5 54 -2 7 -30 17 -62 23 -71 15 -71 15 -71 -2 0 -8 7 -11 18 -9 16
5 17 1 7 -31 -10 -30 -18 -38 -50 -47 -21 -5 -42 -8 -46 -6 -4 3 -16 1 -27 -4
-17 -6 -15 -8 10 -8 43 -2 11 -21 -34 -21 -31 0 -33 2 -17 13 11 8 15 19 10
30 -7 18 -24 23 -24 7 0 -14 -28 -12 -74 4 -22 8 -33 16 -25 18 8 3 12 8 9 10
-5 5 -106 -9 -202 -27 -52 -10 -49 9 5 25 23 7 47 14 52 15 6 2 2 4 -7 4 -10
1 -18 5 -18 10 0 5 -9 11 -20 14 -13 3 -20 0 -20 -9 0 -8 -4 -14 -10 -14 -5 0
-7 6 -4 13 7 19 -11 62 -37 88 l-21 21 -14 -21 c-25 -35 -37 -23 -14 14 18 29
19 38 9 57 -7 13 -14 39 -16 58 -2 19 -13 44 -23 55 -20 19 -20 19 -47 -2 -17
-12 -28 -30 -28 -44 0 -13 -4 -30 -8 -36 -13 -20 -81 -16 -110 8 -21 15 -31
18 -46 10 -22 -12 -91 -90 -91 -103 0 -4 -11 -31 -25 -60 -14 -28 -25 -57 -25
-64 0 -7 -4 -14 -8 -16 -5 -1 -20 -19 -33 -39 -20 -31 -64 -87 -125 -162 -8
-9 -14 -20 -14 -23 0 -6 -40 -63 -59 -84 -16 -16 -16 -16 18 55 13 28 28 60
33 71 6 12 21 33 34 47 l23 25 -30 24 -29 23 20 33 c11 18 34 41 51 51 19 12
26 21 19 26 -6 4 12 23 47 48 64 45 84 67 75 81 -3 5 2 7 11 3 9 -3 16 -3 15
1 -3 11 32 74 60 107 25 30 15 48 -13 25 -11 -9 -15 -9 -15 -1 0 6 5 11 10 11
6 0 10 7 10 15 0 8 -9 15 -20 15 -11 0 -20 -4 -20 -10 0 -5 -8 -10 -19 -10
-10 0 -24 -7 -31 -14 -20 -25 -74 -53 -95 -50 -11 2 -23 -2 -27 -9 -4 -6 -10
-8 -14 -4 -4 4 -5 8 -3 10 2 2 40 33 85 69 44 36 95 73 113 82 31 16 34 16 66
-4 l34 -21 11 20 c6 12 23 27 38 36 55 30 83 63 76 90 -8 34 -42 33 -70 -2
-12 -16 -25 -25 -28 -22 -3 3 2 14 12 25 38 43 43 52 32 59 -6 4 -9 3 -8 -2 4
-11 -103 -125 -110 -118 -3 2 10 21 27 41 18 20 30 42 27 50 -3 8 3 20 14 26
11 7 20 17 20 22 0 4 -6 3 -14 -3 -11 -9 -13 -5 -12 25 1 23 -4 39 -14 44 -49
25 -69 32 -79 26 -6 -4 -11 -3 -11 2 0 6 8 13 17 16 12 5 13 10 5 18 -6 6 -8
16 -6 22 5 13 -36 36 -63 36 -9 0 -13 6 -10 14 4 10 1 13 -9 9 -7 -3 -14 -1
-14 5 0 5 -9 12 -19 15 -14 3 -22 20 -31 63 -19 91 -31 125 -46 131 -8 3 -14
18 -14 34 0 19 -5 29 -15 29 -9 0 -15 -9 -15 -25 0 -14 7 -28 15 -31 15 -6 22
-34 8 -34 -3 0 -15 8 -26 18 -20 16 -20 16 -14 -2 9 -22 -23 -52 -35 -33 -11
18 -20 1 -24 -40 -2 -21 -6 -48 -10 -60 -5 -18 -2 -23 11 -23 18 0 14 -27 -11
-68 -14 -21 -13 -23 11 -32 15 -6 31 -10 36 -10 14 0 11 -7 -18 -52 -66 -98
-65 -97 -38 -104 14 -3 25 -12 25 -19 0 -18 -17 -28 -25 -15 -4 6 -13 5 -25
-2 -14 -9 -16 -15 -8 -25 8 -10 2 -20 -23 -42 -18 -17 -30 -33 -27 -37 10 -10
80 45 86 68 2 10 8 18 13 18 5 0 5 -8 2 -17 -6 -14 -2 -13 21 5 36 28 96 31
96 5 0 -10 -14 -47 -30 -81 -17 -35 -30 -65 -30 -67 0 -1 23 -2 50 0 28 1 50
-1 50 -6 0 -5 -16 -9 -35 -9 -19 0 -35 -4 -35 -10 0 -5 -7 -10 -16 -10 -8 0
-12 -4 -9 -10 3 -6 -1 -7 -9 -4 -9 3 -16 1 -16 -5 0 -7 -30 -10 -85 -8 -47 1
-85 5 -85 10 0 4 7 7 16 7 8 0 12 5 9 10 -11 17 -42 11 -73 -15 -38 -32 -42
-31 -42 3 0 20 9 33 38 51 67 45 79 71 32 71 -16 0 -30 -5 -30 -10 0 -6 -3 -9
-7 -8 -13 4 -73 -24 -73 -34 0 -6 -11 -7 -24 -4 -18 4 -25 1 -29 -14 -7 -26
-37 -26 -44 0 -3 11 -12 20 -19 20 -20 0 -17 11 11 50 14 19 25 41 24 49 0 14
-1 14 -6 1 -11 -30 -25 -41 -39 -29 -17 14 -49 -33 -40 -58 4 -10 4 -14 0 -10
-8 8 -49 -48 -64 -87 -9 -24 -8 -24 38 -23 38 0 53 -5 75 -25 28 -26 29 -65 1
-54 -10 4 -14 -3 -14 -20 0 -26 -28 -84 -41 -84 -4 0 -10 10 -13 23 -6 21 -7
21 -20 5 -7 -10 -21 -18 -30 -18 -17 0 -22 25 -6 35 5 3 7 12 3 21 -4 12 -8
11 -20 -6 -11 -15 -22 -20 -37 -16 -17 4 -28 -6 -60 -55 -21 -33 -50 -69 -65
-80 -14 -12 -25 -23 -23 -25 7 -13 0 -23 -17 -21 -16 1 -18 5 -10 19 5 10 14
18 19 18 6 0 10 7 10 15 0 8 4 15 9 15 12 0 48 58 56 92 6 23 4 27 -13 25 -11
0 -18 -6 -16 -12 2 -5 -9 -19 -26 -30 -16 -11 -30 -24 -30 -30 -1 -17 -59 -79
-67 -71 -4 4 0 21 9 37 9 16 13 29 9 29 -5 0 4 14 20 31 16 17 29 36 29 42 0
6 8 20 19 31 10 12 26 33 35 47 16 26 16 26 -11 23 -16 -2 -20 -1 -10 2 9 3
17 10 17 15 0 12 -42 1 -51 -13 -4 -6 -9 -5 -14 2 -9 14 -70 5 -99 -16 -24
-16 -46 -18 -46 -4 0 5 6 7 14 4 8 -3 20 3 27 13 36 49 79 57 197 37 30 -5 32
-3 24 13 -6 10 -20 27 -31 37 -12 11 -21 22 -21 26 0 5 41 36 91 70 86 59 93
62 133 56 36 -6 45 -4 51 11 12 27 14 73 3 73 -5 0 -7 -4 -4 -9 3 -5 -5 -8
-19 -7 -17 1 -25 7 -25 19 0 9 -4 17 -10 17 -5 0 -10 7 -10 16 0 8 4 13 9 10
5 -4 11 0 14 6 4 13 -60 38 -99 38 -12 0 -45 -22 -75 -49 -44 -40 -55 -46 -64
-34 -13 18 -82 34 -115 26 -14 -3 -42 -15 -62 -26 -70 -35 -62 -11 13 44 128
95 133 118 13 64 -43 -20 -84 -33 -92 -30 -7 3 -22 0 -34 -6 -23 -12 -40 5
-58 58 -10 27 -8 36 9 60 11 15 27 45 36 65 l15 37 -35 -23 c-34 -24 -35 -24
-70 -6 -59 30 -65 39 -65 92 0 45 -2 49 -21 46 -19 -3 -25 6 -41 55 -16 49
-17 65 -7 94 13 40 14 38 -29 46 -24 5 -37 2 -51 -12 -11 -11 -41 -23 -68 -27
-26 -3 -52 -9 -58 -12 -5 -4 -16 -7 -24 -9 -8 -1 -28 -12 -44 -24 -24 -17 -29
-18 -24 -6 7 18 -8 24 -16 7 -3 -6 -4 -5 -3 2 2 7 11 12 20 11 10 0 15 4 13
11 -6 14 98 64 149 73 27 4 30 8 26 34 -2 15 -10 34 -18 40 -20 16 -17 37 5
44 23 7 59 45 42 45 -6 0 -28 -7 -48 -15 -42 -18 -49 -15 -31 14 18 29 -1 48
-30 30 -17 -11 -25 -11 -46 0 -13 8 -37 11 -51 9 -28 -6 -29 -2 -9 47 7 18 6
18 -9 6 -23 -18 -42 -9 -61 29 -19 39 -6 75 24 65 25 -8 32 7 17 38 -10 21
-17 25 -36 20 -19 -5 -23 -3 -18 10 4 11 2 14 -8 11 -8 -4 -30 11 -53 35 -46
49 -64 51 -91 12 -25 -35 -26 -47 -6 -94 17 -42 19 -94 5 -132 -10 -26 -47
-64 -63 -65 -11 0 -44 76 -57 134 -6 27 -17 58 -25 70 -8 11 -15 31 -15 44 0
12 -8 25 -17 29 -10 3 -26 13 -35 21 -12 10 -18 11 -18 4 0 -7 -4 -12 -9 -12
-5 0 -7 8 -5 18 3 11 -11 28 -41 50 -74 54 -71 55 -79 -62z m1190 -1187 c44
-34 78 -67 78 -75 -1 -8 2 -11 7 -9 9 6 54 -39 71 -70 11 -20 10 -20 -10 -2
-12 11 -26 16 -33 11 -8 -5 -10 -3 -4 6 6 10 -4 12 -54 7 -53 -4 -62 -3 -57
10 3 8 6 21 6 29 0 8 6 11 15 8 8 -4 12 -10 9 -15 -3 -5 2 -9 12 -9 14 0 15 2
3 17 -12 15 -12 16 6 10 18 -7 19 -6 3 6 -10 8 -14 18 -10 22 4 5 1 5 -6 1 -7
-4 -10 -11 -8 -15 3 -4 -16 -8 -42 -9 -63 -2 -102 -11 -130 -29 -13 -8 -26
-13 -28 -10 -9 9 49 39 84 43 20 3 48 12 62 22 l25 17 -40 3 c-38 3 -59 18
-49 34 3 4 13 4 23 -1 13 -7 18 -6 18 4 0 7 -6 11 -13 8 -6 -2 -15 1 -20 8 -4
8 -3 10 4 5 7 -4 12 -2 12 3 0 6 -7 11 -15 11 -8 0 -15 5 -15 10 0 19 18 10
96 -51z m-999 -335 c14 -39 13 -47 -7 -120 -26 -92 -52 -161 -84 -224 -13 -25
-27 -56 -31 -70 -7 -22 -6 -24 9 -11 9 8 14 21 11 30 -3 8 -3 12 1 9 8 -9 34
16 35 34 0 9 2 9 5 1 3 -6 -9 -39 -26 -74 -24 -47 -34 -59 -41 -48 -7 10 -8 6
-4 -11 4 -19 0 -31 -14 -44 -12 -11 -21 -23 -21 -28 0 -15 -66 -108 -73 -102
-9 10 4 34 16 27 6 -3 7 -1 3 5 -8 13 -36 5 -36 -12 0 -6 -14 -22 -30 -35 -16
-13 -28 -27 -25 -31 3 -4 -2 -14 -11 -21 -8 -7 -22 -25 -30 -41 -14 -27 -34
-38 -34 -19 0 5 54 91 121 192 117 180 199 326 199 357 0 8 6 23 13 31 24 28
50 129 43 169 -9 52 -16 121 -10 97 3 -11 12 -39 21 -61z m379 -90 c23 -6 24
-9 19 -58 -10 -86 -13 -91 -62 -126 -26 -19 -65 -50 -85 -68 -38 -35 -63 -35
-53 -1 8 23 -10 47 -42 60 -13 5 -23 15 -23 23 0 8 35 43 78 79 42 36 86 74
96 86 11 12 26 19 34 16 8 -3 25 -8 38 -11z m-42 -466 c-4 -40 -12 -58 -32
-75 -14 -12 -28 -20 -30 -18 -2 2 -41 -12 -85 -32 -45 -19 -88 -37 -96 -41 -8
-3 -12 0 -10 7 5 14 240 210 252 211 4 0 5 -24 1 -52z m3097 -332 c-7 -8 -26
-18 -43 -21 -39 -9 -116 -43 -150 -66 -32 -23 -74 -25 -82 -3 -10 27 -7 44 9
44 8 0 15 8 16 18 0 10 3 12 6 5 2 -7 11 -13 19 -13 7 0 11 6 8 13 -4 10 16
16 78 24 132 16 153 16 139 -1z m93 -101 c3 -8 12 -15 19 -15 8 0 20 -7 28
-16 8 -10 23 -14 41 -12 15 3 28 1 28 -4 0 -4 4 -8 9 -8 5 0 8 11 7 25 -2 13
1 22 6 19 5 -3 7 -12 4 -19 -2 -7 1 -18 7 -24 9 -9 8 -14 -3 -21 -8 -5 -19 -6
-25 -2 -5 3 -4 -1 3 -10 22 -27 1 -27 -78 -2 -79 26 -204 33 -342 19 -67 -6
-119 3 -126 23 -6 18 35 15 42 -3 3 -8 16 -14 28 -14 l23 2 -22 4 c-24 5 -30
18 -13 28 6 4 17 1 25 -5 12 -10 15 -10 15 0 0 6 6 10 13 7 6 -2 11 -10 9 -16
-1 -7 2 -10 8 -6 6 3 8 11 5 16 -10 15 12 10 29 -6 9 -9 31 -15 58 -14 24 1
35 3 25 6 -25 7 -10 23 21 23 22 0 24 -2 12 -11 -13 -9 -13 -10 0 -7 8 3 19
14 25 26 7 16 20 22 55 25 25 2 48 4 51 5 4 1 9 -5 13 -13z m-4434 -2920 c10
-12 10 -15 0 -15 -7 0 -32 -13 -57 -30 -24 -16 -49 -30 -55 -30 -6 0 -16 -6
-22 -14 -16 -21 -371 -206 -395 -206 -6 0 -8 7 -4 16 3 8 11 13 17 11 6 -2 25
4 41 14 17 10 41 24 55 31 14 7 38 23 53 35 16 13 33 21 38 18 5 -4 19 4 31
15 13 12 38 28 56 35 17 8 32 19 32 26 0 6 7 9 15 5 8 -3 15 -2 15 2 0 5 16
16 35 25 19 9 35 21 35 26 0 5 9 7 20 4 13 -3 20 0 20 8 0 8 10 19 23 25 31
16 33 16 47 -1z m173 -23 c-3 -14 -11 -18 -29 -14 -14 2 -24 0 -24 -7 0 -6 8
-11 17 -11 21 0 10 -12 -39 -39 -21 -11 -40 -16 -43 -11 -3 4 8 14 25 22 32
14 40 28 15 28 -8 0 -15 -5 -15 -10 0 -6 -12 -16 -27 -23 -16 -6 -35 -18 -43
-26 -12 -12 -11 -13 9 -6 33 10 18 -11 -22 -31 -18 -9 -34 -20 -37 -24 -3 -3
-39 -25 -80 -46 -88 -47 -123 -67 -130 -74 -11 -11 -216 -110 -228 -110 -7 0
-11 -4 -8 -9 7 -10 -19 -23 -28 -14 -3 4 -1 12 5 20 9 10 8 13 -2 13 -20 0
-34 -12 -43 -35 -6 -16 -9 -17 -16 -5 -8 12 -10 10 -10 -7 0 -17 -6 -23 -22
-23 -12 0 -19 -3 -15 -6 3 -3 -67 -42 -156 -86 -157 -78 -223 -105 -212 -88 3
4 17 11 32 15 35 8 73 32 73 46 0 6 -10 8 -22 5 -13 -3 9 10 47 29 44 23 78
34 92 30 16 -4 21 -1 17 9 -3 8 10 21 36 35 48 25 50 25 50 6 0 -8 4 -15 9
-15 14 0 21 28 9 32 -6 2 16 17 48 33 32 17 61 33 64 36 14 16 39 17 43 1 3
-13 6 -11 15 9 10 24 60 56 199 127 36 18 48 20 59 11 11 -9 18 -9 26 -1 9 9
9 12 0 12 -25 0 -10 18 33 41 35 18 47 21 53 12 6 -10 12 -10 28 2 16 13 16
14 2 9 -29 -10 -21 11 10 27 15 8 29 16 32 19 18 18 71 49 103 61 21 7 46 21
55 31 23 23 52 23 45 0z"/>
<path d="M4945 3996 c-90 -33 -147 -62 -305 -159 -47 -29 -98 -58 -113 -66
-38 -20 -37 -45 1 -29 15 7 36 18 47 25 11 7 30 13 42 13 13 0 23 4 23 9 0 5
7 11 15 15 8 3 15 1 15 -4 0 -9 -75 -50 -92 -50 -13 0 -52 -42 -71 -77 -21
-41 -21 -40 -2 -59 8 -9 12 -20 9 -26 -4 -7 -14 -1 -25 13 l-19 24 10 -35 c12
-43 13 -40 -5 -40 -7 0 -18 -6 -22 -14 -8 -14 -88 -76 -97 -76 -3 0 -31 -15
-63 -34 -80 -46 -160 -89 -283 -154 -58 -30 -112 -60 -120 -67 -8 -7 -51 -32
-95 -55 -44 -24 -97 -54 -117 -67 -21 -12 -41 -23 -45 -23 -12 0 -84 -53 -78
-58 2 -3 20 7 38 21 19 14 46 29 60 32 14 4 31 13 38 21 6 8 20 14 29 14 10 0
20 4 22 8 2 4 23 18 48 31 l44 23 18 -22 c10 -12 18 -18 18 -13 0 5 -4 13 -10
19 -20 20 11 40 308 191 142 72 154 77 166 61 7 -10 18 -18 25 -18 6 0 11 -7
11 -15 0 -8 -7 -15 -15 -15 -8 0 -15 -4 -15 -10 0 -5 -5 -10 -11 -10 -6 0 -24
-9 -40 -21 -16 -11 -34 -17 -40 -13 -7 4 -9 3 -6 -4 4 -6 -13 -20 -40 -33 -27
-12 -62 -33 -80 -45 -17 -13 -35 -24 -40 -24 -5 0 -25 -11 -46 -25 -20 -14
-37 -23 -37 -20 0 4 -13 -3 -29 -14 -16 -12 -32 -21 -35 -21 -4 0 -36 -18 -72
-40 -36 -22 -69 -40 -73 -40 -3 0 -17 -9 -30 -19 -13 -10 -32 -16 -42 -14 -11
3 -21 -1 -25 -11 -3 -9 -10 -14 -14 -11 -4 2 -20 -7 -34 -20 -15 -14 -36 -25
-46 -25 -10 0 -23 -6 -27 -14 -4 -8 -19 -21 -33 -28 -14 -7 -59 -37 -101 -65
-42 -29 -79 -50 -82 -47 -3 3 -10 -4 -17 -15 -6 -12 -15 -21 -21 -21 -9 0 -77
-46 -89 -61 -3 -3 -23 -18 -46 -32 -22 -14 -47 -31 -55 -39 -72 -68 -223 -158
-264 -158 -7 0 -16 -4 -20 -9 -3 -5 -18 -9 -33 -9 -16 1 -37 -4 -48 -10 -16
-10 -17 -11 -2 -12 9 0 39 4 65 10 26 5 73 11 103 14 31 2 69 7 85 10 21 5 24
4 11 -2 -19 -8 -19 -9 -1 -15 20 -8 83 1 90 14 3 4 26 11 52 15 25 4 58 13 72
20 34 18 46 18 27 -1 -8 -8 -21 -15 -30 -15 -21 0 -59 -51 -47 -63 7 -7 17 -4
31 8 11 10 18 20 15 23 -3 3 4 12 16 20 11 8 23 11 27 7 3 -3 0 -11 -8 -16
-13 -9 -13 -10 0 -6 8 2 23 0 34 -5 13 -7 16 -7 12 1 -4 6 4 13 19 17 19 5 25
12 25 35 l0 29 -21 -21 c-15 -15 -24 -18 -32 -10 -16 16 -6 22 118 71 61 23
124 49 140 55 17 7 66 27 110 45 44 18 122 50 173 72 51 21 100 37 110 34 9
-3 35 1 57 10 29 11 32 14 13 11 -16 -2 -28 -1 -28 3 0 12 49 30 80 30 20 0
30 5 30 15 0 15 4 17 55 19 18 1 29 6 28 13 -3 16 54 46 73 39 26 -10 15 -27
-13 -21 -21 4 -23 3 -9 -3 18 -8 18 -10 -10 -24 -16 -8 -60 -32 -99 -52 -38
-21 -101 -51 -140 -67 -38 -17 -72 -34 -75 -38 -3 -4 -18 -13 -35 -20 -30 -11
-30 -11 -2 -6 15 3 66 23 113 45 46 22 86 40 89 40 3 0 173 84 380 187 206
102 378 183 383 179 4 -4 -1 -13 -11 -20 -24 -19 -21 -35 9 -47 20 -7 32 -6
48 4 25 17 90 33 66 17 -8 -5 -23 -10 -32 -10 -22 0 -23 -23 -3 -40 8 -7 15
-16 15 -21 0 -16 -19 -10 -40 13 -16 17 -23 19 -32 10 -9 -9 -9 -15 0 -24 14
-14 16 -42 3 -33 -5 3 -22 -6 -37 -20 -28 -26 -49 -24 -41 4 3 14 -1 16 -24
13 -37 -5 -38 -28 -2 -37 21 -5 24 -8 12 -16 -19 -13 31 -5 57 9 11 6 35 18
54 27 62 29 80 42 72 50 -4 5 -2 5 4 2 6 -4 35 7 65 23 113 60 157 80 177 80
11 0 23 4 26 9 3 5 17 11 30 13 22 4 23 3 13 -19 -5 -12 -19 -23 -29 -23 -12
0 -16 -4 -12 -12 5 -7 0 -9 -14 -6 -22 6 -40 -17 -19 -25 16 -5 99 37 90 46
-3 4 5 7 18 7 37 0 52 14 44 41 -7 22 -8 22 -21 4 -17 -23 -25 -15 -48 48 -19
50 -31 59 -41 27 -3 -10 -24 -33 -45 -50 l-40 -32 -10 27 c-5 14 -10 34 -11
43 0 11 -4 9 -10 -8 -6 -13 -19 -33 -30 -43 -20 -19 -20 -19 -26 1 -5 21 -5
21 -27 -1 -11 -12 -36 -30 -54 -39 l-32 -17 0 74 c0 62 -3 73 -15 69 -12 -5
-14 0 -9 27 4 19 13 49 22 67 11 26 12 36 3 45 -9 9 -11 9 -7 -3 3 -9 -5 -22
-19 -33 -22 -16 -25 -16 -25 -2 0 13 -4 14 -20 5 -23 -12 -27 2 -5 20 8 7 15
21 15 31 0 10 6 30 12 45 10 21 10 28 1 31 -9 3 -6 11 8 26 11 12 15 23 10 25
-11 4 -45 -28 -54 -49 -4 -10 -6 -9 -6 3 -1 9 3 28 9 42 9 25 8 26 -24 26
l-34 0 24 50 c13 27 24 61 24 75 0 14 8 40 17 58 9 18 16 36 15 41 -5 15 40
71 74 94 23 15 36 34 44 62 6 23 14 48 17 56 3 10 0 12 -10 8 -8 -3 -17 -1
-20 4 -8 11 29 43 39 34 4 -4 4 -1 0 6 -4 6 -8 12 -9 11 -1 0 -42 -15 -92 -33z"/>
<path d="M2680 3588 c-19 -11 -37 -23 -40 -27 -3 -3 -27 -17 -55 -31 -27 -13
-72 -37 -100 -53 -27 -16 -79 -45 -115 -65 -62 -33 -179 -110 -190 -123 -3 -4
-14 -8 -25 -10 -11 -3 -21 -13 -24 -24 -3 -17 -1 -17 12 -6 9 7 21 10 28 6 8
-6 8 -9 -1 -15 -7 -4 -11 -13 -8 -20 2 -8 11 -5 28 8 23 19 24 21 7 28 -17 6
-15 10 13 35 33 31 50 30 50 -2 0 -10 5 -19 10 -19 6 0 10 7 10 16 0 11 6 15
20 11 11 -3 18 -2 15 3 -5 8 19 22 40 24 20 2 73 36 78 50 3 7 23 22 45 31 31
14 38 22 34 37 -5 21 12 38 38 38 12 -1 11 -3 -2 -11 -10 -5 -18 -15 -18 -21
0 -6 11 -1 25 12 19 18 22 26 13 32 -9 5 -4 8 13 8 19 0 28 6 32 21 4 14 11
20 21 16 8 -3 17 1 20 8 3 8 21 21 41 29 19 8 35 20 35 25 0 15 -9 13 -50 -11z"/>
<path d="M9064 3553 c6 -15 -27 -27 -53 -18 -60 19 -589 9 -701 -13 -30 -6
-102 -14 -160 -17 -58 -4 -117 -12 -133 -20 -15 -7 -25 -9 -22 -4 4 5 2 9 -4
9 -5 0 -12 -4 -15 -9 -3 -5 -15 -7 -26 -4 -14 4 -20 0 -20 -11 0 -10 -5 -14
-11 -10 -6 3 -15 0 -20 -7 -6 -9 -9 -10 -9 -2 0 7 8 17 18 23 16 11 16 11 -1
6 -10 -3 -23 -6 -28 -6 -5 0 -9 -8 -9 -17 0 -15 -2 -16 -10 -3 -5 8 -10 11
-10 5 0 -5 -4 -4 -9 4 -5 8 -14 10 -22 5 -8 -4 -27 -7 -44 -6 -24 2 -27 1 -15
-8 12 -9 8 -10 -17 -5 -20 4 -33 3 -33 -4 0 -6 -12 -10 -27 -10 -28 1 -116
-16 -248 -47 -38 -8 -88 -20 -110 -24 -44 -10 -100 -25 -250 -69 -185 -54
-258 -84 -233 -95 7 -3 1 -4 -14 -1 -22 4 -26 2 -22 -10 7 -17 -7 -20 -22 -5
-10 10 -84 -37 -132 -85 -15 -15 -37 -34 -50 -43 -15 -10 -19 -18 -12 -22 19
-12 -48 -62 -74 -55 -17 5 -18 4 -6 -5 11 -9 12 -13 3 -17 -7 -2 -13 -10 -13
-16 0 -6 10 -1 23 10 12 11 30 23 40 26 10 4 75 44 144 89 155 100 257 144
234 100 -10 -18 7 -56 31 -73 5 -3 -7 -30 -27 -60 -47 -72 -46 -102 6 -151 48
-46 75 -58 112 -51 19 4 27 1 27 -8 0 -8 4 -20 9 -28 8 -12 15 -12 45 3 l37
17 41 -30 c58 -43 81 -41 101 9 12 32 20 40 41 40 42 0 145 87 213 180 34 47
73 96 87 110 14 14 41 41 59 60 17 19 59 64 93 100 34 36 73 86 89 113 27 46
28 47 78 47 29 0 84 10 122 20 39 11 95 26 125 32 82 18 553 15 787 -5 105
-10 222 -17 258 -17 66 0 81 13 28 23 -96 20 -155 35 -139 36 20 1 20 1 0 19
-22 21 -107 25 -100 5z"/>
<path d="M547 2011 c3 -10 -2 -32 -11 -48 -10 -21 -12 -33 -5 -40 8 -8 -1 -23
-26 -49 -32 -32 -39 -36 -56 -26 -12 8 -19 8 -19 2 0 -5 5 -10 10 -10 6 0 10
-11 10 -25 0 -14 -5 -25 -10 -25 -7 0 -7 -6 0 -20 13 -24 2 -26 -28 -4 -20 14
-22 14 -22 -3 0 -10 -7 -28 -15 -40 -15 -21 -11 -53 6 -53 5 0 12 7 15 15 4 8
16 15 29 15 18 0 21 -4 18 -24 -3 -15 -10 -23 -18 -20 -8 3 -18 -3 -24 -13 -8
-15 -5 -25 15 -48 13 -15 24 -36 24 -47 0 -10 9 -27 19 -37 11 -11 16 -22 13
-26 -10 -10 -11 -125 -1 -125 5 0 9 5 9 12 0 7 11 -4 25 -23 17 -22 25 -45 23
-64 -1 -17 1 -36 6 -43 4 -6 4 -18 -1 -24 -9 -16 -5 -49 9 -65 6 -7 7 -13 2
-13 -4 0 1 -6 12 -14 10 -8 16 -18 12 -22 -4 -4 8 -22 27 -40 19 -18 35 -37
35 -43 0 -6 5 -11 10 -11 6 0 10 7 10 15 0 8 -4 15 -10 15 -5 0 -12 11 -16 25
-3 14 -10 25 -15 25 -5 0 -7 17 -6 37 2 31 -1 38 -18 38 -24 0 -43 65 -28 98
12 28 4 59 -23 90 -23 26 -32 61 -38 143 -2 28 -9 61 -15 73 -10 18 -9 29 8
61 11 21 20 51 20 67 1 15 2 44 4 63 2 19 4 50 5 69 2 26 5 31 15 23 10 -9 19
-8 34 3 18 13 22 12 38 -5 24 -27 38 -25 30 3 -11 35 -11 42 3 40 7 -2 12 7
12 22 0 14 -4 25 -9 25 -5 0 -12 10 -14 23 -3 13 -5 8 -6 -16 -1 -35 -3 -37
-27 -31 -17 4 -29 2 -35 -7 -6 -10 -9 -4 -9 19 0 18 3 31 8 29 4 -3 13 1 20 9
11 12 10 15 -2 20 -9 3 -16 15 -16 25 0 10 -4 19 -9 19 -5 0 -7 -8 -4 -19z"/>
<path d="M939 1653 c-1 -5 0 -18 0 -30 2 -18 -3 -21 -29 -19 -18 1 -29 -2 -27
-8 2 -6 15 -10 28 -9 l24 3 -24 -20 c-17 -15 -19 -20 -8 -20 21 0 32 -19 18
-33 -8 -8 -11 -7 -11 3 0 10 -3 11 -10 4 -6 -6 -8 -19 -4 -28 5 -14 9 -15 15
-4 7 10 9 8 9 -7 0 -10 10 -59 22 -108 18 -76 25 -90 49 -103 16 -8 36 -14 46
-15 14 0 13 -2 -4 -9 -27 -11 -29 -22 -7 -55 10 -16 13 -31 8 -42 -9 -23 -11
-29 -13 -48 -1 -17 -31 -21 -31 -4 0 5 -5 7 -11 3 -8 -4 -8 -9 0 -17 17 -17
13 -46 -9 -59 -47 -29 -7 -77 42 -52 21 11 33 12 48 4 16 -9 18 -8 14 5 -4 8
-1 15 5 15 6 0 17 15 25 33 8 17 15 26 15 18 1 -11 6 -10 21 4 19 18 20 17 20
-4 0 -14 -9 -25 -25 -31 -14 -5 -25 -15 -25 -21 0 -6 -9 -24 -20 -39 -14 -20
-19 -37 -14 -54 8 -34 16 -32 34 7 11 22 22 32 38 32 13 0 34 10 46 22 l23 22
-8 -47 c-4 -26 -6 -48 -4 -50 1 -1 11 10 21 25 23 34 42 120 36 162 -6 45 -68
75 -99 49 -9 -7 -13 -7 -13 0 0 6 6 13 13 15 8 4 0 17 -22 38 -27 25 -35 40
-34 66 1 21 -4 33 -12 33 -25 0 -57 36 -57 63 0 16 -5 24 -11 20 -6 -4 -8 6
-5 28 6 41 1 59 -17 59 -17 0 -32 43 -16 48 14 5 15 32 1 32 -5 0 -10 -4 -10
-10 0 -5 -4 -10 -10 -10 -14 0 -13 47 1 56 6 3 15 1 19 -6 9 -14 13 -8 43 50
9 19 15 27 12 18 -2 -10 0 -18 5 -18 6 0 10 12 10 26 0 21 -4 25 -22 22 -15
-2 -24 -11 -26 -26 -4 -28 -23 -24 -37 6 -9 21 -34 31 -36 15z"/>
</g>
</svg>
